<?xml version="1.0" standalone="no"?>
<!DOCTYPE svg PUBLIC "-//W3C//DTD SVG 1.1//EN" "http://www.w3.org/Graphics/SVG/1.1/DTD/svg11.dtd" >
<svg xmlns="http://www.w3.org/2000/svg">
<metadata></metadata>
<defs>
<font id="newtext_book_itcbook" horiz-adv-x="1024" >
<font-face units-per-em="2048" ascent="1638" descent="-410" />
<missing-glyph horiz-adv-x="512" />
<glyph unicode="&#xfb01;" horiz-adv-x="1501" d="M-6 758l65 196q25 -20 46.5 -26t66.5 -6h119v32q0 76 8 119t25 90q39 106 138 167t234 61q86 0 183 -19q29 -6 46 -8t27 -2q12 0 20.5 2t24.5 12l-55 -188q-47 35 -100.5 51t-122.5 16q-117 0 -182 -53q-43 -35 -58 -90q-4 -16 -7 -30.5t-5 -32t-2 -40v-55.5v-32h354h60 q74 0 112 32l-61 -196q-14 18 -32.5 23t-76.5 5h-356v-526q0 -106 20.5 -164.5t71.5 -95.5h-360q51 31 72.5 91.5t21.5 168.5v526h-168q-41 0 -55.5 -1t-30.5 -5t-43 -22zM1065 0q51 39 71.5 96.5t20.5 163.5v436q0 106 -19.5 162.5t-72.5 97.5h289q-16 -20 -19.5 -37.5 t-3.5 -62.5v-596q0 -106 19.5 -163.5t70.5 -96.5h-356zM1116 1280q0 49 36 85t87 36q49 0 84 -36t35 -87q0 -49 -35 -83t-84 -34q-51 0 -87 35t-36 84z" />
<glyph unicode="&#xfb02;" horiz-adv-x="1501" d="M-6 758l65 196q25 -20 46.5 -26t66.5 -6h119v32q0 76 8 119t25 90q39 106 138 167t234 61q86 0 183 -19q29 -6 46 -8t27 -2q12 0 20.5 2t24.5 12l-55 -188q-47 35 -100.5 51t-122.5 16q-117 0 -182 -53q-43 -35 -58 -90q-4 -16 -7 -30.5t-5 -32t-2 -40v-55.5v-32h354h60 q74 0 112 32l-61 -196q-14 18 -32.5 23t-76.5 5h-356v-526q0 -106 20.5 -164.5t71.5 -95.5h-360q51 31 72.5 91.5t21.5 168.5v526h-168q-41 0 -55.5 -1t-30.5 -5t-43 -22zM1061 0q27 23 44 46.5t27.5 53t14.5 68.5t4 92v846q0 51 -4 90t-14.5 68.5t-28 54t-43.5 47.5h282 q-10 -18 -14 -42t-4 -71v-993q0 -106 21.5 -165.5t70.5 -94.5h-356z" />
<glyph horiz-adv-x="2048" />
<glyph horiz-adv-x="2048" />
<glyph unicode="&#xd;" horiz-adv-x="2048" />
<glyph unicode=" "  horiz-adv-x="512" />
<glyph unicode="&#x09;" horiz-adv-x="512" />
<glyph unicode="&#xa0;" horiz-adv-x="512" />
<glyph unicode="!" horiz-adv-x="604" d="M211 106q0 53 39 91.5t92 38.5t92 -37t39 -90q0 -57 -38 -96.5t-93 -39.5q-53 0 -92 39t-39 94zM211 1094q0 168 29 231q14 29 41.5 48.5t56.5 19.5t56.5 -19.5t39.5 -48.5q14 -35 21.5 -96.5t7.5 -153.5q0 -127 -16.5 -271.5t-47.5 -291.5q-16 -76 -27.5 -101.5 t-33.5 -25.5q-23 0 -35 25.5t-29 103.5q-12 61 -24 137t-20.5 155t-13.5 153.5t-5 134.5z" />
<glyph unicode="&#x22;" horiz-adv-x="710" d="M102 1366h193l-31 -549h-129zM414 1366h192l-33 -549h-127z" />
<glyph unicode="#" horiz-adv-x="1228" d="M55 414l25 157h223l39 250h-223l24 158h224l59 387h176l-59 -387h254l59 387h180l-61 -387h219l-25 -158h-219l-37 -250h222l-25 -157h-221l-66 -414h-178l66 414h-254l-66 -414h-176l64 414h-224zM481 571h254l37 250h-254z" />
<glyph unicode="$" horiz-adv-x="1488" d="M223 96l2 238q31 -12 51.5 -20.5t38 -14.5t34 -11t34.5 -12q92 -29 174 -46t129 -17h10v440l-34 11q-74 20 -117 33.5t-71 22.5t-47 19.5t-46 28.5q-117 76 -117 227q0 150 115 248q31 27 60.5 46.5t66.5 32.5t83 22.5t105 15.5l2 72l-2 18v16q-4 4 -6 9h160 q-8 -10 -10 -17.5t-2 -25.5v-78l18 -2q37 -4 59.5 -7.5t39 -7.5t31.5 -8t38 -10q47 -12 70.5 -17.5t40.5 -5.5q16 0 25 2t24 9v-228l-27 17q-49 31 -86 47t-82 31q-23 8 -40 13t-33.5 8t-35 6t-42.5 5v-424l26 -6q111 -27 174.5 -49t110.5 -53q117 -78 117 -232 q0 -322 -428 -376v-109q0 -27 3 -38t13 -28h-174q10 16 14 27.5t4 32.5v117q-25 0 -42 2t-34.5 3t-37 4t-47.5 7l-127 18q-78 12 -115 13q-20 0 -33.5 -4.5t-36.5 -14.5zM451 1014q0 -78 56 -125t189 -78v403q-113 -6 -179 -60t-66 -140zM836 215q47 8 65.5 12t42.5 15 q66 23 101.5 72t35.5 112q0 82 -58 129t-187 70v-410z" />
<glyph unicode="%" horiz-adv-x="2013" d="M63 967q0 195 106.5 304t293.5 109q186 0 292.5 -111t106.5 -306q0 -205 -106.5 -318t-298.5 -113q-186 0 -290 115t-104 320zM201 961q0 -158 66.5 -243t191.5 -85q72 0 136 36t95 95q16 31 25.5 84.5t9.5 112.5v22q-4 145 -70.5 220t-189.5 75q-127 0 -195.5 -83 t-68.5 -234zM492 0q57 39 96 102l28 50l662 1097q23 37 31 55.5t8 28.5t-2 16.5t-10 16.5h217q-31 -16 -54.5 -44t-58.5 -83l-43 -72l-645 -1075q-18 -29 -22.5 -40t-4.5 -23q0 -16 13 -29h-215zM1151 422q0 193 106.5 302.5t292.5 109.5t293 -111.5t107 -306.5 q0 -205 -106.5 -317.5t-299.5 -112.5q-186 0 -289.5 114.5t-103.5 321.5zM1288 416q0 -160 66.5 -245t191.5 -85q72 0 136.5 36t95.5 95q16 31 25 84.5t9 112.5v22q-4 145 -70.5 221t-189.5 76q-127 0 -195.5 -83t-68.5 -234z" />
<glyph unicode="&#x26;" horiz-adv-x="1806" d="M94 446q0 125 61.5 210t204.5 159q-29 29 -42 43t-27 37q-39 57 -39 135q0 82 42 148.5t117.5 113.5t182 74t235.5 27q59 0 123 -5.5t142 -17.5q66 -8 84 -12q49 -6 77 -6q29 0 40.5 4t27.5 16v-239q-35 16 -55.5 24t-53.5 21q-25 10 -53 17t-63 17q-78 23 -133.5 32 t-118.5 9q-88 0 -161 -15t-126 -44t-83 -68t-30 -84q0 -23 8.5 -49t24.5 -49q14 -20 37 -38.5t62.5 -40t98 -47t142.5 -60.5q82 -33 146.5 -60.5t111.5 -50.5l195 -90l33 -14l32 90q10 25 15.5 48.5t5.5 41.5q0 29 -7.5 49.5t-27.5 42.5h401q-2 -4 -6 -8q-6 -10 -8 -15.5 t-2 -23.5v-4v-33l2 -22q0 -10 2 -18.5t12 -20.5h-26q-57 0 -84 -2t-43 -13q-51 -27 -107 -153l-22 -53q45 -35 66.5 -55.5t50.5 -51.5q41 -47 78.5 -103.5t66.5 -125.5l25 -58q6 -16 13 -26.5l19 -28.5h-268q18 16 24.5 27.5t6.5 29.5q0 59 -45 129t-121 125 q-31 -39 -53.5 -64.5t-41 -46t-38 -38t-45.5 -37.5q-186 -152 -482 -152q-135 0 -245.5 35t-190.5 97.5t-124 149.5t-44 191zM287 453q0 -74 32.5 -136.5t91 -108.5t138.5 -71.5t172 -25.5q98 0 199.5 33.5t175.5 91.5q23 18 40 34.5t32.5 35t31 40.5t35.5 55 q-10 6 -18.5 10.5t-14.5 8.5q-27 14 -75 37.5t-110.5 51.5t-135 58.5t-150.5 61.5q-133 51 -184 80q-25 10 -33 10q-14 0 -31 -8q-35 -12 -63.5 -32t-52.5 -42q-80 -78 -80 -184z" />
<glyph unicode="'" horiz-adv-x="399" d="M102 1366h193l-31 -549h-129z" />
<glyph unicode="(" horiz-adv-x="874" d="M104 561q0 158 50.5 299t141.5 252t216 184.5t272 96.5q-18 -20 -18 -41v-33v-27v-2q0 -33 3 -42t17 -19q-109 -31 -196.5 -95.5t-151 -153.5t-98.5 -197.5t-35 -227.5q0 -113 36 -221.5t101 -200.5q66 -92 149 -148.5t206 -95.5q-14 -8 -18.5 -16t-4.5 -31v-12l2 -16 v-29q0 -29 3 -37t16 -18q-150 20 -276 94t-218 184.5t-144.5 252.5t-52.5 300z" />
<glyph unicode=")" horiz-adv-x="874" d="M78 1233q14 8 17 16t3 31v12v17v28q0 29 -3 37t-15 19q147 -23 273 -95.5t218.5 -183t144.5 -253t52 -300.5t-50 -299t-140.5 -251.5t-215 -184.5t-272.5 -96q18 20 19 41v32v27v2q0 33 -3.5 42t-17.5 20q106 31 195.5 95t153 153t98 196.5t34.5 226.5q0 113 -34.5 222.5 t-102.5 201.5q-66 92 -149.5 148.5t-204.5 95.5z" />
<glyph unicode="*" horiz-adv-x="856" d="M78 1036v19q0 47 17.5 98t49.5 98q6 -18 9.5 -25t9.5 -14l9 -9t15 -11q8 -4 15.5 -8t13.5 -8l105 -52q12 16 25 25.5t36 17.5l-18 127q-4 35 -15.5 53.5t-34.5 28.5q39 10 60.5 13.5t52.5 3.5t52.5 -3.5t60.5 -13.5q-37 -14 -49 -84l-19 -125q25 -10 37 -18t22 -25 l107 54q39 20 51 33.5t19 41.5q69 -92 71 -213q-25 23 -57 23q-8 0 -22.5 -2t-36.5 -6l-103 -17v-4q0 -16 -6 -34.5t-16 -32.5l82 -84q43 -45 79 -45q8 0 15 2q-41 -53 -81 -83t-104 -52q8 10 10.5 17t2.5 17q0 16 -6.5 31.5t-22.5 48.5l-47 94q-16 -4 -22.5 -5t-16.5 -1 t-17.5 1t-21.5 5l-45 -92l-18 -35q-10 -18 -11 -45q0 -12 2 -19t9 -17q-57 18 -99.5 48.5t-87.5 86.5q6 -2 15 -2q35 0 77 43l86 86q-10 14 -16 30.5t-6 40.5l-98 17q-29 4 -37 6t-15 2q-35 0 -67 -27z" />
<glyph unicode="+" d="M68 604v162h358v342h174v-342h356v-162h-356v-342h-174v342h-358z" />
<glyph unicode="," horiz-adv-x="524" d="M115 -133q37 6 62.5 39t25.5 74q0 12 -4 21t-19 26q-29 31 -38 52t-9 52q0 59 39 99t98 40q63 0 101.5 -42.5t38.5 -116.5q0 -37 -13.5 -80t-38 -87t-58.5 -86t-75 -79z" />
<glyph unicode="-" horiz-adv-x="628" d="M-27 391l33 74l25 53q12 29 22 38t31 13q12 4 25.5 4h64.5h232h77q23 0 45.5 2.5t38.5 4.5q23 4 41.5 9t46.5 17l-53 -119q-18 -41 -40.5 -55t-63.5 -14h-82h-174h-84q-33 0 -56.5 -1t-44 -4t-40 -8.5t-44.5 -13.5z" />
<glyph unicode="." horiz-adv-x="524" d="M131 102q0 53 39 92t92 39t91 -38t38 -91t-38 -92t-91 -39t-92 38t-39 91z" />
<glyph unicode="/" horiz-adv-x="952" d="M-18 -293q16 14 23 20.5t15 16.5q16 20 34 53t44 94l561 1364l17 41q10 25 10 35q0 14 -20 35h223q-16 -12 -25.5 -20.5t-19.5 -18.5t-17.5 -21.5t-14.5 -26.5l-17.5 -37.5t-24.5 -57.5l-565 -1370q-20 -49 -21 -70q0 -23 21 -37h-223z" />
<glyph unicode="0" horiz-adv-x="1488" d="M102 702q0 330 166 509.5t475 179.5q178 0 299 -53.5t205 -166.5q68 -92 103.5 -215t35.5 -264q0 -365 -202 -561q-84 -82 -192.5 -119t-262.5 -37q-164 0 -272.5 46.5t-196.5 152.5q-158 193 -158 528zM303 692q0 -295 133 -452q53 -59 126 -87t183 -28q219 0 330 141 t111 422v41q-10 242 -115 381q-53 68 -130 99.5t-193 31.5q-115 0 -187 -28.5t-131 -100.5q-66 -78 -96.5 -179.5t-30.5 -240.5z" />
<glyph unicode="1" horiz-adv-x="1488" d="M406 932v184q12 -10 26 -13t43 -3q113 0 180.5 50t67.5 136q0 59 -27 80h222q-8 -6 -13.5 -13t-7.5 -17.5t-3 -29t-1 -49.5v-940q0 -55 4 -89.5t14 -73.5q14 -59 39 -91t74 -63h-438q31 20 45 34.5t31 47.5q20 41 27 90t7 145v695q-23 -16 -37 -24.5t-34 -14.5 q-25 -10 -55.5 -15.5t-55.5 -7.5l-45 -2q-37 -4 -63 -16z" />
<glyph unicode="2" horiz-adv-x="1488" d="M117 0q16 20 22 39.5t13 77.5q10 109 40.5 190.5t91 146t154.5 118t234 104.5l186 69q141 53 201.5 114t60.5 147q0 104 -91 169.5t-238 65.5q-63 0 -139.5 -10t-157 -28.5t-159.5 -44t-149 -56.5v227q20 -4 31.5 -6t28.5 -2q23 0 65.5 3t81.5 11l164 31 q74 14 134.5 19.5t121.5 5.5q242 0 375 -100.5t133 -280.5q0 -49 -11.5 -95.5t-33.5 -87.5q-37 -70 -98 -116q-74 -55 -166 -93q-10 -4 -50 -18t-112 -41q-33 -12 -73 -27.5t-87 -35.5q-47 -18 -82 -35t-61.5 -32t-48 -31.5t-41.5 -37.5q-47 -45 -64.5 -91t-17.5 -124h461 q84 0 138 3.5t111 11.5q39 4 71 10t60.5 15.5t58.5 22.5t64 32v-131q0 -49 6.5 -70t26.5 -39h-1255z" />
<glyph unicode="3" horiz-adv-x="1488" d="M141 -4v244q37 -16 63.5 -26.5t50.5 -19t45.5 -15.5t47.5 -13q74 -20 157 -30.5t159 -10.5q104 0 192 21.5t152.5 58.5t100.5 88t36 110t-35 110.5t-96 82.5q-20 10 -43 18.5t-47 14.5q-27 6 -53.5 11t-57.5 7t-69.5 3t-88.5 1h-147q-14 2 -27.5 2h-23.5q-41 0 -64.5 -4 t-54.5 -18v192q29 -16 51 -20q23 -4 60.5 -6t121.5 -2q66 0 107 1t69.5 3t52 7t54.5 13q92 23 143.5 80t51.5 135q0 96 -90.5 151.5t-243.5 55.5q-59 0 -140 -11t-167 -34q-33 -8 -55.5 -15t-43 -14.5t-42 -16.5t-48.5 -22v238q27 -8 48.5 -11t49.5 -3q25 0 66 4t86 10 q63 8 104 12t71 7.5t54.5 4.5t57.5 1q242 0 367.5 -87t125.5 -253q0 -201 -198 -299q59 -20 85.5 -30.5t61.5 -31.5q148 -84 148 -272q0 -102 -45.5 -183t-129.5 -139.5t-201.5 -89.5t-264.5 -31q-70 0 -155 7.5t-183 21.5q-66 8 -91.5 11t-46.5 3q-49 0 -88 -22z" />
<glyph unicode="4" horiz-adv-x="1488" d="M53 475l801 819q20 23 27.5 32t7.5 20q0 10 -8 20h338q-20 -23 -25.5 -41t-5.5 -65v-805h53l43 2q31 0 39 2q10 2 19.5 4t35.5 12l-43 -102q-10 -23 -13 -30t-11 -15q-10 -14 -21.5 -16.5t-52.5 -2.5h-49v-28q0 -51 6 -91t21.5 -73t41 -60.5t62.5 -56.5h-438 q59 43 84.5 108.5t25.5 172.5v28h-891q10 10 11 23q0 16 -7 28l-12 35l-8 33q-6 25 -13.5 34t-17.5 13zM270 455h721v745z" />
<glyph unicode="5" horiz-adv-x="1488" d="M147 233l21 -6l123 -37q113 -35 207 -50t180 -15q109 0 197 22.5t149 65.5t95 103.5t34 134.5q0 127 -95 197.5t-270 70.5q-121 0 -243 -35q-72 -20 -131 -49q-20 -10 -36 -18.5t-32 -17.5t-34.5 -21.5t-43.5 -30.5q-2 12 -5 20t-11 19l-39 53q-23 29 -39 29h-8l59 563 q2 20 3 31.5t1 19.5q0 37 -6 53.5t-24 30.5h1034q-29 -16 -29 -41q0 -8 2 -14q4 -29 11.5 -49.5t11.5 -36.5l28 -97q-102 39 -204 62q-27 6 -49.5 9t-45.5 7q-20 2 -50.5 5t-67.5 4.5t-77 2.5t-77 1h-270l-47 -453q188 102 452 102q250 0 391.5 -110t141.5 -309 q0 -111 -46 -198t-133.5 -148.5t-211 -94.5t-279.5 -33q-43 0 -83 2.5t-77 6.5l-123 16l-71 8q-23 4 -33 4h-16q-45 0 -68 -28z" />
<glyph unicode="6" horiz-adv-x="1488" d="M152 662q0 170 49 305t142 229t227.5 144.5t301.5 50.5q66 0 138.5 -9.5t191.5 -25.5q16 -4 29.5 -4h23.5t21.5 2t32.5 8l-47 -217q-88 45 -197 70.5t-207 25.5q-217 0 -349 -124t-155 -349q205 133 477 133q252 0 392.5 -113.5t140.5 -318.5q0 -109 -43 -199 t-121 -155.5t-185.5 -102.5t-236.5 -37q-303 0 -464.5 177.5t-161.5 509.5zM354 606q0 -47 1 -78.5t5.5 -56.5t11.5 -45t17 -47q49 -123 147.5 -188.5t227.5 -65.5q88 0 161.5 24.5t127 68.5t82 105.5t28.5 137.5q0 141 -93 216t-267 75q-63 0 -128 -10.5t-124 -30 t-109.5 -46t-87.5 -59.5z" />
<glyph unicode="7" horiz-adv-x="1488" d="M147 1126l35 93q10 31 19.5 63.5t9.5 44.5q0 23 -16 39h1146q-23 -29 -40 -49.5t-31.5 -40t-29.5 -39.5t-36 -47q-66 -86 -117 -160t-102 -160q-154 -252 -209 -424q-23 -70 -35 -143.5t-12 -132.5q0 -113 55 -170h-313q10 20 16.5 35.5t10.5 56.5q14 111 35.5 204 t56.5 191q27 74 61.5 150t74.5 150.5t85 143t90 128.5l100 129l23 31h-240q-145 0 -237 -4.5t-154 -14.5q-129 -23 -246 -74z" />
<glyph unicode="8" horiz-adv-x="1488" d="M115 397q0 135 75 228q18 20 39 38.5t46.5 35t59.5 31.5t79 32q-41 18 -60.5 28.5t-42.5 26.5q-53 35 -81.5 96.5t-28.5 133.5q0 162 148.5 253t412.5 91q125 0 224 -24t169 -67t106.5 -104t36.5 -139q0 -203 -217 -301q25 -6 42.5 -11.5t30.5 -10.5t25.5 -10t28.5 -13 q78 -39 121 -116t43 -179q0 -213 -164 -327t-475 -114q-299 0 -458.5 109t-159.5 313zM315 389q0 -123 112 -193.5t304 -70.5q205 0 322.5 73.5t117.5 200.5q0 262 -426 263q-207 0 -318.5 -71t-111.5 -202zM401 1028q0 -100 97.5 -157.5t263.5 -57.5q156 0 246 58.5 t90 160.5q0 100 -90 154.5t-256 54.5t-258.5 -56.5t-92.5 -156.5z" />
<glyph unicode="9" horiz-adv-x="1488" d="M123 899q0 111 42 201t118.5 154.5t184 100.5t241.5 36q309 0 469.5 -174t160.5 -510q0 -193 -58 -332t-181 -244q-100 -84 -215 -120t-281 -36q-72 0 -143.5 7.5t-169.5 23.5q-41 6 -60 6q-12 0 -21 -2t-24 -12l43 221q20 -10 36 -17t31 -13.5t33.5 -12.5t47.5 -14 q76 -23 127 -31t112 -8q133 0 224.5 35t163.5 112q59 66 89.5 141.5t45.5 192.5q-86 -61 -218.5 -97t-277.5 -36q-248 0 -384 111.5t-136 316.5zM324 907q0 -135 90 -210.5t252 -75.5q125 0 245.5 36.5t225.5 104.5q2 12 2 21.5v15.5q0 176 -105 303q-59 72 -138 105.5 t-189 33.5q-86 0 -156 -24.5t-121 -68.5t-78.5 -105.5t-27.5 -135.5z" />
<glyph unicode=":" horiz-adv-x="604" d="M209 860q0 53 38 91t91 38t92 -39t39 -92t-38 -92t-91 -39q-55 0 -93 39t-38 94zM213 102q0 55 38 93t91 38t92 -37t39 -90q0 -55 -39 -94t-92 -39t-91 38t-38 91z" />
<glyph unicode=";" horiz-adv-x="604" d="M184 -133q37 6 63.5 39t26.5 74q0 12 -5 21t-17 26q-29 31 -39 52t-10 52q0 59 39 99t98 40q66 0 103.5 -42.5t37.5 -116.5q0 -76 -51 -168.5t-135 -163.5zM213 858q0 53 38 92t91 39t92 -39t39 -92q0 -55 -39 -93t-92 -38t-91 39t-38 92z" />
<glyph unicode="&#x3c;" d="M68 604v150l888 422v-172l-702 -326l700 -326l2 -172z" />
<glyph unicode="=" d="M68 461v153h888v-153h-888zM68 782v154h888v-154h-888z" />
<glyph unicode="&#x3e;" d="M68 180v172l702 326l-700 326l-2 172l888 -424v-150z" />
<glyph unicode="?" horiz-adv-x="1409" d="M123 1075v246q14 -8 26.5 -10t36.5 -2q12 0 24.5 1t31 5t46 10t68.5 16q47 10 80 17.5t56 11.5q119 23 233 23q281 0 433.5 -120t152.5 -337q0 -162 -90 -285q-80 -109 -209 -163t-340 -64l-117 -6q-45 -4 -68.5 -10.5t-50.5 -24.5v211q33 -27 172 -27q240 0 370 93.5 t130 263.5q0 154 -105.5 237.5t-297.5 83.5q-66 0 -142 -12t-153.5 -35.5t-151.5 -54.5t-135 -68zM428 102q0 53 39 92t92 39t90 -38t37 -91q0 -55 -38 -93t-91 -38t-91 38t-38 91z" />
<glyph unicode="@" horiz-adv-x="1501" d="M68 676q0 150 55 279.5t150.5 225t225.5 149.5t281 54q139 0 258 -45t205 -125.5t135 -191.5t49 -242q0 -96 -27.5 -183t-73.5 -152.5t-106.5 -105.5t-127.5 -40q-61 0 -102.5 36t-49.5 95q-45 -68 -110.5 -104.5t-143.5 -36.5q-61 0 -114.5 24.5t-91.5 68.5t-59.5 103.5 t-21.5 130.5q0 86 29 161t77 131.5t112.5 89t138.5 32.5q160 0 221 -143l22 119h123l-82 -420q-6 -31 -9 -55.5t-3 -36.5q0 -41 18.5 -66t51.5 -25q43 0 82 32t68.5 84t48 120t18.5 139q0 109 -39 199t-109.5 155.5t-168 102.5t-214.5 37q-127 0 -235.5 -46t-188 -126 t-126 -189.5t-46.5 -236.5q0 -121 43 -229.5t121 -188.5q84 -86 191.5 -127t249.5 -41q113 0 213 21q33 6 57 11t47 12t47.5 17.5t54.5 24.5l33 -111q-197 -88 -450 -88q-160 0 -293 52.5t-229.5 144.5t-150.5 221t-54 283zM539 623q0 -92 49 -149.5t127 -57.5q47 0 87 23.5 t69.5 63.5t47 95.5t17.5 118.5q0 84 -45 135t-121 51q-47 0 -89 -22.5t-74 -61.5t-50 -89t-18 -107z" />
<glyph unicode="A" horiz-adv-x="1738" d="M-18 0q29 25 44 40t44 54q25 33 47 66t45.5 72.5t50.5 90t61 115.5l410 781q18 35 24.5 51t6.5 28q0 37 -39 68h393q-35 -29 -35 -59q0 -12 6.5 -29.5t28.5 -58.5l428 -852q12 -23 26.5 -51.5t31 -56.5t32 -53.5t27.5 -43.5q10 -12 22.5 -30.5t32.5 -45.5 q27 -37 40 -51.5t40 -34.5h-408q35 25 48.5 46.5t13.5 51.5q0 29 -18.5 83.5t-47.5 103.5l-26 45h-893l-43 -78q-47 -86 -47 -135q0 -72 67 -117h-413zM492 477h747l-338 682l-14 33l-13 27q-10 -23 -14 -34t-12 -26z" />
<glyph unicode="B" horiz-adv-x="1859" d="M137 0q29 14 45.5 29.5t32.5 44.5q16 25 22.5 48t10.5 52t6 74t2 86v696q0 156 -18 211q-27 88 -101 125h651q150 0 246 -1t158.5 -4t104.5 -10.5t83 -17.5q131 -33 203 -118t72 -203q0 -98 -47 -166t-152 -115l-22 -10q41 -6 61.5 -10t42.5 -13q213 -63 213 -290 q0 -113 -51 -197t-150 -131q-98 -47 -207 -60q-47 -6 -96 -10t-112.5 -6t-149.5 -3t-207 -1h-641zM449 145h339q41 0 94.5 1t118.5 4q74 2 129.5 4t97.5 7t75.5 11t66.5 16q86 27 133 84t47 131q0 55 -25.5 100.5t-72.5 67.5q-72 33 -160 43q-47 6 -87 9.5t-91 4.5t-122.5 2 t-182.5 1h-360v-486zM449 776h380q143 0 226.5 3t142.5 9q119 14 187.5 72t68.5 144q0 47 -22.5 89t-61.5 68q-41 27 -104 43q-37 8 -66 13.5t-68.5 7.5t-99 3t-155.5 1h-428v-453z" />
<glyph unicode="C" horiz-adv-x="1507" d="M109 666q0 162 58 296t164.5 229t255 147.5t331.5 52.5q72 0 153.5 -7.5t147.5 -23.5l124 -29l66 -12q23 -4 32 -5t17 -1h15.5t19.5 2l-59 -205q-35 16 -55.5 26.5t-49.5 22.5q-45 20 -84 33q-66 23 -150.5 36t-156.5 13q-127 0 -243.5 -38t-194.5 -103q-43 -37 -78 -87 t-59.5 -106.5t-39 -118t-14.5 -122.5q0 -72 20.5 -155t51.5 -136q33 -57 86 -103.5t118.5 -79t143.5 -50t160 -17.5t179 14.5t183 38.5q27 6 48.5 13.5t43 15.5t48 18.5t61.5 26.5v-234q-20 6 -31.5 8.5t-25.5 2.5q-8 0 -15.5 -1t-22 -3t-39 -6.5t-65.5 -12.5 q-84 -14 -173 -22.5t-171 -8.5q-184 0 -332.5 48.5t-253 137.5t-159.5 217t-55 288z" />
<glyph unicode="D" horiz-adv-x="1798" d="M131 0q29 18 44 33.5t32 42.5q27 45 33 100q4 29 5 74t1 84v694q0 156 -19 211q-16 51 -47 88q-10 10 -20 18.5t-29 20.5h557q53 0 88 1h13q25 0 38 -3q164 -4 279 -22.5t213 -59.5q174 -74 272.5 -230.5t98.5 -359.5q0 -168 -59.5 -300t-176.5 -222q-111 -84 -233 -119 q-55 -14 -112.5 -24.5t-125.5 -16.5t-150.5 -8t-191.5 -2h-510zM440 145h234q86 0 149.5 2.5t112.5 6.5t91 12t89 20q178 47 275.5 175.5t97.5 318.5q0 51 -8 101t-25 98q-41 117 -112.5 189.5t-190.5 107.5q-41 12 -84 21t-90 13q-31 2 -56.5 4.5t-55 3.5t-70.5 1h-105 h-252v-1074z" />
<glyph unicode="E" horiz-adv-x="1658" d="M129 0q29 18 44 32.5t32 41.5q27 45 33 98q2 29 4 74t2 86v696q0 156 -19 211q-16 51 -47 88q-10 10 -20.5 18.5t-28.5 20.5h1434q-14 -16 -18.5 -24.5t-4.5 -18.5q0 -4 1 -11t11 -34l45 -137q-39 14 -60 20t-56 15q-37 10 -77 16t-83 10q-68 8 -177.5 12.5t-225.5 4.5 h-480v-406h627h81t49 1t33.5 2t35.5 3q31 4 48 6t48 11l-45 -76q-2 -4 -7 -12.5t-16 -22.5q-8 -10 -14 -18.5t-10 -14.5q-10 -10 -25 -16q-10 -6 -19.5 -7t-43.5 -1h-45h-697v-523h410h151.5t109.5 2.5t91 5.5t96 7q55 4 95.5 9t75 13t70.5 19.5t81 29.5l-41 -120 q-12 -35 -15 -45.5t-3 -20.5q0 -16 4 -25.5t18 -19.5h-1452z" />
<glyph unicode="F" horiz-adv-x="1531" d="M133 0q31 18 46.5 33.5t31.5 42.5q27 47 33 100q4 29 5 75t1 85v694q0 156 -19 211q-8 23 -20 46.5t-27 39.5q-10 10 -20 18.5t-31 20.5h1342q-20 -18 -21 -43q0 -6 2 -16.5t8 -30.5l41 -131l-28 8q-41 12 -71 20.5t-54.5 14.5t-49 9t-53.5 7q-61 8 -162.5 11.5 t-234.5 3.5h-408v-451h682h76q53 0 86 5t78 22l-74 -119q-27 -39 -43 -47q-10 -4 -22.5 -6t-38.5 -2h-744v-285q0 -152 17 -211q8 -23 21.5 -46.5t27.5 -39.5q10 -10 19.5 -17.5t29.5 -21.5h-426z" />
<glyph unicode="G" horiz-adv-x="1744" d="M109 688q0 164 56 294t162.5 221t257 139.5t341.5 48.5q76 0 152.5 -7.5t150.5 -21.5q35 -6 93 -19.5t112 -25.5q27 -6 42 -9t27 -3q10 0 17.5 1t23.5 5l-59 -203q-59 31 -128 55.5t-140.5 42t-144.5 26.5t-138 9q-143 0 -259 -39t-197 -111.5t-125 -175t-44 -231.5 t43 -232.5t122 -176t192.5 -111.5t255.5 -39q78 0 151.5 12.5t135 35t107.5 53t68 67.5q23 35 29 84q2 33 6 80q2 39 3 63.5t1 36.5v113h-430h-30h-7q-20 0 -34.5 -1t-28.5 -4t-30.5 -9.5t-37.5 -14.5l43 98q6 16 10.5 25.5t6.5 13.5q10 16 22 27q10 8 20.5 10t45.5 2h47 h629q-14 -14 -20.5 -22.5t-12.5 -20.5q-8 -16 -9 -32.5t-1 -71.5v-629q-35 43 -95 43q-29 0 -58.5 -6t-90.5 -27q-29 -10 -51.5 -16t-38.5 -10q-176 -49 -352 -50q-188 0 -338 49.5t-255.5 141.5t-161.5 224t-56 298z" />
<glyph unicode="H" horiz-adv-x="1847" d="M135 0q31 18 46.5 33.5t31.5 42.5q14 25 22.5 48t10.5 52q4 29 5 74t1 86v694q0 156 -19 211q-14 43 -36.5 72.5t-61.5 52.5h424q-35 -27 -47 -40t-27 -36q-27 -47 -32 -102q-4 -29 -5.5 -75t-1.5 -83v-196h957v196q0 156 -19 211q-14 43 -36.5 72.5t-61.5 52.5h426 q-29 -16 -44 -32.5t-32 -43.5q-27 -47 -32 -102q-4 -29 -5.5 -74t-1.5 -84v-694q0 -156 17 -211q14 -43 36.5 -72.5t61.5 -52.5h-426q31 18 46.5 33.5t31.5 42.5q14 25 22.5 48t10.5 52q4 29 5 74t1 86v342h-957v-342v-42t3 -52q2 -47 5 -72t9 -45q23 -70 80 -113l16 -12 h-424z" />
<glyph unicode="I" horiz-adv-x="694" d="M131 0q29 16 45.5 31.5t32.5 44.5q16 25 22.5 48t10.5 52t6 74t2 86v694q0 156 -19 211q-27 84 -100 125h432q-29 -14 -46 -30.5t-34 -45.5q-27 -47 -32 -102q-4 -29 -6.5 -74t-2.5 -84v-694q0 -156 19 -211q27 -88 102 -125h-432z" />
<glyph unicode="J" horiz-adv-x="1263" d="M25 20v263q74 -45 132 -75t109 -48.5t97.5 -26.5t95.5 -8q98 0 177 34t128 93q37 47 55 113q4 20 7 39.5t5.5 42t3.5 52t1 70.5v461q0 152 -17 211q-27 84 -100 125h426q-31 -20 -45.5 -35.5t-30.5 -40.5q-27 -47 -33 -102q-4 -29 -5 -74t-1 -84v-373q0 -102 -3 -170.5 t-10 -118t-20.5 -86t-33.5 -71.5q-68 -115 -196 -175.5t-304 -60.5q-29 0 -58.5 2.5t-58.5 6.5q-18 2 -35.5 5t-38 7t-45 10t-61.5 17q-51 12 -64.5 15t-27.5 3q-12 0 -22.5 -4t-26.5 -17z" />
<glyph unicode="K" horiz-adv-x="1830" d="M133 0q29 16 45.5 31.5t32.5 44.5q27 47 33 100q4 29 5 74t1 86v694q0 152 -17 211q-27 84 -100 125h430q-29 -16 -46 -31.5t-34 -44.5q-27 -47 -32 -102q-4 -29 -5.5 -71t-1.5 -87v-424l801 592q59 45 78.5 67.5t19.5 51.5q0 14 -6 23.5t-22 25.5h510 q-29 -14 -50.5 -24.5t-42 -21.5t-44 -25.5t-56.5 -34.5q-150 -94 -215 -140l-133 -96l-59 -43l-162 -119l385 -465q33 -41 60.5 -72.5t51 -58t46 -50t47.5 -48.5q49 -49 92 -86t102 -82h-458q20 23 27 37t7 37q0 18 -7 37.5t-25 44.5q-12 16 -26.5 32.5t-49.5 59.5l-412 493 l-459 -342v-63q0 -72 5.5 -128t15.5 -83q8 -23 21.5 -46.5t29.5 -39.5q8 -10 16.5 -16.5t30.5 -22.5h-430z" />
<glyph unicode="L" horiz-adv-x="1427" d="M131 0q29 18 44 33.5t32 42.5q27 47 33 100q4 29 6 74t2 86v694q0 156 -19 211q-14 43 -36.5 72.5t-61.5 52.5h426q-31 -18 -45 -33.5t-31 -42.5q-27 -47 -32 -102q-4 -29 -6.5 -74t-2.5 -84v-885h430q47 0 83 1t61 1q78 2 137 9.5t115 19.5q94 23 170 55l-43 -131 q-4 -10 -5.5 -17t-3.5 -11q-8 -16 -8 -27q0 -20 25 -45h-1270z" />
<glyph unicode="M" horiz-adv-x="2291" d="M137 0q29 16 45.5 31.5t32.5 44.5q27 47 33 100q4 29 5 74t1 86v694q0 152 -16 211q-14 43 -38 72.5t-63 52.5h479q-29 -29 -28 -47q0 -10 16 -47l29 -60l495 -952q4 -10 7.5 -14t5.5 -8t3 -11.5t5 -17.5q4 18 8 26.5t12 24.5l486 952l31 64q8 16 12 26.5t4 18.5 q0 16 -21 45h476q-29 -20 -44.5 -34.5t-31.5 -41.5q-27 -47 -33 -102q-4 -29 -5 -74t-1 -84v-694q0 -78 5 -131t13 -80q8 -23 20.5 -46.5t26.5 -39.5q10 -10 19.5 -18.5t30.5 -20.5h-426q29 16 45 31.5t32 44.5q27 47 33 100q4 29 5 74t1 86v797q0 16 2 32.5t6 46.5 q-6 -14 -10 -23t-6 -15q-8 -16 -12 -26.5t-6 -14.5l-531 -1029q-10 -20 -17 -40.5t-7 -30.5q0 -12 4 -18.5t20 -14.5h-278q27 10 26 29q0 14 -18 45q-4 8 -8 15t-8 15l-529 1029l-16 43q-4 6 -8.5 15t-8.5 21q4 -31 5.5 -47t1.5 -39v-790q0 -78 5 -131t13 -80 q8 -23 20.5 -46.5t26.5 -39.5q10 -10 19.5 -18.5t29.5 -20.5h-426z" />
<glyph unicode="N" horiz-adv-x="1845" d="M135 0q29 18 44.5 33.5t31.5 42.5q16 25 22.5 48t10.5 52t6 74t2 86v694q0 156 -19 211q-14 43 -36.5 72.5t-61.5 52.5h451q-8 -10 -10.5 -16.5t-2.5 -14.5q0 -12 5.5 -22t25.5 -37l754 -1028l28 -41l31 -37q-2 12 -3 21.5t-1 15.5v41v782q0 156 -18 211q-14 43 -37 72.5 t-62 52.5h418q-29 -18 -44 -33.5t-32 -42.5q-27 -47 -32 -102q-4 -29 -5.5 -74t-1.5 -84v-878v-56q0 -63 31 -96h-366q12 14 12 31v10q-4 6 -7 12t-7 15q-4 6 -19 24l-764 1045l-24 41l-25 30l6 -39v-32v-801q0 -156 19 -211q8 -23 20 -46.5t29 -39.5q8 -10 16 -17.5 t31 -21.5h-416z" />
<glyph unicode="O" horiz-adv-x="1761" d="M109 684q0 162 56 292t158.5 222t249 142.5t326.5 50.5q172 0 311.5 -49.5t237.5 -140.5t151.5 -221t53.5 -292t-55.5 -294t-157 -225t-243.5 -143.5t-318 -50.5q-174 0 -315.5 51.5t-243 143.5t-156.5 223t-55 291zM309 684q0 -127 41 -230.5t115 -176t179.5 -112.5 t234.5 -40q133 0 239.5 39t180 112.5t113.5 178t40 235.5q0 125 -40 226.5t-113.5 174t-177 111.5t-230.5 39q-131 0 -237.5 -40t-183.5 -113.5t-119 -176t-42 -227.5z" />
<glyph unicode="P" horiz-adv-x="1603" d="M137 0q31 18 46.5 33.5t31.5 42.5q27 47 33 100q4 29 5 74t1 86v692q0 76 -3 128t-13 81q-27 84 -101 129h561q37 0 83 -1t102 -3q70 -2 122 -4t93 -7t75.5 -11.5t69.5 -16.5q143 -39 229.5 -145.5t86.5 -247.5q0 -158 -105 -275q-72 -78 -168 -114q-39 -16 -80 -25.5 t-94 -15.5t-126 -8.5t-175 -2.5h-371v-153q0 -156 19 -211q8 -23 21.5 -46.5t27.5 -39.5q10 -10 19.5 -17.5t29.5 -21.5h-420zM440 637h277h176q109 2 175.5 10t119.5 29q80 29 125 96.5t45 159.5q0 137 -90 203q-31 23 -71 39t-95 26t-128 14.5t-169 4.5h-365v-582z" />
<glyph unicode="Q" horiz-adv-x="1781" d="M109 682q0 162 55 293t157.5 223t248 142.5t323.5 50.5q176 0 316.5 -49.5t238.5 -140.5t150.5 -222t52.5 -293q0 -322 -201 -510q-29 -27 -54.5 -47t-56 -36.5t-68.5 -34t-93 -38.5l41 -22l32 -21l43 -28q31 -20 55.5 -30.5t49.5 -10.5q33 0 77 21.5t85 56.5 q-2 -4 -2 -11q0 -6 6 -18t14 -23l29 -34l16 -15q18 -16 23.5 -20t17.5 -4h6q-117 -127 -266 -127q-23 0 -44.5 2t-41.5 8q-25 6 -47.5 17.5t-44.5 25.5q-10 8 -28.5 20.5t-43.5 28.5q-96 66 -181 95.5t-183 29.5q-115 0 -211 -47q-45 -23 -95 -55q-18 -12 -31.5 -21.5 t-22.5 -17.5t-17 -17.5t-19 -21.5q-2 18 -7 29.5t-28 33.5l-28 29q-23 23 -35 30t-31 9q23 27 58.5 53.5t64.5 40.5l70 33l33 16q-383 193 -383 627zM309 686q0 -127 40 -230.5t115 -177t179.5 -113.5t233.5 -40q133 0 239.5 39t180 112.5t113.5 178t40 237.5 q0 125 -40 226.5t-112.5 173t-176 110.5t-230.5 39q-131 0 -237.5 -40t-183.5 -112.5t-119 -175t-42 -227.5z" />
<glyph unicode="R" horiz-adv-x="1761" d="M129 0q29 18 44 33.5t32 42.5q27 47 33 100q4 29 5 74t1 86v692q0 76 -3 128t-14 81q-6 23 -20 47.5t-29 40.5q-10 12 -20.5 20.5t-28.5 20.5h598h199q123 0 213 -8t164 -25q139 -31 217.5 -122t78.5 -220q0 -324 -448 -364q37 -14 64.5 -26.5t50 -26t43 -30t43.5 -38.5 q53 -51 104 -119t105 -162q25 -43 40 -68.5t26 -43t20.5 -28.5t21.5 -26q16 -20 30.5 -31.5t41.5 -27.5h-369q14 14 18.5 24.5t4.5 28.5q0 37 -25 97q-35 78 -80 147.5t-96 120.5q-76 76 -172 121q-39 18 -79 31.5t-88 21.5t-108.5 11t-140.5 3h-20l-148 -2v-268 q0 -78 5.5 -131t13.5 -80q8 -23 20 -46.5t27 -39.5q10 -10 19 -18.5t30 -20.5h-424zM438 752l342 -2h49q158 0 266.5 12t176 40.5t97.5 74.5t30 112q0 78 -45 129t-129 72q-55 12 -123 18q-39 2 -73 4t-70.5 4.5t-84 2.5h-114.5h-322v-467z" />
<glyph unicode="S" horiz-adv-x="1468" d="M102 279q25 -10 43.5 -17.5t35 -13.5t33.5 -13.5t40 -15.5q37 -14 67.5 -23.5t55.5 -17.5q84 -23 182 -38t178 -15q96 0 176 20.5t136.5 57.5t88 88t31.5 115q0 61 -29.5 108t-82.5 70q-25 10 -47.5 17t-60.5 13.5t-97 14.5t-158 20q-119 14 -189.5 25.5t-116.5 22 t-77.5 23.5t-70.5 34q-133 68 -134 241q0 188 169 292t481 104q82 0 174 -7.5t172 -23.5l92 -19q25 -4 47.5 -7t30.5 -3q10 0 37 8l-58 -204q-68 31 -123 49t-124 33q-63 14 -128 19t-124 5q-100 0 -182.5 -16.5t-140.5 -46t-90 -70.5t-32 -92q0 -115 146 -158 q37 -10 74.5 -19.5t78.5 -13.5q14 -2 48 -5t89 -9q115 -12 200 -26.5t147.5 -33t106.5 -41t79 -53.5q45 -41 69.5 -102t24.5 -131q0 -104 -43 -187t-124 -141.5t-195.5 -89.5t-257.5 -31q-57 0 -125 7q-51 4 -128 14t-143 20q-74 10 -101.5 14.5t-41.5 4.5q-16 0 -26.5 -2 t-28.5 -10z" />
<glyph unicode="T" horiz-adv-x="1632" d="M10 1145l51 131q14 37 15 55q0 18 -29 35h1542q-27 -16 -26 -41q0 -10 3 -19.5t13 -37.5l43 -123q-27 8 -46.5 15t-37.5 12.5t-38.5 9.5t-49.5 10q-37 8 -69.5 13t-59.5 7q-20 4 -54 5.5t-85 3.5q-53 2 -87 3t-51 1h-129v-889q0 -78 4.5 -131t14.5 -80q8 -23 20.5 -46.5 t28.5 -39.5q8 -10 16.5 -16.5t30.5 -22.5h-426q29 16 45.5 31.5t32.5 44.5q27 47 33 100q4 29 6 74t2 86v889h-139h-37q-72 0 -122 -2t-99 -6q-33 -4 -64 -7.5t-61 -9.5q-31 -6 -53.5 -10t-43 -10t-43 -14.5t-51.5 -20.5z" />
<glyph unicode="U" horiz-adv-x="1804" d="M123 1366h422q-29 -16 -45.5 -31.5t-32.5 -44.5q-27 -47 -33 -102q-4 -29 -5 -74t-1 -84v-383q0 -72 3 -125t10.5 -93t20.5 -71.5t34 -62.5q53 -84 164.5 -130t259.5 -46q174 0 301 76q70 41 118 118q16 27 26.5 53.5t15.5 64.5t7.5 92.5t2.5 140.5v366q0 156 -19 211 q-31 92 -102 125h422q-29 -16 -44.5 -31.5t-31.5 -44.5q-16 -25 -22.5 -49t-10.5 -53q-2 -29 -5 -74t-3 -84v-383v-87t-2 -77q-6 -104 -34 -181t-81 -138q-80 -90 -220 -139.5t-320 -49.5q-330 0 -510 150q-96 82 -136 192q-10 29 -16 59t-9 67.5t-5 87t-2 116.5v383 q0 152 -17 211q-27 84 -100 125z" />
<glyph unicode="V" horiz-adv-x="1730" d="M-20 1366h407q-55 -35 -55 -104q0 -16 4 -35t13 -43.5t25.5 -58t41.5 -78.5l409 -766q10 -18 17.5 -36t19.5 -52q12 31 20.5 48t20.5 40l438 821q27 49 41.5 93t14.5 73t-11.5 50t-44.5 48h410q-35 -29 -52.5 -48.5t-41.5 -53.5q-16 -23 -31.5 -46.5t-32.5 -50.5 q-14 -20 -51 -84q-23 -39 -38 -65.5t-23 -42.5l-451 -840l-22 -43q-10 -18 -16.5 -34.5t-6.5 -26.5q0 -16 14 -31h-276q16 18 16 33q0 12 -6 27.5t-18 39.5l-19 35l-446 840l-53 94l-56 98q-14 23 -28.5 46.5t-30.5 46.5q-16 20 -27.5 34.5t-21.5 25.5t-22.5 21.5 t-30.5 24.5z" />
<glyph unicode="W" horiz-adv-x="2263" d="M8 1366h367q-31 -37 -43.5 -63.5t-12.5 -61.5q0 -33 11.5 -78t40.5 -129l245 -727q10 -33 17.5 -56.5t17.5 -66.5l17 56l24 67l301 934l15 49q4 12 6 21.5t2 17.5q0 14 -17 37h269q-8 -14 -10.5 -21.5t-2.5 -17.5q0 -18 11 -49q10 -25 15 -44.5t9 -31.5l283 -895 q2 -10 5 -20.5t7 -22.5t9 -31.5t12 -48.5q10 41 17 64.5t19 58.5l275 789q31 88 31 153q0 76 -54 117h361q-27 -33 -40 -53.5t-36 -59.5q-29 -51 -59.5 -123.5t-53.5 -134.5l-297 -868l-16 -49q-10 -31 -10 -45q0 -12 3 -18.5t15 -14.5h-311q14 10 17 19.5t3 25.5 q0 10 -2 22.5t-6 24.5l-10 35l-303 969q-2 4 -3 14t-5 27q-2 6 -3 15t-5 19l-7 -34l-10 -41l-311 -969l-17 -49q-8 -23 -9 -29t-1 -10q0 -18 23 -39h-309q18 18 18 39q0 6 -2 17.5t-6 21.5l-17 49l-305 907q-14 41 -30.5 83t-34.5 81q-27 53 -48.5 88t-58.5 80z" />
<glyph unicode="X" horiz-adv-x="1712" d="M-35 0q14 8 24.5 13t16.5 10q29 16 66 41.5t71 54.5q41 31 84 71q41 39 81 78t95 101l334 366l-233 252q-41 43 -72 76t-55.5 58.5t-46 45t-41.5 37.5q-23 20 -50.5 43t-62.5 45q-20 14 -33.5 24.5t-27 17.5t-26.5 14.5t-34 17.5h494q-23 -16 -32 -31.5t-9 -38.5 q0 -10 2 -18t6 -18q4 -14 12.5 -27.5t18.5 -26.5q8 -10 23.5 -25.5t37.5 -39.5l252 -275l234 256q59 66 85.5 107t26.5 67q0 41 -41 70h471q-25 -18 -37 -25q-33 -23 -64.5 -50t-70.5 -60q-18 -16 -37.5 -33.5t-42.5 -38.5q-35 -31 -72.5 -67.5t-72.5 -72.5t-65.5 -67.5 t-49.5 -52.5l-143 -160l324 -352q160 -172 241 -254q23 -20 41.5 -36.5t34.5 -30.5q25 -20 41 -33t51 -33h-471q29 20 41 36.5t12 41.5q0 29 -27.5 68.5t-103.5 123.5l-309 338l-348 -379q-53 -59 -73.5 -94t-20.5 -65q0 -23 9 -39.5t32 -30.5h-490z" />
<glyph unicode="Y" horiz-adv-x="1800" d="M-33 1366h465q-27 -18 -37 -36.5t-10 -45.5q0 -35 27.5 -84t99.5 -141l346 -447l19 -22l20 -33l18 33l19 20l360 461q37 47 61.5 81t38 58.5t19.5 44t6 37.5q0 27 -10 42.5t-39 31.5h465q-47 -29 -72.5 -46t-62.5 -50q-20 -16 -39 -36t-37 -38q-25 -29 -68 -79t-106 -132 l-457 -588v-61v-86t2 -57.5t4 -39t7 -30.5q29 -94 102 -123h-414q47 23 76 68t29 108v64v96v63l-430 557l-90 117q-31 41 -77 90t-100 103q-23 23 -39 37t-30.5 24t-29.5 19.5t-36 19.5z" />
<glyph unicode="Z" horiz-adv-x="1536" d="M57 0l1024 1219h-442h-80t-58.5 -1t-49 -3.5t-50.5 -4.5q-31 -4 -61.5 -9t-60.5 -11q-27 -6 -46.5 -10t-36 -9.5t-33 -12.5t-38.5 -17l41 106q20 55 20 74q0 20 -24 45h1282l-1024 -1221h471h123t78.5 1t54 3.5t49.5 4.5q35 4 71 9t72 13q25 4 44.5 8t36 9.5t35 12.5 t42.5 17l-47 -127q-4 -10 -6 -18t-6 -12q-2 -8 -3 -14.5t-1 -14.5q0 -18 20 -37h-1397z" />
<glyph unicode="[" horiz-adv-x="1003" d="M176 -244q23 23 31 44.5t8 66.5v6v53v1278q0 37 -1 60.5t-6 41t-12.5 31t-19.5 29.5h750q-6 -8 -9.5 -12t-7.5 -11q-2 -6 -2 -14q-2 -4 -2 -33v-26q0 -33 2 -41t11 -21q6 -6 8 -10h-504v-1272h504q-12 -12 -14.5 -18t-2.5 -25l-2 -18v-37v-4q0 -35 3 -45t16 -23h-750z " />
<glyph unicode="\" d="M53 1536h170l709 -1706h-172z" />
<glyph unicode="]" horiz-adv-x="1003" d="M78 -74h504v1272h-504q4 4 5 6t3 4q8 12 10 20.5t2 41.5v26v33q-2 4 -2 7t-2 7q-4 6 -6 10.5t-10 12.5h749q-12 -16 -19 -29.5t-11 -31t-5 -41t-1 -60.5v-1278l-3 -53v-6q0 -45 8.5 -66.5t30.5 -44.5h-749q12 12 15 22.5t3 45.5v4v37v18q0 18 -3 24.5t-15 18.5z" />
<glyph unicode="^" d="M43 733l354 637h230l354 -637h-186l-285 498l-281 -498h-186z" />
<glyph unicode="_" d="M0 -129h1024v-156h-1024v156z" />
<glyph unicode="`" d="M233 1448q0 27 16.5 43t45.5 16q84 0 192 -139q33 -43 57.5 -87t28.5 -69v-8q0 -23 -12 -38t-33 -15q-23 0 -46 12.5t-60 40.5q-188 150 -189 244z" />
<glyph unicode="a" horiz-adv-x="1329" d="M74 268q0 80 38 138.5t119.5 98.5t209.5 61.5t307 27.5l235 8l25 2q0 12 1 21.5t1 15.5q0 211 -314 211q-66 0 -139.5 -9t-145 -24.5t-137 -37t-116.5 -48.5l80 242q16 -14 31.5 -18.5t47.5 -4.5q16 0 41 2t50 7l131 16l82 8t84 4q182 0 292 -45q74 -29 125 -94 q18 -25 29.5 -48.5t19 -53t9.5 -68.5t2 -94v-25v-129v-151q0 -27 2 -52.5t6 -48.5t9 -39t12.5 -32.5t18.5 -34t27 -39.5l25 -35h-111q-39 0 -61.5 12.5t-46.5 53.5l-16 26q-39 -31 -62.5 -45t-58.5 -27q-66 -23 -153 -37t-179 -14q-256 0 -388 76t-132 223zM254 264 q0 -76 88 -117t252 -41q221 0 320.5 76t99.5 242v45h-47q-35 0 -71 -1t-77 -3q-162 -10 -264 -23.5t-182 -42.5q-119 -41 -119 -135z" />
<glyph unicode="b" horiz-adv-x="1435" d="M78 0q51 35 71.5 94.5t20.5 165.5v846q0 106 -20.5 164.5t-71.5 95.5h291q-16 -12 -20.5 -26.5t-4.5 -55.5v-453q45 43 75 63.5t77 39.5q66 27 142.5 41t154.5 14q125 0 226 -34.5t173 -97t110.5 -151.5t38.5 -200q0 -123 -42 -222.5t-118.5 -169t-186 -107.5t-246.5 -38 q-291 0 -424 164v-31q0 -55 -39 -82q-16 -12 -40 -16t-75 -4h-92zM340 471q0 -168 111.5 -266.5t302.5 -98.5q92 0 166.5 28t128 79t82 123t28.5 160v-2q0 170 -100.5 264t-282.5 94q-201 0 -318.5 -102.5t-117.5 -278.5z" />
<glyph unicode="c" horiz-adv-x="1226" d="M96 473q0 117 43 212t123 162.5t191.5 104.5t251.5 37q100 0 241 -18l107 -15q39 -6 67 -6q12 0 22.5 1t26.5 5l-51 -184l-33 10q-61 18 -109 31.5t-90 22t-83 12.5t-86 4q-209 0 -323.5 -98.5t-114.5 -276.5q0 -176 113.5 -273.5t318.5 -97.5q119 0 230.5 27t209.5 76 v-203q-10 10 -17.5 12t-17.5 2t-23.5 -3t-35.5 -7q-33 -8 -61.5 -13t-53.5 -9q-47 -8 -116.5 -13.5t-116.5 -5.5q-141 0 -255 35t-193 100.5t-122 158.5t-43 210z" />
<glyph unicode="d" horiz-adv-x="1411" d="M96 467q0 119 41 215t118 163.5t187.5 103.5t247.5 36q123 0 219.5 -29.5t173.5 -95.5l2 246q0 55 -4 93t-14 65q-25 74 -78 102h295q-10 -14 -14 -21.5t-8 -17.5t-4.5 -22.5t-0.5 -53.5v-938v-94v-32.5t3 -24.5q2 -23 7 -48.5t15 -45.5q16 -35 49 -68h-114h-39 q-39 4 -54 25q-8 14 -10 32.5t-4 75.5q-23 -25 -41 -41t-35.5 -28.5t-37 -21.5t-44.5 -19q-66 -25 -139.5 -39.5t-146.5 -14.5q-131 0 -236.5 35t-179.5 99.5t-114 156.5t-40 207zM276 467q0 -170 106.5 -265.5t293.5 -95.5q199 0 306.5 98.5t107.5 278.5 q0 178 -102.5 273.5t-295.5 95.5q-190 0 -303 -103.5t-113 -281.5z" />
<glyph unicode="e" horiz-adv-x="1382" d="M94 465q0 121 43 218t123 164.5t194.5 104.5t256.5 37q147 0 265 -43t198 -129q33 -35 55 -69.5t36.5 -79.5t20.5 -105.5t10 -146.5v-35q-16 12 -31.5 16t-43.5 4h-47h-895q4 -141 120.5 -218t333.5 -77q141 0 263 30t235 91v-223q-27 18 -49 19h-16.5t-18.5 -5 q-55 -10 -68 -12q-10 -2 -26.5 -4t-42.5 -6q-51 -8 -87 -13.5t-66 -8.5t-56.5 -4t-59.5 -1q-88 0 -172 11.5t-147 29.5q-154 47 -241 167t-87 288zM276 537h836q-8 147 -117.5 231t-294.5 84q-115 0 -203.5 -35t-148.5 -102q-29 -35 -45 -76t-27 -102z" />
<glyph unicode="f" horiz-adv-x="987" d="M-6 758l65 196q25 -20 46.5 -26t66.5 -6h119v32q0 76 8 119t25 90q39 106 138 167t234 61q86 0 183 -19q29 -6 46 -8t27 -2q12 0 20.5 2t24.5 12l-55 -188q-47 35 -100.5 51t-122.5 16q-117 0 -182 -53q-43 -35 -58 -90q-4 -16 -7 -30.5t-5 -32t-2 -40v-55.5v-32h354h60 q74 0 112 32l-61 -196q-14 18 -32.5 23t-76.5 5h-356v-526q0 -106 20.5 -164.5t71.5 -95.5h-360q51 31 72.5 91.5t21.5 168.5v526h-168q-41 0 -55.5 -1t-30.5 -5t-43 -22z" />
<glyph unicode="g" horiz-adv-x="1427" d="M94 506q0 111 42 200t121 152.5t189.5 97t247.5 33.5q145 0 243.5 -38t176.5 -120q0 6 -1 12.5t-1 12.5q0 57 20.5 78.5t73.5 21.5h135q-25 -20 -39 -39.5t-23 -43t-12 -55.5t-3 -77v-397q0 -63 -1 -108.5t-1 -73.5q-2 -100 -18.5 -168t-53.5 -125q-123 -186 -479 -186 q-111 0 -346 24q-39 4 -56.5 5t-34.5 1q-27 0 -41 -2t-34 -12v227q39 -25 94 -45t117.5 -33.5t131 -21.5t136.5 -8q203 0 307 80q45 35 74 100q8 18 14 36.5t10 41t6.5 50.5t2.5 67q-41 -41 -70 -59.5t-74 -35.5q-127 -49 -295 -49q-129 0 -232.5 32t-176 91t-111.5 144 t-39 190zM276 504q0 -154 101.5 -236t292.5 -82q203 0 312.5 88t109.5 252q0 154 -101.5 240t-283.5 86q-205 0 -318 -91t-113 -257z" />
<glyph unicode="h" horiz-adv-x="1425" d="M82 0q51 41 70.5 97.5t19.5 162.5v846q0 106 -19.5 162.5t-70.5 97.5h289q-16 -18 -20.5 -34.5t-4.5 -59.5v-457q47 45 78 66.5t80 44.5q61 29 144 46t167 17q123 0 220.5 -34.5t154.5 -100.5q43 -47 61.5 -121t18.5 -201v-272q0 -23 1 -40t1 -32q0 -23 4 -45t10 -41 q23 -63 74 -102h-354q51 39 70.5 96.5t19.5 163.5v217q0 72 -3 119t-10.5 80t-20.5 55.5t-34 44.5q-35 37 -95.5 56.5t-135.5 19.5q-86 0 -163 -23.5t-136 -66.5q-80 -59 -121 -150q-16 -41 -23.5 -88t-7.5 -127v-137q0 -106 19 -158q12 -37 34 -67q6 -8 12.5 -13.5 t22.5 -21.5h-352z" />
<glyph unicode="i" horiz-adv-x="514" d="M80 0q51 41 70.5 97.5t19.5 162.5v436q0 106 -19.5 162.5t-70.5 97.5h287q-16 -20 -19.5 -37.5t-3.5 -62.5v-596q0 -106 19.5 -163.5t72.5 -96.5h-356zM131 1280q0 49 36 85t85 36t84 -36t35 -87q0 -49 -35 -83t-84 -34t-85 35t-36 84z" />
<glyph unicode="j" horiz-adv-x="514" d="M-256 -70q45 -41 104.5 -63.5t118.5 -22.5q106 0 166 78q14 18 23.5 36.5t13.5 45.5t6 67t2 101v524q0 106 -20.5 164t-71.5 96h289q-12 -14 -17 -28q-4 -14 -5 -24.5t-1 -47.5v-668v-82.5t-2 -46.5q0 -115 -49 -196q-43 -74 -123 -115t-180 -41q-33 0 -70 3t-90 9l-39 5 q-4 2 -14 2q-14 0 -21.5 -3.5t-19.5 -15.5v223zM139 1280q0 51 36 86t85 35q51 0 86 -36t35 -89q0 -47 -35 -81t-86 -34q-49 0 -85 35t-36 84z" />
<glyph unicode="k" horiz-adv-x="1368" d="M78 0q51 37 71.5 95.5t20.5 164.5v846q0 106 -20.5 164.5t-71.5 95.5h287q-14 -18 -17.5 -35.5t-3.5 -68.5v-752l426 289q61 41 88 69.5t27 51.5q0 20 -25 36h473q-51 -23 -77.5 -34t-61.5 -27q-47 -25 -117 -68q-53 -35 -95 -61.5t-99 -67.5l-95 -65l254 -283l97 -104 q39 -43 60.5 -66.5t25.5 -29.5q16 -16 34.5 -35t40.5 -35q31 -29 50.5 -43t54.5 -37h-397q39 18 39 51q0 27 -29 62q-6 8 -13.5 17t-15.5 20q-12 14 -20 23t-15 15l-311 344l-299 -206v-66q0 -106 20.5 -165.5t71.5 -94.5h-358z" />
<glyph unicode="l" horiz-adv-x="514" d="M76 0q27 23 44 46.5t27.5 53t14.5 68.5t4 92v846q0 51 -4 90t-14.5 68.5t-28 54t-43.5 47.5h282q-10 -18 -15 -42t-5 -71v-993q0 -106 21.5 -165.5t72.5 -94.5h-356z" />
<glyph unicode="m" horiz-adv-x="2181" d="M80 0q51 41 71.5 97.5t20.5 162.5v436q0 106 -20.5 162.5t-71.5 97.5h160q35 0 50 4.5t38 20.5v-156q168 164 422 164q45 0 87 -5t81 -15q74 -20 120.5 -52t91.5 -92q158 164 435 164q188 0 307 -76q80 -51 115.5 -143t35.5 -252v-258q0 -106 19 -158q10 -33 25.5 -53 t46.5 -49h-355q51 41 71.5 97.5t20.5 162.5v275q0 96 -13 149t-48 90t-93.5 57.5t-135.5 20.5q-70 0 -134.5 -17.5t-117.5 -48.5q-49 -29 -78 -61q-14 -16 -23.5 -33.5t-15.5 -39t-8 -50.5t-2 -67v-275q0 -106 19.5 -162.5t70.5 -97.5h-354q27 23 44 46.5t27 53t14.5 68.5 t4.5 92v275q0 78 -7.5 121.5t-25.5 82.5q-27 53 -89.5 83t-148.5 30q-78 0 -150.5 -22.5t-131.5 -63.5q-59 -43 -85 -103.5t-26 -162.5v-240q0 -109 18 -158q12 -33 29 -55t45 -47h-356z" />
<glyph unicode="n" horiz-adv-x="1419" d="M80 0q51 37 71.5 95.5t20.5 164.5v436q0 106 -20.5 164t-71.5 96h176q49 0 72 25v-162q20 18 36.5 30.5t30 22t26.5 16.5t30 17q72 41 164 62.5t188 21.5q225 0 348 -110q49 -43 82 -119q8 -23 15 -47.5t10.5 -54t5.5 -67.5t2 -89v-242q0 -53 4 -91t14 -68.5t27.5 -54 t44.5 -46.5h-355q51 41 71 97.5t20 162.5v268q0 88 -10.5 139.5t-39.5 88.5q-70 96 -254 96q-213 0 -352 -117q-29 -25 -46 -47t-27.5 -50t-14.5 -64.5t-4 -88.5v-225q0 -102 20.5 -160.5t73.5 -99.5h-358z" />
<glyph unicode="o" horiz-adv-x="1415" d="M94 483q0 242 161 374t454 132t452.5 -133t159.5 -375t-163 -377t-453 -135q-293 0 -452 133.5t-159 380.5zM276 483q0 -70 16.5 -129t49.5 -100q51 -68 149.5 -108t219.5 -40q199 0 310.5 94.5t117.5 268.5v20q0 174 -112 268.5t-316 94.5q-207 0 -321 -96.5 t-114 -272.5z" />
<glyph unicode="p" horiz-adv-x="1431" d="M80 -297q51 39 70.5 96.5t19.5 161.5v764q0 51 -1 70.5t-5 42.5q-8 39 -23.5 66.5t-38.5 51.5h125q29 0 39 -2t21 -8q16 -10 23 -30.5t9 -61.5v-35q39 39 63 57.5t58 38.5q66 35 146 54.5t172 19.5q133 0 239.5 -34.5t182 -99t115.5 -158t40 -208.5q0 -119 -41 -215 t-117.5 -163.5t-185 -104.5t-241.5 -37q-125 0 -218.5 29t-187.5 94v-131q0 -49 4 -86t13.5 -65.5t23.5 -51t37 -45.5l10 -10h-352zM338 469q0 -178 105.5 -270.5t304.5 -92.5q190 0 297.5 103t107.5 283q0 170 -103.5 265t-289.5 95q-201 0 -311.5 -100.5t-110.5 -282.5z " />
<glyph unicode="q" horiz-adv-x="1431" d="M96 457q0 119 42 217t118 168.5t183.5 108.5t240.5 38q186 0 319 -76q35 -18 57.5 -36.5t59.5 -53.5q0 80 25.5 106.5t103.5 26.5h115q-51 -37 -71.5 -95t-20.5 -165v-735q0 -106 20.5 -164.5t71.5 -93.5h-359q49 31 71 91.5t22 166.5v166q-43 -43 -73 -63.5t-77 -38.5 q-133 -55 -297 -56q-127 0 -228.5 35t-173 98.5t-110.5 153.5t-39 201zM279 465q0 -170 99 -264.5t279 -94.5q98 0 180.5 28t139.5 79t89 123t32 158q0 82 -30 147.5t-84 112.5t-130 72.5t-170 25.5q-92 0 -168 -27.5t-128 -78t-80.5 -122t-28.5 -159.5z" />
<glyph unicode="r" horiz-adv-x="980" d="M80 0q53 41 72.5 97.5t19.5 162.5v436q0 106 -19.5 162.5t-72.5 97.5h168q35 0 48 4.5t32 20.5v-174q43 51 85 86t88 56.5t99 30.5t119 9q43 0 88 -4t100 -14q14 -2 25.5 -3t19.5 -1q10 0 20.5 2t28.5 8l-45 -203q-119 78 -245 78q-178 0 -272.5 -115.5t-94.5 -337.5 v-139q0 -106 19.5 -162.5t72.5 -97.5h-356z" />
<glyph unicode="s" horiz-adv-x="1265" d="M88 264l35 -16q94 -45 164.5 -69.5t134.5 -41.5q59 -14 121.5 -22.5t118.5 -8.5q154 0 240.5 46.5t86.5 130.5q0 66 -45 95.5t-158 37.5l-110 8l-166 12q-203 14 -295 70.5t-92 171.5q0 147 135 229t379 82q70 0 138.5 -7t156.5 -24l94 -16l53 -10q12 -4 21.5 -4h17.5 q10 0 35 8l-66 -193q-92 53 -208.5 81t-237.5 28q-160 0 -249 -43t-89 -121q0 -59 57 -82q23 -10 46.5 -14t52.5 -8q45 -4 97 -9.5t116 -9.5q80 -6 136 -11t96 -11t70 -14.5t58 -20.5q66 -25 102.5 -81t36.5 -132q0 -74 -34.5 -134.5t-100 -103.5t-159 -65.5t-209.5 -22.5 q-72 0 -161 10.5t-200 30.5q-33 6 -49 8t-29 2q-25 0 -37 -4t-24 -18z" />
<glyph unicode="t" horiz-adv-x="993" d="M2 743l68 207q14 -23 37.5 -32t66.5 -9q68 0 102 43q16 23 23.5 57.5t7.5 100.5v4l-2 119l-2 24q-2 20 -6 27.5t-21 18.5h234q-18 -12 -24.5 -26.5t-6.5 -43.5v-318h332h44t28 3q31 0 61 10q10 4 18.5 8t30.5 20l-69 -213q-8 12 -17.5 19.5t-25 11.5t-40 5t-67.5 1h-295 v-334q0 -53 2 -90t6.5 -63.5t11.5 -46t19 -39.5q27 -47 82 -74t127 -27q51 0 104 13q39 8 69 20.5t79 40.5v-192q-10 4 -15.5 5t-13.5 1q-20 0 -57 -6q-63 -10 -105.5 -14.5t-82.5 -4.5q-86 0 -156 18.5t-121 51.5q-74 49 -102 135q-16 51 -22.5 112.5t-6.5 176.5v317h-154 q-59 0 -83.5 -6t-57.5 -31z" />
<glyph unicode="u" horiz-adv-x="1411" d="M70 956h280q-12 -14 -15 -25t-3 -46v-41v-422q0 -86 13 -138.5t46 -88.5q37 -41 106.5 -65t157.5 -24q98 0 186.5 26t153.5 73q37 27 60 69q8 12 12 26.5t7 33t4 44t1 64.5v254q0 53 -4 91t-14 68t-27.5 53.5t-44.5 47.5h287q-16 -16 -19.5 -30.5t-3.5 -57.5v-620v-25.5 t4 -38.5q2 -35 7 -57q12 -66 63 -127h-117q-59 0 -81.5 25.5t-26.5 95.5q-82 -76 -194.5 -114t-264.5 -38q-248 0 -375 107q-59 49 -83.5 130t-24.5 216v274q0 104 -19 158q-10 33 -25.5 53.5t-45.5 48.5z" />
<glyph unicode="v" horiz-adv-x="1339" d="M-20 956h370q-43 -35 -43 -79q0 -27 13.5 -60t48.5 -94l266 -481q10 -18 16 -30.5t11.5 -22t8.5 -20.5t9 -28q12 35 20.5 52.5t24.5 48.5l279 481q29 51 42 87t13 64q0 27 -9.5 44.5t-31.5 37.5h342q-35 -31 -53.5 -50t-40.5 -50q-16 -23 -32.5 -47.5t-35 -54t-40 -65.5 t-48.5 -81l-301 -520q-20 -37 -21 -55q0 -16 17 -33h-270q20 18 20 39q0 14 -6 27q-2 4 -6 9t-8 13l-291 520q-25 45 -45.5 80t-40 64.5t-40 56.5t-44.5 55q-29 35 -46.5 51.5t-47.5 40.5z" />
<glyph unicode="w" horiz-adv-x="2080" d="M-25 956h344q-20 -23 -29 -45t-9 -55q0 -8 4 -25q4 -29 14 -61q6 -20 11 -34.5t9 -24.5l238 -508l14 -29q2 -6 4.5 -14t4.5 -19q6 23 10 32t14 30l311 639q27 53 27 84q0 14 -10 30h233q-8 -16 -8 -26t9.5 -36t21.5 -52l311 -639q10 -20 13.5 -29.5t9.5 -32.5 q4 10 6 18.5t4 14.5q6 18 10 29l225 508q39 90 39 147q0 35 -9 55.5t-36 42.5h344q-35 -29 -53 -47t-39 -51q-23 -35 -50.5 -88t-47.5 -98l-266 -588l-9 -18q-6 -12 -6 -31q0 -12 2 -18.5t13 -16.5h-269q16 16 17 31q0 2 -1 3t-1 3q0 8 -6 24q-4 8 -5.5 13.5t-3.5 9.5 l-307 627q-10 23 -14 32t-15 31l-14 -35l-14 -28l-305 -627l-11 -21q-8 -18 -8 -32q0 -18 19 -31h-275q18 12 19 31q0 10 -3 18t-16 35l-280 588q-16 35 -26.5 56.5t-19 36.5t-17.5 29.5t-21 36.5q-14 23 -24.5 38.5t-21 28.5t-22.5 26.5t-29 31.5z" />
<glyph unicode="x" horiz-adv-x="1376" d="M-25 0q27 12 47.5 22.5t40 22.5t40 28.5t51.5 39.5q39 31 77.5 62.5t73.5 60t62.5 53t46.5 41.5l178 170l-162 176q-49 53 -106.5 106.5t-110.5 89.5q-18 14 -33.5 23.5l-31 19t-33 19.5t-41.5 22h448q-16 -16 -22 -29.5t-6 -31.5q0 -47 57 -107l166 -178l182 168 q43 39 60.5 64.5t17.5 50.5q0 20 -7 33.5t-28 29.5h387q-20 -12 -34.5 -22t-28 -20.5t-29.5 -23.5t-39 -32q-23 -18 -40 -33.5t-38.5 -34t-49.5 -44t-73 -66.5l-188 -174l168 -178q68 -72 120 -122t107 -97q27 -23 46.5 -37.5t38 -25.5t40 -22.5t51.5 -23.5h-493 q33 12 45 29.5t12 46.5q0 25 -18.5 53.5t-65.5 79.5l-174 186l-182 -168q-16 -16 -32.5 -31.5t-33.5 -31.5q-57 -57 -57 -98q0 -20 10 -35t39 -31h-455z" />
<glyph unicode="y" horiz-adv-x="1366" d="M-8 956h368q-16 -23 -21 -37t-5 -36q0 -35 19.5 -82t62.5 -119l235 -395l21 -35l16 -35q6 12 9 20.5t8 14.5q2 4 7 12t13 23l246 395q23 35 35 55.5t18 30.5q41 70 41 117q0 23 -7 37t-26 34h342l-42 -42t-38 -44q-23 -27 -38 -47t-32.5 -44.5t-40 -61.5t-59.5 -94 l-405 -650q-82 -131 -82 -196q0 -23 7 -37t26 -37h-381q68 43 138.5 123t137.5 197l23 38l-332 562q-27 45 -62.5 99t-66.5 95q-16 23 -30.5 40t-30 32.5t-33 31t-41.5 35.5z" />
<glyph unicode="z" horiz-adv-x="1191" d="M25 0l731 809h-236q-68 0 -117 -1t-85.5 -3t-65.5 -6t-53 -11q-41 -10 -72 -24t-74 -45l60 135q6 16 11 35.5t5 34.5q0 18 -16 32h985l-721 -811h379h84.5t56.5 2.5t39 3.5t35 5q109 23 192 88l-65 -152q-10 -23 -13.5 -34t-3.5 -21t3 -18.5t14 -18.5h-1073z" />
<glyph unicode="{" d="M287 434v141q61 16 87.5 57.5t26.5 119.5v352q0 152 70 217t227 65h76v-151q-61 0 -100 -7t-60.5 -25.5t-30 -51.5t-8.5 -86v-324q0 -37 -5 -71.5t-15 -63.5q-10 -35 -32.5 -57.5t-71.5 -50.5q39 -23 57 -39.5t35 -44.5q33 -57 32 -160v-315v-11.5t3 -25.5q2 -16 2 -29.5 t2 -24.5q4 -16 17 -35.5t30 -27.5q41 -23 127 -23h18v-149h-47q-10 0 -18.5 -1t-18.5 -1q-154 0 -221.5 70.5t-67.5 230.5v334q0 88 -25.5 130t-88.5 58z" />
<glyph unicode="|" d="M424 -512v2048h174v-2048h-174z" />
<glyph unicode="}" d="M279 -238q61 0 100 7.5t60.5 26t29.5 51t8 85.5v326q0 76 19 135q12 35 34.5 57.5t71.5 49.5q-39 23 -57.5 40t-34.5 46q-33 57 -33 159v316q0 2 -1 11t-1 26q-2 16 -2 29.5t-4 23.5q-4 16 -16.5 35.5t-28.5 27.5q-20 10 -54 15.5t-75 5.5h-16v151h45h36 q154 0 222.5 -69.5t68.5 -229.5v-333q0 -88 25.5 -130t89.5 -59v-141q-61 -16 -88 -57t-27 -119v-352q0 -152 -69.5 -218.5t-227.5 -66.5h-30.5t-44.5 2v149z" />
<glyph unicode="~" horiz-adv-x="1366" d="M188 1247q16 35 24.5 51.5t18.5 32.5q94 164 244 164q41 0 92 -15.5t135 -52.5q33 -14 56.5 -24t40.5 -17q49 -18 96 -18q57 0 95 27.5t83 103.5l103 -61q-25 -51 -39.5 -75t-36.5 -52q-41 -53 -101.5 -83t-126.5 -30q-27 0 -78 14.5t-98 34.5l-110 47q-72 31 -123 31 q-53 0 -93 -32.5t-81 -108.5z" />
<glyph unicode="&#xa1;" horiz-adv-x="604" d="M131 852q0 57 39 97t92 40t92 -40t39 -95q0 -53 -38 -91t-93 -38q-53 0 -92 37t-39 90zM143 -115q0 129 15.5 272.5t46.5 293.5q16 74 28.5 100.5t34.5 26.5q20 0 32.5 -27t29.5 -102q12 -61 24.5 -138.5t20.5 -156t13 -153.5t5 -134q0 -168 -28 -232q-14 -29 -42 -48 t-57 -19t-56.5 19.5t-39.5 50.5q-27 66 -27 247z" />
<glyph unicode="&#xa2;" horiz-adv-x="1488" d="M268 698q0 227 117 362.5t344 174.5l2 98v2q0 20 -2 25q0 6 -14 33h172q-10 -18 -13.5 -29.5t-3.5 -34.5v-84q37 -2 58.5 -5t56.5 -9q41 -8 75 -17.5t93 -29.5q29 -10 44 -13.5t30 -3.5h20l-67 -161q-29 16 -43.5 23t-34.5 15q-33 14 -78 27q-35 8 -59.5 13.5t-69.5 9.5 l-25 2v-768q45 2 72 7t70 19q23 6 42 13.5t38 15.5q35 14 56 25.5t56 35.5v-219q-16 4 -25.5 5t-23.5 1q-20 0 -45 -4t-82 -18q-53 -14 -86 -19.5t-72 -9.5l-2 -114v-3q0 -25 3 -36t14 -27h-168q8 12 11 20.5t3 22.5v23v116q-463 72 -463 516zM449 713q0 -336 280 -373 l2 737q-23 -4 -38 -8t-29.5 -10t-28.5 -15.5t-35 -21.5q-78 -53 -114.5 -127t-36.5 -182z" />
<glyph unicode="&#xa3;" horiz-adv-x="1488" d="M61 618l2 5q25 104 50.5 144t64.5 40h60l18 2q-8 39 -13 64.5t-7.5 44t-2.5 36v41.5q0 88 39 162t110 125t171 80t221 29q31 0 61.5 -2.5t66.5 -5.5t79 -10t102 -15q86 -14 117 -18.5t49 -4.5q14 0 43 6l2 2l-2 -251l-2 2q-4 2 -43 22q-113 59 -231.5 91t-229.5 32 q-76 0 -140 -20.5t-111.5 -57.5t-74 -87t-26.5 -107q0 -16 1 -30.5t4 -32t10.5 -41t17.5 -58.5h358h107q45 0 76.5 5t85.5 26l4 2l-43 -64l-35 -55q-23 -35 -41 -47q-8 -4 -17.5 -7t-25.5 -5.5t-43 -2.5h-72h-323q6 -33 9 -54t5 -39.5t3 -34t1 -35.5q0 -117 -59 -220 l-56 -98l-16 -26h399h144q80 4 131 12t92 28q43 23 69.5 62t26.5 82q0 47 -26.5 82t-65.5 41h-4l217 110v-4q-2 -10 -3 -13t-1 -7q0 -12 6 -26.5t19 -39.5q20 -41 28 -71.5t8 -67.5q0 -86 -52 -164t-142 -121q-35 -16 -71 -26.5t-73 -14.5q-102 -12 -294 -12h-703l2 2l23 27 q20 25 42.5 58.5t44 72.5t41 80t31.5 75q43 117 43 226q0 41 -5 69.5t-13 44.5q-2 0 -2 2v-2q-23 2 -35 2h-26q-55 0 -101 -6q-23 -4 -34 -9t-35 -21z" />
<glyph unicode="&#xa4;" horiz-adv-x="1366" d="M94 1231l96 98l199 -199q78 53 145.5 78t149.5 25q80 0 146.5 -23.5t142.5 -76.5l198 194l97 -96l-197 -197q55 -78 79 -145.5t24 -145.5t-24 -144.5t-77 -141.5l199 -199l-96 -96l-199 198q-72 -53 -142.5 -77.5t-148.5 -24.5t-147.5 23.5t-147.5 76.5l-196 -196l-97 96 l197 197q-102 135 -102 290q0 78 23.5 145.5t76.5 141.5zM352 745q0 -70 25.5 -130t71 -105t105.5 -70.5t128 -25.5t128 25.5t105.5 70.5t72 105t26.5 128q0 70 -25.5 130.5t-71 105.5t-105.5 70.5t-128 25.5q-70 0 -130 -25.5t-105.5 -70.5t-71 -105.5t-25.5 -128.5z" />
<glyph unicode="&#xa5;" horiz-adv-x="1488" d="M29 1366h438q-53 -37 -53 -98q0 -33 16 -72q6 -16 12.5 -30.5t15.5 -34t22.5 -46t35.5 -67.5l205 -391q6 -10 10 -25.5t12 -44.5q8 25 13 37q4 12 7 20.5t5 12.5l207 391q8 16 20.5 38.5t26.5 53.5q29 61 40 94t11 64q0 61 -51 98h438q-23 -10 -39 -19.5t-30.5 -21.5 t-27.5 -27.5t-30 -40.5q-20 -27 -39.5 -55t-44 -67t-54.5 -93.5t-71 -130.5l-47 -88h72h78q49 0 84 6q25 4 42 8.5t46 16.5l-53 -109q-16 -35 -39 -48t-64 -13h-82h-160l-102 -188h223h78q47 0 84 6q23 4 41 8t47 16l-53 -108q-16 -35 -40 -48.5t-65 -13.5h-81h-287v-20v-96 v-64q0 -59 28.5 -106t75.5 -70h-413q49 23 76.5 68t27.5 108v64v96v20h-285h-84q-63 0 -99 -5t-85 -19l33 67l24 47q12 25 23.5 33t30.5 13q14 4 27.5 4h64.5h295l-101 188h-100h-84q-63 0 -100 -5t-84 -20l33 68l24 47q12 25 22.5 33t30.5 12q12 4 25.5 4h64.5h93l-48 88 q-86 158 -143 252q-16 25 -31.5 48.5t-31.5 45.5q-18 25 -31.5 40.5t-27 27.5t-30 21.5t-38.5 19.5z" />
<glyph unicode="&#xa7;" horiz-adv-x="1095" d="M63 -143l121 206q4 -25 16.5 -40t47.5 -37q80 -53 164 -84t159 -31q90 0 139.5 38t49.5 103q0 59 -51.5 107.5t-182.5 107.5q-98 45 -158.5 75t-98.5 50.5t-60.5 37t-44.5 34.5q-84 72 -84 197q0 94 47 165.5t137 112.5q-113 88 -112 205q0 66 27.5 119t79.5 91t124 58.5 t162 20.5q143 0 297 -72q27 -12 39 -12h18l10 2l-108 -193q-29 49 -103.5 80t-167.5 31q-86 0 -136 -33t-50 -88q0 -25 10.5 -44.5t35 -39.5t66.5 -41.5t107 -50.5q68 -31 117 -52.5t85 -39t62.5 -32.5t49.5 -30q116 -78 116 -209q0 -104 -57 -175.5t-162 -106.5 q98 -63 138 -123t40 -146q0 -70 -27.5 -127t-76.5 -99t-119 -64.5t-156 -22.5q-47 0 -93 7t-91 20q-57 16 -125.5 48t-122.5 64q-27 18 -45 19q-8 0 -33 -6zM272 645q0 -57 35 -98t119 -82q63 -31 118.5 -48.5t96.5 -17.5q66 0 112 41t46 105v6q0 43 -25.5 74.5t-91.5 68.5 q-80 45 -147.5 68.5t-116.5 23.5q-66 0 -106 -39.5t-40 -101.5z" />
<glyph unicode="&#xa8;" d="M137 1307q0 59 40 99t99 40t99.5 -40t40.5 -95q0 -59 -40 -101.5t-100 -42.5q-57 0 -98 41t-41 99zM608 1307q0 57 41 97t99 40q59 0 99 -41t40 -100q0 -57 -40 -96.5t-97 -39.5q-59 0 -100.5 40t-41.5 100z" />
<glyph unicode="&#xa9;" horiz-adv-x="1611" d="M96 682q0 145 55.5 274t151.5 224.5t225 150.5t277 55q147 0 276 -55t226.5 -150.5t153 -224.5t55.5 -274t-55.5 -273t-153 -223.5t-226.5 -150.5t-276 -55t-276.5 55t-225.5 150.5t-151.5 223.5t-55.5 273zM203 682q0 -127 47 -237.5t129 -193.5t191.5 -131t234.5 -48 t235.5 48t192.5 131t129 193.5t47 237.5t-47 237.5t-129 193.5t-192.5 131t-235.5 48t-234.5 -48t-191.5 -131t-129 -193.5t-47 -237.5zM414 676q0 80 30.5 147.5t86 114.5t133 73.5t172.5 26.5q37 0 79.5 -5t77.5 -11l64 -12l35 -6q10 -2 15 -3.5t9 -1.5t10.5 1t16.5 1 l-37 -116q-23 10 -34 15t-25 11q-100 39 -201 39q-72 0 -130.5 -20.5t-99.5 -56t-64.5 -86t-23.5 -111.5q0 -117 79 -186.5t212 -69.5q43 0 93.5 6t93.5 18q29 8 50 15.5t62 23.5v-133q-14 4 -21 5t-14 3q-4 0 -9 -1t-9 -1q-6 -2 -19.5 -4t-33.5 -6q-47 -6 -92.5 -10 t-85.5 -4q-195 0 -307.5 92t-112.5 252z" />
<glyph unicode="&#xaa;" horiz-adv-x="991" d="M125 963q0 94 97 140t315 52l141 4l8 2v15q0 113 -180 112q-86 0 -175 -19.5t-159 -54.5l57 164q10 -12 19.5 -15t30.5 -3q10 0 24 1t29 3l80 10q45 6 98 6q113 0 180 -26q43 -14 78 -56q10 -14 17.5 -27.5t11.5 -30.5t6 -40.5t2 -56.5v-13v-73v-86q0 -16 1 -29.5 t3 -28.5q4 -25 11 -40t28 -39l24 -31h-84q-23 0 -37 9t-30 32l-6 10q-47 -35 -112.5 -51.5t-158.5 -16.5q-156 0 -237.5 45.5t-81.5 131.5zM139 608v68h725v-68h-725zM248 961q0 -41 51 -62.5t145 -21.5q129 0 187.5 41t58.5 131v22h-24q-109 0 -202 -10t-151 -29 q-66 -23 -65 -71z" />
<glyph unicode="&#xab;" horiz-adv-x="884" d="M111 498l168 354h127l-127 -352l129 -355h-123zM446 496l170 356h119l-123 -352l127 -353h-123z" />
<glyph unicode="&#xac;" d="M68 389v158h888v-547h-174v389h-714z" />
<glyph unicode="&#xad;" horiz-adv-x="628" d="M-27 391l33 74l25 53q12 29 22 38t31 13q12 4 25.5 4h64.5h232h77q23 0 45.5 2.5t38.5 4.5q23 4 41.5 9t46.5 17l-53 -119q-18 -41 -40.5 -55t-63.5 -14h-82h-174h-84q-33 0 -56.5 -1t-44 -4t-40 -8.5t-44.5 -13.5z" />
<glyph unicode="&#xae;" d="M102 1153q0 86 32 161t87 130t130 87t161 32t161 -32t130 -87t87 -130t32 -161q0 -84 -33 -158.5t-88.5 -130t-130 -88.5t-158.5 -33t-158.5 33t-130 88.5t-88.5 130t-33 158.5zM156 1153q0 -74 27.5 -138.5t76.5 -113.5t113.5 -76.5t138.5 -27.5t138.5 27.5t113.5 76.5 t76.5 113.5t27.5 138.5t-27.5 139.5t-76.5 113.5t-113.5 75.5t-138.5 27.5t-138.5 -27.5t-113.5 -76.5t-76.5 -113.5t-27.5 -138.5zM281 942q23 14 28.5 33.5t5.5 71.5v213q0 49 -6 70.5t-28 35.5h184h61q45 0 70 -2t49 -8q43 -10 66.5 -38t23.5 -69q0 -100 -137 -112 q41 -16 67.5 -43t59.5 -82q14 -27 19.5 -34t13.5 -17q8 -12 22 -19h-114q6 6 6 16q0 12 -6 31q-10 25 -24.5 45.5t-31.5 36.5q-35 35 -72.5 47t-107.5 12h-8l-45 -2v-81q0 -49 6 -70t29 -35h-131zM377 1176l104 -2h15q98 0 138 17t40 58q0 20 -8.5 34.5t-31 23t-61 11.5 t-98.5 3h-98v-145z" />
<glyph unicode="&#xaf;" d="M102 1202l39 62q16 27 31.5 47t22.5 24q12 12 41 17q10 2 20 3t23 1h67h277h92q29 0 56.5 1t43.5 5q29 2 50.5 6t56.5 14l-66 -98q-23 -35 -48.5 -47t-74.5 -12h-98h-211h-100q-37 0 -66 -1t-53.5 -3t-49 -7.5t-53.5 -11.5z" />
<glyph unicode="&#xb0;" d="M217 1077q0 59 22.5 112.5t62.5 92.5t94.5 61.5t115.5 22.5t114.5 -22.5t93.5 -61.5t63.5 -92.5t23.5 -112.5t-23.5 -112.5t-63.5 -92t-93.5 -61.5t-114.5 -23t-115.5 23t-94.5 61.5t-62.5 92t-22.5 112.5zM326 1077q0 -76 54 -129t132 -53t132 53t54 129t-54 129.5 t-132 53.5t-132 -53.5t-54 -129.5z" />
<glyph unicode="&#xb1;" d="M68 129v162h888v-162h-888zM68 713v161h358v343h174v-343h356v-161h-356v-342h-174v342h-358z" />
<glyph unicode="&#xb4;" d="M451 1202q0 33 41 98q20 35 47.5 70t60.5 68q37 37 67.5 53t63.5 16q27 0 44.5 -17t17.5 -44q0 -37 -31 -83t-88 -99q-10 -10 -27.5 -23.5t-44.5 -36.5q-31 -25 -51.5 -37t-42.5 -16h-12q-20 0 -32.5 14.5t-12.5 36.5z" />
<glyph unicode="&#xb6;" horiz-adv-x="1433" d="M92 1047q0 96 44 169.5t124 110.5q27 12 52.5 19.5t60.5 12.5t84 6t123 1h665q-29 -29 -40 -47.5t-21 -46.5q-16 -39 -17 -76q-2 -14 -2 -41v-65v-54v-866v-80q0 -61 1 -98t2 -60.5t5.5 -39t10.5 -33.5q10 -27 21.5 -46.5t37.5 -48.5h-194v1487h-123l-2 -1487h-195 q27 23 37 40.5t20 45.5q6 18 9.5 36t5.5 42.5t3 62.5t1 95v84v563h-232q-35 0 -58 1t-38 1q-90 2 -148.5 15.5t-103.5 42.5q-63 41 -98 108.5t-35 145.5zM272 1053q0 -111 78 -166q16 -12 34.5 -19.5t44.5 -11.5t61.5 -6t89.5 -2h225l2 403h-227q-113 0 -170 -14 q-63 -14 -100.5 -63.5t-37.5 -120.5z" />
<glyph unicode="&#xb7;" horiz-adv-x="294" d="M0 711q0 59 43 102t104 43t104.5 -42t43.5 -101q0 -61 -44 -105.5t-106 -44.5q-59 0 -102 43t-43 105z" />
<glyph unicode="&#xb8;" d="M223 -350l53 131q51 -14 114 -23.5t112 -9.5q72 0 111.5 18.5t39.5 53.5q0 70 -141 69q-39 0 -65.5 -4t-59.5 -16l45 113q39 6 66.5 8t62.5 2q111 0 175.5 -44t64.5 -118q0 -182 -285 -182h-48.5t-57.5 4q-39 4 -52.5 5t-35.5 1q-41 0 -58.5 -2t-40.5 -6z" />
<glyph unicode="&#xba;" horiz-adv-x="991" d="M121 1081q0 143 97 221t278 78q180 0 277 -78t97 -219t-99 -219t-277 -78t-275.5 77t-97.5 218zM154 608v68h686v-68h-686zM244 1085q0 -100 65.5 -154t188.5 -54q117 0 183.5 52t66.5 148v10q0 98 -65 149.5t-185 51.5q-121 0 -187.5 -52t-66.5 -151z" />
<glyph unicode="&#xbb;" horiz-adv-x="884" d="M143 147l127 353l-120 352h116l172 -356l-172 -349h-123zM475 145l129 355l-125 352h127l166 -354l-172 -353h-125z" />
<glyph unicode="&#xbf;" horiz-adv-x="1409" d="M98 27q0 162 90 284q39 53 90.5 92t118 67t150.5 43t190 24l117 8q45 4 68.5 10t50.5 23v-211q-35 29 -172 28q-240 0 -370 -93t-130 -263q0 -154 105.5 -239t298.5 -85q66 0 141.5 12.5t153 36t152.5 55t136 68.5v-247q-16 8 -28.5 10t-36.5 2q-12 0 -24.5 -1t-31 -4 t-46 -9.5t-68.5 -16.5q-92 -25 -135 -31q-119 -23 -234 -22q-281 0 -433.5 119.5t-152.5 339.5zM723 858q0 53 38 92t91 39t91 -38t38 -91q0 -55 -39 -94t-92 -39t-90 39t-37 92z" />
<glyph unicode="&#xc0;" horiz-adv-x="1738" d="M-18 0q29 25 44 40t44 54q25 33 47 66t45.5 72.5t50.5 90t61 115.5l410 781q18 35 24.5 51t6.5 28q0 37 -39 68h393q-35 -29 -35 -59q0 -12 6.5 -29.5t28.5 -58.5l428 -852q12 -23 26.5 -51.5t31 -56.5t32 -53.5t27.5 -43.5q10 -12 22.5 -30.5t32.5 -45.5 q27 -37 40 -51.5t40 -34.5h-408q35 25 48.5 46.5t13.5 51.5q0 29 -18.5 83.5t-47.5 103.5l-26 45h-893l-43 -78q-47 -86 -47 -135q0 -72 67 -117h-413zM492 477h747l-338 682l-14 33l-13 27q-10 -23 -14 -34t-12 -26zM561 1829q0 29 17.5 45t46.5 16q82 0 192 -141 q33 -41 57.5 -85t28.5 -69v-10q0 -23 -12 -38t-33 -15q-23 0 -46.5 12t-59.5 41q-190 152 -191 244z" />
<glyph unicode="&#xc1;" horiz-adv-x="1738" d="M-18 0q29 25 44 40t44 54q25 33 47 66t45.5 72.5t50.5 90t61 115.5l410 781q18 35 24.5 51t6.5 28q0 37 -39 68h393q-35 -29 -35 -59q0 -12 6.5 -29.5t28.5 -58.5l428 -852q12 -23 26.5 -51.5t31 -56.5t32 -53.5t27.5 -43.5q10 -12 22.5 -30.5t32.5 -45.5 q27 -37 40 -51.5t40 -34.5h-408q35 25 48.5 46.5t13.5 51.5q0 29 -18.5 83.5t-47.5 103.5l-26 45h-893l-43 -78q-47 -86 -47 -135q0 -72 67 -117h-413zM492 477h747l-338 682l-14 33l-13 27q-10 -23 -14 -34t-12 -26zM834 1585q0 14 11 40t32 58q20 35 47.5 70t58.5 66 q74 72 133 71q27 0 43.5 -17t16.5 -44q0 -76 -119 -182q-10 -10 -27.5 -24.5t-44.5 -37.5q-29 -23 -50.5 -35t-41.5 -16q-4 0 -6 -1t-6 -1q-20 0 -33.5 15.5t-13.5 37.5z" />
<glyph unicode="&#xc2;" horiz-adv-x="1738" d="M-18 0q29 25 44 40t44 54q25 33 47 66t45.5 72.5t50.5 90t61 115.5l410 781q18 35 24.5 51t6.5 28q0 37 -39 68h393q-35 -29 -35 -59q0 -12 6.5 -29.5t28.5 -58.5l428 -852q12 -23 26.5 -51.5t31 -56.5t32 -53.5t27.5 -43.5q10 -12 22.5 -30.5t32.5 -45.5 q27 -37 40 -51.5t40 -34.5h-408q35 25 48.5 46.5t13.5 51.5q0 29 -18.5 83.5t-47.5 103.5l-26 45h-893l-43 -78q-47 -86 -47 -135q0 -72 67 -117h-413zM391 1645l15 -3l22 3l23 12l411 203l418 -195l20 -10q18 -10 31 -10q8 0 17 4l-68 -142q-4 4 -4 9q-4 6 -8 10 q-8 8 -15 10l-30 14l-357 166l-350 -168q-10 -4 -16 -8t-11 -6q-2 -2 -6 -5t-10 -9q-4 -6 -12 -13zM492 477h747l-338 682l-14 33l-13 27q-10 -23 -14 -34t-12 -26z" />
<glyph unicode="&#xc3;" horiz-adv-x="1738" d="M-18 0q29 25 44 40t44 54q25 33 47 66t45.5 72.5t50.5 90t61 115.5l410 781q18 35 24.5 51t6.5 28q0 37 -39 68h393q-35 -29 -35 -59q0 -12 6.5 -29.5t28.5 -58.5l428 -852q12 -23 26.5 -51.5t31 -56.5t32 -53.5t27.5 -43.5q10 -12 22.5 -30.5t32.5 -45.5 q27 -37 40 -51.5t40 -34.5h-408q35 25 48.5 46.5t13.5 51.5q0 29 -18.5 83.5t-47.5 103.5l-26 45h-893l-43 -78q-47 -86 -47 -135q0 -72 67 -117h-413zM395 1704h2q8 0 13.5 3t21.5 19q127 125 248 125q18 0 36.5 -2t35.5 -8q14 -6 27.5 -11t28.5 -14.5t34.5 -23.5t48.5 -37 q43 -33 73.5 -46t59.5 -13q66 0 139 65q37 31 49.5 49.5t16.5 40.5l114 -149q-12 0 -17 -2t-15 -10l-39 -37q-66 -63 -130.5 -95t-119.5 -32q-37 0 -70 12q-31 10 -58.5 27.5t-80.5 60.5q-47 37 -77.5 51.5t-63.5 14.5q-82 0 -144 -78q-10 -12 -13 -21.5t-3 -21.5zM492 477 h747l-338 682l-14 33l-13 27q-10 -23 -14 -34t-12 -26z" />
<glyph unicode="&#xc4;" horiz-adv-x="1738" d="M-18 0q29 25 44 40t44 54q25 33 47 66t45.5 72.5t50.5 90t61 115.5l410 781q18 35 24.5 51t6.5 28q0 37 -39 68h393q-35 -29 -35 -59q0 -12 6.5 -29.5t28.5 -58.5l428 -852q12 -23 26.5 -51.5t31 -56.5t32 -53.5t27.5 -43.5q10 -12 22.5 -30.5t32.5 -45.5 q27 -37 40 -51.5t40 -34.5h-408q35 25 48.5 46.5t13.5 51.5q0 29 -18.5 83.5t-47.5 103.5l-26 45h-893l-43 -78q-47 -86 -47 -135q0 -72 67 -117h-413zM492 477h747l-338 682l-14 33l-13 27q-10 -23 -14 -34t-12 -26zM494 1690q0 57 40.5 97t100.5 40q57 0 97 -39t40 -94 q0 -59 -40 -101.5t-97 -42.5q-59 0 -100 41t-41 99zM965 1688q0 57 41 98t100 41q57 0 98 -41t41 -100q0 -57 -41 -97.5t-98 -40.5q-59 0 -100 41t-41 99z" />
<glyph unicode="&#xc5;" horiz-adv-x="1738" d="M-18 0q29 25 44 40t44 54q25 33 47 66t45.5 72.5t50.5 90t61 115.5l410 781q18 35 24.5 51t6.5 28q0 37 -39 68h393q-35 -29 -35 -59q0 -12 6.5 -29.5t28.5 -58.5l428 -852q12 -23 26.5 -51.5t31 -56.5t32 -53.5t27.5 -43.5q10 -12 22.5 -30.5t32.5 -45.5 q27 -37 40 -51.5t40 -34.5h-408q35 25 48.5 46.5t13.5 51.5q0 29 -18.5 83.5t-47.5 103.5l-26 45h-893l-43 -78q-47 -86 -47 -135q0 -72 67 -117h-413zM492 477h747l-338 682l-14 33l-13 27q-10 -23 -14 -34t-12 -26zM657 1698q0 43 16.5 82t46.5 67.5t68.5 45t81.5 16.5 t82 -16.5t67 -45t44 -67.5t16 -82v-2q0 -43 -16 -81t-45 -66.5t-67 -45t-81 -16.5t-81.5 16.5t-68.5 45t-46.5 67.5t-16.5 82zM760 1698q0 -47 31.5 -78t78.5 -31q45 0 76 31t31 76q0 47 -31 78.5t-76 31.5q-47 0 -78.5 -31.5t-31.5 -76.5z" />
<glyph unicode="&#xc6;" horiz-adv-x="2187" d="M-35 0q18 20 28.5 30.5t35.5 39.5q18 23 31.5 39t25.5 31.5t23.5 30.5t27.5 36l762 1012q61 82 62 112q0 18 -19 35h1133q-14 -10 -18.5 -17.5t-4.5 -19.5q0 -10 4 -31l53 -159q-74 25 -131 41t-116.5 24t-129 11.5t-169.5 3.5h-263v-404h416h60.5t41 1t31 2t25.5 3 q23 4 37 6t39 13l-54 -78q-4 -4 -10 -14.5t-20 -30.5q-14 -23 -25.5 -34t-25.5 -15q-8 -2 -19.5 -4t-33 -3.5t-53.5 -1.5h-81h-328v-514h291q80 0 140.5 1t95.5 4q45 2 81 6t69.5 11t66.5 18.5t74 27.5l28 12l-49 -131q-12 -37 -12 -53q0 -14 4 -22.5t20 -18.5h-1110 q27 18 41.5 33.5t28.5 40.5q18 33 24.5 64.5t6.5 86.5v15v59v27h-647l-52 -66q-70 -88 -69 -160q0 -61 61 -100h-428zM563 473h537v711z" />
<glyph unicode="&#xc7;" horiz-adv-x="1507" d="M109 666q0 162 58 296t164.5 229t255 147.5t331.5 52.5q72 0 153.5 -7.5t147.5 -23.5l124 -29l66 -12q23 -4 32 -5t17 -1h15.5t19.5 2l-59 -205q-35 16 -55.5 26.5t-49.5 22.5q-45 20 -84 33q-66 23 -150.5 36t-156.5 13q-127 0 -243.5 -38t-194.5 -103q-43 -37 -78 -87 t-59.5 -106.5t-39 -118t-14.5 -122.5q0 -72 20.5 -155t51.5 -136q33 -57 86 -103.5t118.5 -79t143.5 -50t160 -17.5t179 14.5t183 38.5q27 6 48.5 13.5t43 15.5t48 18.5t61.5 26.5v-234q-20 6 -31.5 8.5t-25.5 2.5q-8 0 -15.5 -1t-22 -3t-39 -6.5t-65.5 -12.5 q-53 -10 -106 -16t-109 -10q121 -41 121 -156q0 -96 -89 -152.5t-243 -56.5h-32.5t-30.5 2l-86 8q-16 0 -30.5 1t-31.5 1q-25 0 -44 -1t-48 -5l62 150q53 -23 104 -33t111 -10q96 0 150.5 24.5t54.5 69.5q0 66 -146 65q-45 0 -81 -4t-70 -14l45 115q-35 4 -59.5 8t-46 9 t-42 11t-45.5 15q-104 35 -188 96t-142.5 144t-90 183.5t-31.5 215.5z" />
<glyph unicode="&#xc8;" horiz-adv-x="1658" d="M129 0q29 18 44 32.5t32 41.5q27 45 33 98q2 29 4 74t2 86v696q0 156 -19 211q-16 51 -47 88q-10 10 -20.5 18.5t-28.5 20.5h1434q-14 -16 -18.5 -24.5t-4.5 -18.5q0 -4 1 -11t11 -34l45 -137q-39 14 -60 20t-56 15q-37 10 -77 16t-83 10q-68 8 -177.5 12.5t-225.5 4.5 h-480v-406h627h81t49 1t33.5 2t35.5 3q31 4 48 6t48 11l-45 -76q-2 -4 -7 -12.5t-16 -22.5q-8 -10 -14 -18.5t-10 -14.5q-10 -10 -25 -16q-10 -6 -19.5 -7t-43.5 -1h-45h-697v-523h410h151.5t109.5 2.5t91 5.5t96 7q55 4 95.5 9t75 13t70.5 19.5t81 29.5l-41 -120 q-12 -35 -15 -45.5t-3 -20.5q0 -16 4 -25.5t18 -19.5h-1452zM541 1829q0 29 17 45t46 16q80 0 191 -141q35 -41 58.5 -85t27.5 -69q2 -4 2 -10q0 -23 -13.5 -38t-33.5 -15t-44 12t-61 41q-190 152 -190 244z" />
<glyph unicode="&#xc9;" horiz-adv-x="1658" d="M129 0q29 18 44 32.5t32 41.5q27 45 33 98q2 29 4 74t2 86v696q0 156 -19 211q-16 51 -47 88q-10 10 -20.5 18.5t-28.5 20.5h1434q-14 -16 -18.5 -24.5t-4.5 -18.5q0 -4 1 -11t11 -34l45 -137q-39 14 -60 20t-56 15q-37 10 -77 16t-83 10q-68 8 -177.5 12.5t-225.5 4.5 h-480v-406h627h81t49 1t33.5 2t35.5 3q31 4 48 6t48 11l-45 -76q-2 -4 -7 -12.5t-16 -22.5q-8 -10 -14 -18.5t-10 -14.5q-10 -10 -25 -16q-10 -6 -19.5 -7t-43.5 -1h-45h-697v-523h410h151.5t109.5 2.5t91 5.5t96 7q55 4 95.5 9t75 13t70.5 19.5t81 29.5l-41 -120 q-12 -35 -15 -45.5t-3 -20.5q0 -16 4 -25.5t18 -19.5h-1452zM786 1585q0 33 41 98q20 35 48 70t59 66q74 72 133 71q27 0 43 -17t16 -44q0 -76 -116 -182q-10 -10 -27.5 -24.5t-44.5 -37.5q-31 -23 -51.5 -35t-42.5 -16q-4 0 -6 -1t-7 -1q-20 0 -32.5 15.5t-12.5 37.5z" />
<glyph unicode="&#xca;" horiz-adv-x="1658" d="M129 0q29 18 44 32.5t32 41.5q27 45 33 98q2 29 4 74t2 86v696q0 156 -19 211q-16 51 -47 88q-10 10 -20.5 18.5t-28.5 20.5h1434q-14 -16 -18.5 -24.5t-4.5 -18.5q0 -4 1 -11t11 -34l45 -137q-39 14 -60 20t-56 15q-37 10 -77 16t-83 10q-68 8 -177.5 12.5t-225.5 4.5 h-480v-406h627h81t49 1t33.5 2t35.5 3q31 4 48 6t48 11l-45 -76q-2 -4 -7 -12.5t-16 -22.5q-8 -10 -14 -18.5t-10 -14.5q-10 -10 -25 -16q-10 -6 -19.5 -7t-43.5 -1h-45h-697v-523h410h151.5t109.5 2.5t91 5.5t96 7q55 4 95.5 9t75 13t70.5 19.5t81 29.5l-41 -120 q-12 -35 -15 -45.5t-3 -20.5q0 -16 4 -25.5t18 -19.5h-1452zM371 1645l14 -3l21 3l24 12l412 203l415 -195l23 -10q18 -10 31 -10q8 0 14 4l-65 -142q-2 2 -3.5 4t-3.5 5q-6 8 -6 10q-8 8 -14 10l-31 14l-356 166l-350 -168q-10 -4 -16.5 -8t-10.5 -6t-16 -14q-4 -6 -13 -13 z" />
<glyph unicode="&#xcb;" horiz-adv-x="1658" d="M129 0q29 18 44 32.5t32 41.5q27 45 33 98q2 29 4 74t2 86v696q0 156 -19 211q-16 51 -47 88q-10 10 -20.5 18.5t-28.5 20.5h1434q-14 -16 -18.5 -24.5t-4.5 -18.5q0 -4 1 -11t11 -34l45 -137q-39 14 -60 20t-56 15q-37 10 -77 16t-83 10q-68 8 -177.5 12.5t-225.5 4.5 h-480v-406h627h81t49 1t33.5 2t35.5 3q31 4 48 6t48 11l-45 -76q-2 -4 -7 -12.5t-16 -22.5q-8 -10 -14 -18.5t-10 -14.5q-10 -10 -25 -16q-10 -6 -19.5 -7t-43.5 -1h-45h-697v-523h410h151.5t109.5 2.5t91 5.5t96 7q55 4 95.5 9t75 13t70.5 19.5t81 29.5l-41 -120 q-12 -35 -15 -45.5t-3 -20.5q0 -16 4 -25.5t18 -19.5h-1452zM444 1690q0 57 41 97t101 40q57 0 98 -39t41 -94q0 -59 -40 -101.5t-99 -42.5t-100.5 41t-41.5 99zM918 1688q0 57 39.5 98t99.5 41q59 0 99 -41t40 -100q0 -57 -40 -97.5t-97 -40.5q-59 0 -100 41t-41 99z" />
<glyph unicode="&#xcc;" horiz-adv-x="694" d="M53 1829q0 29 17.5 45t46.5 16q80 0 190 -141q35 -41 58.5 -85t27.5 -69q2 -4 2 -10q0 -23 -13 -38t-34 -15q-20 0 -43.5 12t-60.5 41q-190 152 -191 244zM131 0q29 16 46.5 31.5t33.5 44.5q14 25 20.5 48t10.5 52t6 74t2 86v694q0 156 -19 211q-27 84 -100 125h432 q-29 -14 -46 -30.5t-34 -45.5q-27 -47 -32 -102q-4 -29 -5.5 -74t-1.5 -84v-694q0 -78 3.5 -130t13.5 -81q27 -88 102 -125h-432z" />
<glyph unicode="&#xcd;" horiz-adv-x="694" d="M131 0q29 16 46.5 31.5t33.5 44.5q14 25 20.5 48t10.5 52t6 74t2 86v694q0 156 -19 211q-27 84 -100 125h432q-29 -14 -46 -30.5t-34 -45.5q-27 -47 -32 -102q-4 -29 -5.5 -74t-1.5 -84v-694q0 -78 3.5 -130t13.5 -81q27 -88 102 -125h-432zM285 1585q0 33 41 98 q45 76 108 136q72 72 131 71q27 0 44.5 -17t17.5 -44q0 -76 -119 -182q-10 -10 -27.5 -24.5t-44.5 -37.5q-29 -23 -50 -35t-44 -16q-2 0 -4 -1t-6 -1q-20 0 -33.5 15.5t-13.5 37.5z" />
<glyph unicode="&#xce;" horiz-adv-x="894" d="M39 1675h14h21l24 13l342 172l351 -164l20 -10q25 -10 31 -11q2 0 14 4l-65 -141q-2 4 -7 8q-2 2 -2 4t-2 4l-2 2q-8 8 -14 11l-31 14l-287 135l-282 -137q-10 -4 -17.5 -8t-11.5 -6l-14 -15l-12 -12zM231 0q29 16 46.5 31.5t33.5 44.5q27 47 33 100q4 29 5 74t1 86v694 q0 78 -3 130t-13 81q-27 86 -103 125h433q-29 -14 -46.5 -30.5t-33.5 -45.5q-27 -47 -33 -102q-4 -29 -5 -74t-1 -84v-694q0 -156 18 -211q27 -88 101 -125h-433z" />
<glyph unicode="&#xcf;" horiz-adv-x="694" d="M-2 1690q0 57 41 97t100 40q57 0 98.5 -39t41.5 -94q0 -59 -40 -101.5t-100 -42.5q-59 0 -100 41t-41 99zM131 0q29 16 46.5 31.5t33.5 44.5q14 25 20.5 48t10.5 52t6 74t2 86v694q0 156 -19 211q-27 84 -100 125h432q-29 -14 -46 -30.5t-34 -45.5q-27 -47 -32 -102 q-4 -29 -5.5 -74t-1.5 -84v-694q0 -78 3.5 -130t13.5 -81q27 -88 102 -125h-432zM416 1688q0 57 41 98t98 41q59 0 99 -41t40 -100q0 -57 -40 -97.5t-97 -40.5q-59 0 -100 41t-41 99z" />
<glyph unicode="&#xd1;" horiz-adv-x="1845" d="M135 0q29 18 44.5 33.5t31.5 42.5q16 25 22.5 48t10.5 52t6 74t2 86v694q0 156 -19 211q-14 43 -36.5 72.5t-61.5 52.5h451q-8 -10 -10.5 -16.5t-2.5 -14.5q0 -12 5.5 -22t25.5 -37l754 -1028l28 -41l31 -37q-2 12 -3 21.5t-1 15.5v41v782q0 156 -18 211q-14 43 -37 72.5 t-62 52.5h418q-29 -18 -44 -33.5t-32 -42.5q-27 -47 -32 -102q-4 -29 -5.5 -74t-1.5 -84v-878v-56q0 -63 31 -96h-366q12 14 12 31v10q-4 6 -7 12t-7 15q-4 6 -19 24l-764 1045l-24 41l-25 30l6 -39v-32v-801q0 -156 19 -211q8 -23 20 -46.5t29 -39.5q8 -10 16 -17.5 t31 -21.5h-416zM451 1704h4q6 0 12 3t22 19q125 125 246 125q33 0 74 -10q14 -6 26.5 -11t28 -14.5t35 -23.5t49.5 -37q43 -33 73 -46t58 -13q68 0 142 65q35 31 48 49.5t15 40.5l115 -149q-18 0 -31 -12l-41 -37q-68 -61 -131 -94t-119 -33q-37 0 -69 12q-29 10 -57.5 27.5 t-82.5 60.5q-47 37 -76.5 51.5t-64.5 14.5q-39 0 -76 -20.5t-65 -57.5q-18 -20 -19 -43z" />
<glyph unicode="&#xd2;" horiz-adv-x="1761" d="M109 684q0 162 56 292t158.5 222t249 142.5t326.5 50.5q172 0 311.5 -49.5t237.5 -140.5t151.5 -221t53.5 -292t-55.5 -294t-157 -225t-243.5 -143.5t-318 -50.5q-174 0 -315.5 51.5t-243 143.5t-156.5 223t-55 291zM309 684q0 -127 41 -230.5t115 -176t179.5 -112.5 t234.5 -40q133 0 239.5 39t180 112.5t113.5 178t40 235.5q0 125 -40 226.5t-113.5 174t-177 111.5t-230.5 39q-131 0 -237.5 -40t-183.5 -113.5t-119 -176t-42 -227.5zM573 1829q0 29 17.5 45t46.5 16q80 0 190 -141q35 -41 59.5 -85t28.5 -69h-2q2 -4 2 -10q0 -23 -13 -38 t-34 -15q-20 0 -43.5 12t-60.5 41q-190 152 -191 244z" />
<glyph unicode="&#xd3;" horiz-adv-x="1761" d="M109 684q0 162 56 292t158.5 222t249 142.5t326.5 50.5q172 0 311.5 -49.5t237.5 -140.5t151.5 -221t53.5 -292t-55.5 -294t-157 -225t-243.5 -143.5t-318 -50.5q-174 0 -315.5 51.5t-243 143.5t-156.5 223t-55 291zM309 684q0 -127 41 -230.5t115 -176t179.5 -112.5 t234.5 -40q133 0 239.5 39t180 112.5t113.5 178t40 235.5q0 125 -40 226.5t-113.5 174t-177 111.5t-230.5 39q-131 0 -237.5 -40t-183.5 -113.5t-119 -176t-42 -227.5zM846 1585q0 33 41 98q23 35 50.5 70t57.5 66q72 72 131 71q29 0 45.5 -17t16.5 -44q0 -76 -119 -182 q-10 -10 -27.5 -24.5t-44.5 -37.5q-29 -23 -50 -35t-42 -16q-4 0 -6 -1t-6 -1q-20 0 -33.5 15.5t-13.5 37.5z" />
<glyph unicode="&#xd4;" horiz-adv-x="1761" d="M109 684q0 162 56 292t158.5 222t249 142.5t326.5 50.5q172 0 311.5 -49.5t237.5 -140.5t151.5 -221t53.5 -292t-55.5 -294t-157 -225t-243.5 -143.5t-318 -50.5q-174 0 -315.5 51.5t-243 143.5t-156.5 223t-55 291zM309 684q0 -127 41 -230.5t115 -176t179.5 -112.5 t234.5 -40q133 0 239.5 39t180 112.5t113.5 178t40 235.5q0 125 -40 226.5t-113.5 174t-177 111.5t-230.5 39q-131 0 -237.5 -40t-183.5 -113.5t-119 -176t-42 -227.5zM403 1645l15 -3l20 3l25 12l411 203l416 -195l23 -10q18 -10 30 -10q8 0 15 4l-66 -142q-2 2 -3 4t-3 5 q-6 8 -6 10q-8 8 -14 10l-31 14l-356 166l-351 -168q-10 -4 -16 -8t-10 -6q-2 -2 -6 -5t-11 -9q-4 -6 -12 -13z" />
<glyph unicode="&#xd5;" horiz-adv-x="1761" d="M109 684q0 162 56 292t158.5 222t249 142.5t326.5 50.5q172 0 311.5 -49.5t237.5 -140.5t151.5 -221t53.5 -292t-55.5 -294t-157 -225t-243.5 -143.5t-318 -50.5q-174 0 -315.5 51.5t-243 143.5t-156.5 223t-55 291zM309 684q0 -127 41 -230.5t115 -176t179.5 -112.5 t234.5 -40q133 0 239.5 39t180 112.5t113.5 178t40 235.5q0 125 -40 226.5t-113.5 174t-177 111.5t-230.5 39q-131 0 -237.5 -40t-183.5 -113.5t-119 -176t-42 -227.5zM408 1704h2q8 0 13 3t21 19q127 125 248 125q18 0 35.5 -3t36.5 -7q14 -6 27.5 -11t29 -14.5t34.5 -23.5 t48 -37q43 -33 74 -46t59 -13q66 0 140 65q37 31 49 49.5t16 40.5l113 -149q-18 0 -31 -12l-39 -37q-66 -63 -131.5 -95t-120.5 -32q-33 0 -69 12q-29 10 -56.5 27.5t-83.5 60.5q-47 37 -76.5 51.5t-62.5 14.5q-82 0 -143 -78q-18 -20 -19 -43z" />
<glyph unicode="&#xd6;" horiz-adv-x="1761" d="M109 684q0 162 56 292t158.5 222t249 142.5t326.5 50.5q172 0 311.5 -49.5t237.5 -140.5t151.5 -221t53.5 -292t-55.5 -294t-157 -225t-243.5 -143.5t-318 -50.5q-174 0 -315.5 51.5t-243 143.5t-156.5 223t-55 291zM309 684q0 -127 41 -230.5t115 -176t179.5 -112.5 t234.5 -40q133 0 239.5 39t180 112.5t113.5 178t40 235.5q0 125 -40 226.5t-113.5 174t-177 111.5t-230.5 39q-131 0 -237.5 -40t-183.5 -113.5t-119 -176t-42 -227.5zM506 1690q0 57 40 97t99 40t99 -39t40 -94q0 -59 -39.5 -101.5t-99.5 -42.5q-57 0 -98 41t-41 99z M977 1688q0 57 41 98t98 41q59 0 99 -41t40 -100q0 -57 -39.5 -97.5t-97.5 -40.5q-59 0 -100 41t-41 99z" />
<glyph unicode="&#xd7;" horiz-adv-x="1124" d="M117 129l356 354l-356 355l90 90l356 -355l355 353l90 -88l-357 -355l357 -354l-90 -90l-355 356l-356 -356z" />
<glyph unicode="&#xd8;" horiz-adv-x="1761" d="M109 684q0 160 55 291t158.5 223t249 142.5t323.5 50.5q219 0 387 -78l29 39q29 39 37 54t8 32q0 18 -23 35h277q-14 -8 -24.5 -14.5t-18.5 -12.5q-23 -16 -47.5 -44t-69.5 -85l-27 -35l-28 -37q258 -199 258 -561q0 -160 -55.5 -291t-157 -224t-243.5 -143.5t-316 -50.5 q-111 0 -206 20.5t-188 61.5l-16 -22l-27 -33l-41 -55q-12 -16 -12 -31q0 -14 17 -37h-254q25 12 39 25q23 16 56.5 54t78.5 97l37 49l14 17q-41 31 -61.5 50t-47.5 50q-78 92 -119.5 210t-41.5 253zM309 684q0 -98 25.5 -184t73.5 -154q16 -25 29.5 -40t41.5 -42l703 912 q-70 35 -139.5 50t-153.5 15q-129 0 -236.5 -40t-183.5 -113.5t-118 -176t-42 -227.5zM586 190q131 -66 295 -65q131 0 236.5 39t180 112.5t114.5 177t40 232.5q0 133 -39 231.5t-125 182.5z" />
<glyph unicode="&#xd9;" horiz-adv-x="1804" d="M123 1366h422q-29 -16 -45.5 -31.5t-32.5 -44.5q-27 -47 -33 -102q-4 -29 -5 -74t-1 -84v-383q0 -72 3 -125t10.5 -93t20.5 -71.5t34 -62.5q53 -84 164.5 -130t259.5 -46q174 0 301 76q70 41 118 118q16 27 26.5 53.5t15.5 64.5t7.5 92.5t2.5 140.5v366q0 156 -19 211 q-31 92 -102 125h422q-29 -16 -44.5 -31.5t-31.5 -44.5q-16 -25 -22.5 -49t-10.5 -53q-2 -29 -5 -74t-3 -84v-383v-87t-2 -77q-6 -104 -34 -181t-81 -138q-80 -90 -220 -139.5t-320 -49.5q-330 0 -510 150q-96 82 -136 192q-10 29 -16 59t-9 67.5t-5 87t-2 116.5v383 q0 152 -17 211q-27 84 -100 125zM600 1829q0 29 17.5 45t46.5 16q82 0 192 -141q33 -41 57.5 -85t28.5 -69v-10q0 -23 -12 -38t-33 -15q-23 0 -46.5 12t-59.5 41q-190 152 -191 244z" />
<glyph unicode="&#xda;" horiz-adv-x="1804" d="M123 1366h422q-29 -16 -45.5 -31.5t-32.5 -44.5q-27 -47 -33 -102q-4 -29 -5 -74t-1 -84v-383q0 -72 3 -125t10.5 -93t20.5 -71.5t34 -62.5q53 -84 164.5 -130t259.5 -46q174 0 301 76q70 41 118 118q16 27 26.5 53.5t15.5 64.5t7.5 92.5t2.5 140.5v366q0 156 -19 211 q-31 92 -102 125h422q-29 -16 -44.5 -31.5t-31.5 -44.5q-16 -25 -22.5 -49t-10.5 -53q-2 -29 -5 -74t-3 -84v-383v-87t-2 -77q-6 -104 -34 -181t-81 -138q-80 -90 -220 -139.5t-320 -49.5q-330 0 -510 150q-96 82 -136 192q-10 29 -16 59t-9 67.5t-5 87t-2 116.5v383 q0 152 -17 211q-27 84 -100 125zM872 1585q0 14 11.5 40t29.5 58q23 35 50.5 70t58.5 66q74 72 133 71q27 0 43 -17t16 -44q0 -76 -118 -182q-10 -10 -27.5 -24.5t-44.5 -37.5q-29 -23 -50.5 -35t-41.5 -16q-4 0 -6 -1t-6 -1q-20 0 -34 15.5t-14 37.5z" />
<glyph unicode="&#xdb;" horiz-adv-x="1804" d="M123 1366h422q-29 -16 -45.5 -31.5t-32.5 -44.5q-27 -47 -33 -102q-4 -29 -5 -74t-1 -84v-383q0 -72 3 -125t10.5 -93t20.5 -71.5t34 -62.5q53 -84 164.5 -130t259.5 -46q174 0 301 76q70 41 118 118q16 27 26.5 53.5t15.5 64.5t7.5 92.5t2.5 140.5v366q0 156 -19 211 q-31 92 -102 125h422q-29 -16 -44.5 -31.5t-31.5 -44.5q-16 -25 -22.5 -49t-10.5 -53q-2 -29 -5 -74t-3 -84v-383v-87t-2 -77q-6 -104 -34 -181t-81 -138q-80 -90 -220 -139.5t-320 -49.5q-330 0 -510 150q-96 82 -136 192q-10 29 -16 59t-9 67.5t-5 87t-2 116.5v383 q0 152 -17 211q-27 84 -100 125zM430 1645l14 -3l23 3l22 12l412 203l418 -195l20 -10q18 -10 31 -10q8 0 14 4l-65 -142q-4 4 -4 9q-8 12 -8 10q-8 8 -15 10l-30 14l-357 166l-350 -168q-10 -4 -16.5 -8t-10.5 -6q-2 -2 -6 -5t-10 -9q-4 -6 -12 -13z" />
<glyph unicode="&#xdc;" horiz-adv-x="1804" d="M123 1366h422q-29 -16 -45.5 -31.5t-32.5 -44.5q-27 -47 -33 -102q-4 -29 -5 -74t-1 -84v-383q0 -72 3 -125t10.5 -93t20.5 -71.5t34 -62.5q53 -84 164.5 -130t259.5 -46q174 0 301 76q70 41 118 118q16 27 26.5 53.5t15.5 64.5t7.5 92.5t2.5 140.5v366q0 156 -19 211 q-31 92 -102 125h422q-29 -16 -44.5 -31.5t-31.5 -44.5q-16 -25 -22.5 -49t-10.5 -53q-2 -29 -5 -74t-3 -84v-383v-87t-2 -77q-6 -104 -34 -181t-81 -138q-80 -90 -220 -139.5t-320 -49.5q-330 0 -510 150q-96 82 -136 192q-10 29 -16 59t-9 67.5t-5 87t-2 116.5v383 q0 152 -17 211q-27 84 -100 125zM532 1690q0 57 41 97t99 40q59 0 99 -39t40 -94q0 -59 -40 -101.5t-97 -42.5q-59 0 -100.5 41t-41.5 99zM1004 1688q0 57 40.5 98t100.5 41q57 0 97 -41t40 -100q0 -57 -40 -97.5t-97 -40.5q-59 0 -100 41t-41 99z" />
<glyph unicode="&#xdf;" horiz-adv-x="1265" d="M143 -285q8 12 12.5 22.5t6.5 26t3 38t1 59.5v850v108t4 90q6 111 44 202t103 157q66 68 155 98.5t216 30.5q100 0 182 -27t139.5 -75t89 -116.5t31.5 -152.5q0 -104 -44 -174t-142 -123q111 -41 169 -132t58 -222q0 -92 -28.5 -167t-79.5 -128t-125 -82t-162 -29h-23.5 t-21.5 1t-31.5 2t-50.5 5l-61 7q-10 2 -19.5 2h-13.5h-11t-16 -4v196l21 -10q61 -31 106 -46.5t101 -15.5q111 0 172 69t61 192q0 90 -29.5 151.5t-87.5 87.5q-23 10 -47 16.5t-51 10.5q-16 2 -30.5 3t-30 2t-37 1h-51.5q-41 0 -60.5 -4t-36.5 -19v172q23 -10 41.5 -14 t65.5 -4q160 0 236.5 57.5t76.5 178.5q0 117 -72.5 185.5t-195.5 68.5q-78 0 -144.5 -30t-109.5 -87q-37 -45 -59 -123q-8 -29 -13.5 -56.5t-8.5 -62.5t-4 -80t-1 -108v-852v-46.5v-27.5t1 -16.5t1 -12.5q2 -14 5 -22t11 -21h-215z" />
<glyph unicode="&#xe0;" horiz-adv-x="1329" d="M74 268q0 80 38 138.5t119.5 98.5t209.5 61.5t307 27.5l235 8l25 2q0 12 1 21.5t1 15.5q0 211 -314 211q-66 0 -139.5 -9t-145 -24.5t-137 -37t-116.5 -48.5l80 242q16 -14 31.5 -18.5t47.5 -4.5q16 0 41 2t50 7l131 16l82 8t84 4q182 0 292 -45q74 -29 125 -94 q18 -25 29.5 -48.5t19 -53t9.5 -68.5t2 -94v-25v-129v-151q0 -27 2 -52.5t6 -48.5t9 -39t12.5 -32.5t18.5 -34t27 -39.5l25 -35h-111q-39 0 -61.5 12.5t-46.5 53.5l-16 26q-39 -31 -62.5 -45t-58.5 -27q-66 -23 -153 -37t-179 -14q-256 0 -388 76t-132 223zM254 264 q0 -76 88 -117t252 -41q221 0 320.5 76t99.5 242v45h-47q-35 0 -71 -1t-77 -3q-162 -10 -264 -23.5t-182 -42.5q-119 -41 -119 -135zM395 1448q0 27 17.5 43t46.5 16q84 0 192 -139q33 -43 57.5 -87t28.5 -69v-8q0 -23 -12 -38t-33 -15q-23 0 -46 12.5t-60 40.5 q-190 147 -191 244z" />
<glyph unicode="&#xe1;" horiz-adv-x="1329" d="M74 268q0 80 38 138.5t119.5 98.5t209.5 61.5t307 27.5l235 8l25 2q0 12 1 21.5t1 15.5q0 211 -314 211q-66 0 -139.5 -9t-145 -24.5t-137 -37t-116.5 -48.5l80 242q16 -14 31.5 -18.5t47.5 -4.5q16 0 41 2t50 7l131 16l82 8t84 4q182 0 292 -45q74 -29 125 -94 q18 -25 29.5 -48.5t19 -53t9.5 -68.5t2 -94v-25v-129v-151q0 -27 2 -52.5t6 -48.5t9 -39t12.5 -32.5t18.5 -34t27 -39.5l25 -35h-111q-39 0 -61.5 12.5t-46.5 53.5l-16 26q-39 -31 -62.5 -45t-58.5 -27q-66 -23 -153 -37t-179 -14q-256 0 -388 76t-132 223zM254 264 q0 -76 88 -117t252 -41q221 0 320.5 76t99.5 242v45h-47q-35 0 -71 -1t-77 -3q-162 -10 -264 -23.5t-182 -42.5q-119 -41 -119 -135zM614 1202q0 33 41 98q39 70 107 138q39 39 69.5 54t63.5 15q27 0 43 -17t16 -44q0 -72 -116 -182q-10 -10 -27.5 -23.5t-44.5 -36.5 q-31 -25 -51.5 -37t-42.5 -16h-13q-20 0 -32.5 14.5t-12.5 36.5z" />
<glyph unicode="&#xe2;" horiz-adv-x="1329" d="M74 268q0 80 38 138.5t119.5 98.5t209.5 61.5t307 27.5l235 8l25 2q0 12 1 21.5t1 15.5q0 211 -314 211q-66 0 -139.5 -9t-145 -24.5t-137 -37t-116.5 -48.5l80 242q16 -14 31.5 -18.5t47.5 -4.5q16 0 41 2t50 7l131 16l82 8t84 4q182 0 292 -45q74 -29 125 -94 q18 -25 29.5 -48.5t19 -53t9.5 -68.5t2 -94v-25v-129v-151q0 -27 2 -52.5t6 -48.5t9 -39t12.5 -32.5t18.5 -34t27 -39.5l25 -35h-111q-39 0 -61.5 12.5t-46.5 53.5l-16 26q-39 -31 -62.5 -45t-58.5 -27q-66 -23 -153 -37t-179 -14q-256 0 -388 76t-132 223zM199 1262h14h20 l25 12l412 205l415 -197l23 -10l17.5 -7t13.5 -3q2 0 14 4l-66 -142q-2 4 -6 9q-4 4 -4 8l-2 2q-8 8 -14 10l-31 14l-356 166l-350 -168q-10 -4 -16.5 -8t-10.5 -6t-16 -14l-13 -13zM254 264q0 -76 88 -117t252 -41q221 0 320.5 76t99.5 242v45h-47q-35 0 -71 -1t-77 -3 q-162 -10 -264 -23.5t-182 -42.5q-119 -41 -119 -135z" />
<glyph unicode="&#xe3;" horiz-adv-x="1329" d="M74 268q0 80 38 138.5t119.5 98.5t209.5 61.5t307 27.5l235 8l25 2q0 12 1 21.5t1 15.5q0 211 -314 211q-66 0 -139.5 -9t-145 -24.5t-137 -37t-116.5 -48.5l80 242q16 -14 31.5 -18.5t47.5 -4.5q16 0 41 2t50 7l131 16l82 8t84 4q182 0 292 -45q74 -29 125 -94 q18 -25 29.5 -48.5t19 -53t9.5 -68.5t2 -94v-25v-129v-151q0 -27 2 -52.5t6 -48.5t9 -39t12.5 -32.5t18.5 -34t27 -39.5l25 -35h-111q-39 0 -61.5 12.5t-46.5 53.5l-16 26q-39 -31 -62.5 -45t-58.5 -27q-66 -23 -153 -37t-179 -14q-256 0 -388 76t-132 223zM203 1307h2 q8 0 13 4t22 20q131 125 247 125q35 0 72 -12q14 -4 27.5 -9t29 -14.5t35 -24t47.5 -36.5q43 -33 73 -46.5t58 -13.5q68 0 142 66q37 31 49 49.5t16 40.5l113 -149q-18 0 -31 -13l-41 -37q-70 -61 -132 -94t-118 -33q-37 0 -69 13q-29 10 -56.5 27.5t-83.5 60.5 q-47 37 -76.5 51t-64.5 14q-80 0 -141 -77q-10 -14 -14.5 -22.5t-4.5 -22.5zM254 264q0 -76 88 -117t252 -41q221 0 320.5 76t99.5 242v45h-47q-35 0 -71 -1t-77 -3q-162 -10 -264 -23.5t-182 -42.5q-119 -41 -119 -135z" />
<glyph unicode="&#xe4;" horiz-adv-x="1329" d="M74 268q0 80 38 138.5t119.5 98.5t209.5 61.5t307 27.5l235 8l25 2q0 12 1 21.5t1 15.5q0 211 -314 211q-66 0 -139.5 -9t-145 -24.5t-137 -37t-116.5 -48.5l80 242q16 -14 31.5 -18.5t47.5 -4.5q16 0 41 2t50 7l131 16l82 8t84 4q182 0 292 -45q74 -29 125 -94 q18 -25 29.5 -48.5t19 -53t9.5 -68.5t2 -94v-25v-129v-151q0 -27 2 -52.5t6 -48.5t9 -39t12.5 -32.5t18.5 -34t27 -39.5l25 -35h-111q-39 0 -61.5 12.5t-46.5 53.5l-16 26q-39 -31 -62.5 -45t-58.5 -27q-66 -23 -153 -37t-179 -14q-256 0 -388 76t-132 223zM254 264 q0 -76 88 -117t252 -41q221 0 320.5 76t99.5 242v45h-47q-35 0 -71 -1t-77 -3q-162 -10 -264 -23.5t-182 -42.5q-119 -41 -119 -135zM301 1307q0 59 40 99t99 40t99.5 -40t40.5 -95q0 -59 -40 -101.5t-100 -42.5q-57 0 -98 41t-41 99zM772 1307q0 57 41 97t98 40 q59 0 99.5 -41t40.5 -100q0 -57 -40 -96.5t-98 -39.5q-59 0 -100 40t-41 100z" />
<glyph unicode="&#xe5;" horiz-adv-x="1329" d="M74 268q0 80 38 138.5t119.5 98.5t209.5 61.5t307 27.5l235 8l25 2q0 12 1 21.5t1 15.5q0 211 -314 211q-66 0 -139.5 -9t-145 -24.5t-137 -37t-116.5 -48.5l80 242q16 -14 31.5 -18.5t47.5 -4.5q16 0 41 2t50 7l131 16l82 8t84 4q182 0 292 -45q74 -29 125 -94 q18 -25 29.5 -48.5t19 -53t9.5 -68.5t2 -94v-25v-129v-151q0 -27 2 -52.5t6 -48.5t9 -39t12.5 -32.5t18.5 -34t27 -39.5l25 -35h-111q-39 0 -61.5 12.5t-46.5 53.5l-16 26q-39 -31 -62.5 -45t-58.5 -27q-66 -23 -153 -37t-179 -14q-256 0 -388 76t-132 223zM254 264 q0 -76 88 -117t252 -41q221 0 320.5 76t99.5 242v45h-47q-35 0 -71 -1t-77 -3q-162 -10 -264 -23.5t-182 -42.5q-119 -41 -119 -135zM465 1315q0 43 16.5 82t45 67.5t67.5 45t82 16.5t82 -16.5t67.5 -45t45 -67.5t16.5 -82t-16.5 -82t-45 -67.5t-67.5 -45t-82 -16.5 t-82 16.5t-67.5 46t-45 67.5t-16.5 81zM567 1315q0 -45 32 -77t77 -32t76.5 32t31.5 77q0 47 -30.5 77.5t-75.5 30.5q-47 0 -79 -31.5t-32 -76.5z" />
<glyph unicode="&#xe6;" horiz-adv-x="2134" d="M74 260q0 70 31.5 128t89.5 93q35 23 74.5 38.5t86.5 27.5q51 12 102.5 21.5t115 16.5t143.5 12t188 11l41 2v8q0 233 -289 234q-61 0 -132.5 -9t-142.5 -26.5t-135.5 -40t-113.5 -49.5l78 244q16 -10 30.5 -14.5t41.5 -4.5q23 0 51 2t72 9l141 18q31 4 61.5 6t61.5 2 q154 0 246 -42t139 -128q29 29 48 45.5t48 32.5q72 45 165 68.5t195 23.5q289 0 428 -158q29 -33 48.5 -70.5t32 -90t18.5 -122t10 -163.5q-18 10 -31.5 12t-52.5 2h-834v-16q0 -135 102.5 -206t295.5 -71q96 0 165.5 10.5t151.5 39.5q45 14 71 26.5t64 34.5v-217 q-12 10 -21 13t-26 3q-16 0 -37.5 -3t-80.5 -13q-35 -6 -62 -9t-43 -7q-51 -6 -101 -10.5t-98 -4.5q-176 0 -287.5 43t-195.5 142q-84 -94 -206 -139.5t-296 -45.5q-221 0 -336.5 75t-115.5 216zM256 258q0 -74 71.5 -113t207.5 -39q102 0 184 23t135 64q49 41 71.5 102 t22.5 162v20l-28 -2l-129 -2q-72 -2 -159 -14.5t-161 -30.5q-215 -53 -215 -170zM1133 535h743l-2 26q-23 291 -361 291q-180 0 -278 -82t-102 -235z" />
<glyph unicode="&#xe7;" horiz-adv-x="1226" d="M96 473q0 117 43 212t123 162.5t191.5 104.5t251.5 37q100 0 241 -18l107 -15q39 -6 67 -6q12 0 22.5 1t26.5 5l-51 -184l-33 10q-61 18 -109 31.5t-90 22t-83 12.5t-86 4q-209 0 -323.5 -98.5t-114.5 -276.5q0 -176 113.5 -273.5t318.5 -97.5q119 0 230.5 27t209.5 76 v-203q-10 10 -17.5 12t-17.5 2t-23.5 -3t-35.5 -7q-31 -6 -55.5 -11t-48 -9t-49 -7t-58.5 -6q125 -43 125 -147q0 -182 -285 -182h-48.5t-57.5 4q-39 4 -52.5 5t-35.5 1q-41 0 -58.5 -2t-40.5 -6l53 131q51 -14 114 -23.5t112 -9.5q72 0 111.5 18.5t39.5 53.5q0 70 -141 69 q-39 0 -65.5 -4t-59.5 -16l43 106q-244 31 -374 159t-130 339z" />
<glyph unicode="&#xe8;" horiz-adv-x="1382" d="M94 465q0 121 43 218t123 164.5t194.5 104.5t256.5 37q147 0 265 -43t198 -129q33 -35 55 -69.5t36.5 -79.5t20.5 -105.5t10 -146.5v-35q-16 12 -31.5 16t-43.5 4h-47h-895q4 -141 120.5 -218t333.5 -77q141 0 263 30t235 91v-223q-27 18 -49 19h-16.5t-18.5 -5 q-55 -10 -68 -12q-10 -2 -26.5 -4t-42.5 -6q-51 -8 -87 -13.5t-66 -8.5t-56.5 -4t-59.5 -1q-88 0 -172 11.5t-147 29.5q-154 47 -241 167t-87 288zM276 537h836q-8 147 -117.5 231t-294.5 84q-115 0 -203.5 -35t-148.5 -102q-29 -35 -45 -76t-27 -102zM414 1448 q0 27 17.5 43t45.5 16q82 0 191 -139q33 -43 57.5 -87t28.5 -69v-8q0 -23 -12.5 -38t-32.5 -15q-23 0 -45.5 12.5t-59.5 40.5q-190 147 -190 244z" />
<glyph unicode="&#xe9;" horiz-adv-x="1382" d="M94 465q0 121 43 218t123 164.5t194.5 104.5t256.5 37q147 0 265 -43t198 -129q33 -35 55 -69.5t36.5 -79.5t20.5 -105.5t10 -146.5v-35q-16 12 -31.5 16t-43.5 4h-47h-895q4 -141 120.5 -218t333.5 -77q141 0 263 30t235 91v-223q-27 18 -49 19h-16.5t-18.5 -5 q-55 -10 -68 -12q-10 -2 -26.5 -4t-42.5 -6q-51 -8 -87 -13.5t-66 -8.5t-56.5 -4t-59.5 -1q-88 0 -172 11.5t-147 29.5q-154 47 -241 167t-87 288zM276 537h836q-8 147 -117.5 231t-294.5 84q-115 0 -203.5 -35t-148.5 -102q-29 -35 -45 -76t-27 -102zM631 1202q0 33 41 98 q45 74 108 138q37 37 68 53t63 16q27 0 44.5 -17t17.5 -44q0 -74 -119 -182q-10 -10 -27.5 -23.5t-44.5 -36.5q-29 -25 -50 -37t-44 -16h-10q-20 0 -33.5 14.5t-13.5 36.5z" />
<glyph unicode="&#xea;" horiz-adv-x="1382" d="M94 465q0 121 43 218t123 164.5t194.5 104.5t256.5 37q147 0 265 -43t198 -129q33 -35 55 -69.5t36.5 -79.5t20.5 -105.5t10 -146.5v-35q-16 12 -31.5 16t-43.5 4h-47h-895q4 -141 120.5 -218t333.5 -77q141 0 263 30t235 91v-223q-27 18 -49 19h-16.5t-18.5 -5 q-55 -10 -68 -12q-10 -2 -26.5 -4t-42.5 -6q-51 -8 -87 -13.5t-66 -8.5t-56.5 -4t-59.5 -1q-88 0 -172 11.5t-147 29.5q-154 47 -241 167t-87 288zM215 1262h14h23l22 12l412 205l418 -197l20 -10q25 -10 31 -10q2 0 14 4l-65 -142q-4 8 -4 9q-2 2 -3 4t-3 4l-2 2 q-8 8 -15 10l-30 14l-357 166l-350 -168q-10 -4 -16.5 -8t-10.5 -6q-2 -2 -6 -5t-10 -9l-12 -13zM276 537h836q-8 147 -117.5 231t-294.5 84q-115 0 -203.5 -35t-148.5 -102q-29 -35 -45 -76t-27 -102z" />
<glyph unicode="&#xeb;" horiz-adv-x="1382" d="M94 465q0 121 43 218t123 164.5t194.5 104.5t256.5 37q147 0 265 -43t198 -129q33 -35 55 -69.5t36.5 -79.5t20.5 -105.5t10 -146.5v-35q-16 12 -31.5 16t-43.5 4h-47h-895q4 -141 120.5 -218t333.5 -77q141 0 263 30t235 91v-223q-27 18 -49 19h-16.5t-18.5 -5 q-55 -10 -68 -12q-10 -2 -26.5 -4t-42.5 -6q-51 -8 -87 -13.5t-66 -8.5t-56.5 -4t-59.5 -1q-88 0 -172 11.5t-147 29.5q-154 47 -241 167t-87 288zM276 537h836q-8 147 -117.5 231t-294.5 84q-115 0 -203.5 -35t-148.5 -102q-29 -35 -45 -76t-27 -102zM317 1307q0 59 41 99 t101 40q57 0 97 -40t40 -95q0 -59 -40 -101.5t-97 -42.5q-59 0 -100.5 41t-41.5 99zM788 1307q0 57 41 97t101 40q57 0 98 -41t41 -100q0 -57 -41 -96.5t-98 -39.5q-59 0 -100.5 40t-41.5 100z" />
<glyph unicode="&#xec;" horiz-adv-x="516" d="M-2 1448q0 27 17.5 43t45.5 16q82 0 191 -139q35 -43 59.5 -87t28.5 -69h-2q2 -2 2 -8q0 -23 -13.5 -38t-33.5 -15t-44 12.5t-61 40.5q-190 147 -190 244zM80 0q51 41 70.5 97.5t19.5 162.5v436q0 106 -19.5 162.5t-70.5 97.5h287q-16 -20 -19.5 -37.5t-3.5 -62.5v-596 q0 -106 20.5 -163.5t71.5 -96.5h-356z" />
<glyph unicode="&#xed;" horiz-adv-x="514" d="M80 0q51 41 70.5 97.5t19.5 162.5v436q0 106 -19.5 162.5t-70.5 97.5h287q-16 -20 -19.5 -37.5t-3.5 -62.5v-596q0 -106 20.5 -163.5t71.5 -96.5h-356zM168 1202q0 33 41 98q23 35 50.5 70t57.5 68q37 37 69 53t63 16q29 0 45 -17t16 -44q0 -74 -119 -182 q-10 -10 -27.5 -23.5t-44.5 -36.5q-29 -25 -50 -37t-42 -16h-12q-20 0 -33.5 14.5t-13.5 36.5z" />
<glyph unicode="&#xee;" horiz-adv-x="514" d="M-4 1354h12h21l22 12l201 104l205 -98l20 -8l17.5 -7t11.5 -3q2 0 14 4l-63 -135l-4 8q-6 10 -9 10q-4 8 -12 10l-29 13l-147 69l-141 -71q-25 -10 -27 -13l-14 -14l-13 -12zM80 0q51 41 70.5 97.5t19.5 162.5v436q0 106 -19.5 162.5t-70.5 97.5h287q-14 -20 -18.5 -37.5 t-4.5 -62.5v-596q0 -106 20.5 -163.5t71.5 -96.5h-356z" />
<glyph unicode="&#xef;" horiz-adv-x="514" d="M-8 1307q0 47 32.5 78.5t79.5 31.5q45 0 77 -31.5t32 -76.5q0 -47 -30.5 -80t-78.5 -33q-47 0 -79.5 32t-32.5 79zM80 0q51 41 70.5 97.5t19.5 162.5v436q0 106 -19.5 162.5t-70.5 97.5h287q-16 -20 -19.5 -37.5t-3.5 -62.5v-596q0 -106 20.5 -163.5t71.5 -96.5h-356z M301 1307q0 45 32 76.5t79 31.5t78.5 -31.5t31.5 -78.5t-30.5 -78t-77.5 -31t-80 32t-33 79z" />
<glyph unicode="&#xf1;" horiz-adv-x="1419" d="M80 0q51 37 71.5 95.5t20.5 164.5v436q0 106 -20.5 164t-71.5 96h176q49 0 72 25v-162q20 18 36.5 30.5t30 22t26.5 16.5t30 17q72 41 164 62.5t188 21.5q225 0 348 -110q49 -43 82 -119q8 -23 15 -47.5t10.5 -54t5.5 -67.5t2 -89v-242q0 -53 4 -91t14 -68.5t27.5 -54 t44.5 -46.5h-355q51 41 71 97.5t20 162.5v268q0 88 -10.5 139.5t-39.5 88.5q-70 96 -254 96q-213 0 -352 -117q-29 -25 -46 -47t-27.5 -50t-14.5 -64.5t-4 -88.5v-225q0 -102 20.5 -160.5t73.5 -99.5h-358zM238 1307h2q8 0 13 4t21 20q131 125 248 125q37 0 72 -12 q14 -4 27.5 -9t29 -14.5t35 -24t47.5 -36.5q45 -33 75 -46.5t58 -13.5q63 0 142 66q35 31 48 49.5t15 40.5l115 -149q-18 0 -33 -13l-39 -37q-137 -127 -250 -127q-37 0 -69 13q-31 10 -58.5 27.5t-81.5 60.5q-47 37 -77.5 51t-63.5 14q-82 0 -143 -77q-10 -14 -13.5 -22.5 t-3.5 -22.5z" />
<glyph unicode="&#xf2;" horiz-adv-x="1415" d="M94 483q0 242 161 374t454 132t452.5 -133t159.5 -375t-163 -377t-453 -135q-293 0 -452 133.5t-159 380.5zM276 483q0 -70 16.5 -129t49.5 -100q51 -68 149.5 -108t219.5 -40q199 0 310.5 94.5t117.5 268.5v20q0 174 -112 268.5t-316 94.5q-207 0 -321 -96.5 t-114 -272.5zM428 1448q0 27 17.5 43t46.5 16q82 0 190 -139q35 -43 58.5 -87t27.5 -69q2 -2 2 -8q0 -23 -13.5 -38t-33.5 -15t-44 12.5t-61 40.5q-190 147 -190 244z" />
<glyph unicode="&#xf3;" horiz-adv-x="1415" d="M94 483q0 242 161 374t454 132t452.5 -133t159.5 -375t-163 -377t-453 -135q-293 0 -452 133.5t-159 380.5zM276 483q0 -70 16.5 -129t49.5 -100q51 -68 149.5 -108t219.5 -40q199 0 310.5 94.5t117.5 268.5v20q0 174 -112 268.5t-316 94.5q-207 0 -321 -96.5 t-114 -272.5zM645 1202q0 16 11.5 41t31.5 57q39 70 107 138q39 39 69.5 54t63.5 15q27 0 43 -17t16 -44q0 -74 -119 -182q-10 -10 -27.5 -23.5t-43.5 -36.5q-29 -25 -50.5 -37t-41.5 -16h-13q-20 0 -33.5 14.5t-13.5 36.5z" />
<glyph unicode="&#xf4;" horiz-adv-x="1415" d="M94 483q0 242 161 374t454 132t452.5 -133t159.5 -375t-163 -377t-453 -135q-293 0 -452 133.5t-159 380.5zM229 1262h15h22l23 12l413 205l416 -197l23 -10q20 -10 30 -10q4 0 6.5 1t8.5 3l-66 -142q-4 4 -4 5t-2 4q-6 10 -8 10q-2 6 -12 10l-31 14l-356 166l-353 -168 q-10 -4 -16 -8t-10 -6l-15 -14q-6 -4 -12 -13zM276 483q0 -70 16.5 -129t49.5 -100q51 -68 149.5 -108t219.5 -40q199 0 310.5 94.5t117.5 268.5v20q0 174 -112 268.5t-316 94.5q-207 0 -321 -96.5t-114 -272.5z" />
<glyph unicode="&#xf5;" horiz-adv-x="1415" d="M94 483q0 242 161 374t454 132t452.5 -133t159.5 -375t-163 -377t-453 -135q-293 0 -452 133.5t-159 380.5zM233 1307h5q6 0 11 4t21 20q131 125 248 125q37 0 72 -12q14 -4 27.5 -9t29 -14.5t34.5 -24t50 -36.5q43 -33 73 -46.5t58 -13.5q68 0 142 66q35 31 48 49.5 t15 40.5l115 -149q-18 0 -33 -13l-39 -37q-137 -127 -250 -127q-37 0 -69 13q-29 10 -57.5 27.5t-82.5 60.5q-47 37 -76.5 51t-64.5 14q-39 0 -77 -20.5t-66 -56.5q-10 -14 -13.5 -22.5t-3.5 -22.5zM276 483q0 -70 16.5 -129t49.5 -100q51 -68 149.5 -108t219.5 -40 q199 0 310.5 94.5t117.5 268.5v20q0 174 -112 268.5t-316 94.5q-207 0 -321 -96.5t-114 -272.5z" />
<glyph unicode="&#xf6;" horiz-adv-x="1415" d="M94 483q0 242 161 374t454 132t452.5 -133t159.5 -375t-163 -377t-453 -135q-293 0 -452 133.5t-159 380.5zM276 483q0 -70 16.5 -129t49.5 -100q51 -68 149.5 -108t219.5 -40q199 0 310.5 94.5t117.5 268.5v20q0 174 -112 268.5t-316 94.5q-207 0 -321 -96.5 t-114 -272.5zM332 1307q0 59 41 99t100 40q57 0 98 -40t41 -95q0 -59 -40 -101.5t-99 -42.5t-100 41t-41 99zM805 1307q0 57 40 97t99 40t99 -41t40 -100q0 -57 -39.5 -96.5t-97.5 -39.5q-59 0 -100 40t-41 100z" />
<glyph unicode="&#xf7;" d="M68 604v162h888v-162h-888zM399 317q0 47 33 80t80 33t79 -33t32 -80t-32 -79.5t-79 -32.5t-80 32.5t-33 79.5zM399 1053q0 47 33 79.5t80 32.5t79 -32.5t32 -79.5t-32 -80t-79 -33t-80 33t-33 80z" />
<glyph unicode="&#xf8;" horiz-adv-x="1415" d="M94 483q0 242 161 374t454 132q80 0 145.5 -10t138.5 -33l19 19q23 23 31 41t8 32q0 12 -17 27h232q-29 -16 -42.5 -28.5t-35.5 -41.5l-66 -82l-16 -20q41 -27 59.5 -42t40.5 -40q115 -125 115 -330q0 -242 -162 -377t-452 -135q-76 0 -140.5 9.5t-132.5 29.5l-10 -12 l-10 -14q-27 -35 -35 -49.5t-8 -24.5q0 -14 10 -29h-231q33 18 48 29.5t27 28.5l60 75l16 23l18 22q-117 72 -171 174.5t-54 251.5zM276 483q0 -141 66 -229q14 -20 27.5 -32.5t42.5 -33.5l495 633q-55 16 -101 23.5t-99 7.5q-205 0 -318 -97.5t-113 -271.5zM526 135 q47 -16 90 -22.5t97 -6.5q203 0 314.5 101.5t111.5 281.5q0 92 -29 157t-92 118z" />
<glyph unicode="&#xf9;" horiz-adv-x="1411" d="M70 956h280q-12 -14 -15 -25t-3 -46v-41v-422q0 -86 13 -138.5t46 -88.5q37 -41 106.5 -65t157.5 -24q98 0 186.5 26t153.5 73q37 27 60 69q8 12 12 26.5t7 33t4 44t1 64.5v254q0 53 -4 91t-14 68t-27.5 53.5t-44.5 47.5h287q-16 -16 -19.5 -30.5t-3.5 -57.5v-620v-25.5 t4 -38.5q2 -35 7 -57q12 -66 63 -127h-117q-59 0 -81.5 25.5t-26.5 95.5q-82 -76 -194.5 -114t-264.5 -38q-248 0 -375 107q-59 49 -83.5 130t-24.5 216v274q0 104 -19 158q-10 33 -25.5 53.5t-45.5 48.5zM426 1448q0 27 17.5 43t45.5 16q82 0 191 -139q35 -43 59.5 -87 t28.5 -69v-8q0 -23 -12.5 -38t-34.5 -15q-20 0 -44 12.5t-61 40.5q-190 147 -190 244z" />
<glyph unicode="&#xfa;" horiz-adv-x="1411" d="M70 956h280q-12 -14 -15 -25t-3 -46v-41v-422q0 -86 13 -138.5t46 -88.5q37 -41 106.5 -65t157.5 -24q98 0 186.5 26t153.5 73q37 27 60 69q8 12 12 26.5t7 33t4 44t1 64.5v254q0 53 -4 91t-14 68t-27.5 53.5t-44.5 47.5h287q-16 -16 -19.5 -30.5t-3.5 -57.5v-620v-25.5 t4 -38.5q2 -35 7 -57q12 -66 63 -127h-117q-59 0 -81.5 25.5t-26.5 95.5q-82 -76 -194.5 -114t-264.5 -38q-248 0 -375 107q-59 49 -83.5 130t-24.5 216v274q0 104 -19 158q-10 33 -25.5 53.5t-45.5 48.5zM645 1202q0 33 41 98q39 70 107 138q39 39 69.5 54t63.5 15 q27 0 43 -17t16 -44q0 -74 -119 -182q-16 -16 -71 -60q-29 -25 -49.5 -37t-43.5 -16h-12q-20 0 -32.5 14.5t-12.5 36.5z" />
<glyph unicode="&#xfb;" horiz-adv-x="1411" d="M70 956h280q-12 -14 -15 -25t-3 -46v-41v-422q0 -86 13 -138.5t46 -88.5q37 -41 106.5 -65t157.5 -24q98 0 186.5 26t153.5 73q37 27 60 69q8 12 12 26.5t7 33t4 44t1 64.5v254q0 53 -4 91t-14 68t-27.5 53.5t-44.5 47.5h287q-16 -16 -19.5 -30.5t-3.5 -57.5v-620v-25.5 t4 -38.5q2 -35 7 -57q12 -66 63 -127h-117q-59 0 -81.5 25.5t-26.5 95.5q-82 -76 -194.5 -114t-264.5 -38q-248 0 -375 107q-59 49 -83.5 130t-24.5 216v274q0 104 -19 158q-10 33 -25.5 53.5t-45.5 48.5zM229 1262h15h20l25 12l411 205l416 -197l23 -10q10 -4 17 -7t13 -3 q4 0 6.5 1t8.5 3l-66 -142q-2 4 -6 9q-4 4 -4 8l-2 2q-8 8 -14 10l-31 14l-356 166l-351 -168q-10 -4 -17 -8t-11 -6l-15 -14q-2 -2 -5 -5.5t-7 -7.5z" />
<glyph unicode="&#xfc;" horiz-adv-x="1411" d="M70 956h280q-12 -14 -15 -25t-3 -46v-41v-422q0 -86 13 -138.5t46 -88.5q37 -41 106.5 -65t157.5 -24q98 0 186.5 26t153.5 73q37 27 60 69q8 12 12 26.5t7 33t4 44t1 64.5v254q0 53 -4 91t-14 68t-27.5 53.5t-44.5 47.5h287q-16 -16 -19.5 -30.5t-3.5 -57.5v-620v-25.5 t4 -38.5q2 -35 7 -57q12 -66 63 -127h-117q-59 0 -81.5 25.5t-26.5 95.5q-82 -76 -194.5 -114t-264.5 -38q-248 0 -375 107q-59 49 -83.5 130t-24.5 216v274q0 104 -19 158q-10 33 -25.5 53.5t-45.5 48.5zM332 1307q0 59 40 99t99 40q57 0 98 -40t41 -95q0 -59 -40 -101.5 t-99 -42.5t-99 41t-40 99zM803 1307q0 57 40 97t99 40t99 -41t40 -100q0 -57 -40 -96.5t-97 -39.5q-59 0 -100 40t-41 100z" />
<glyph unicode="&#xff;" horiz-adv-x="1366" d="M-8 956h368q-16 -23 -21 -37t-5 -36q0 -35 19.5 -82t62.5 -119l235 -395l21 -35l16 -35q6 12 9 20.5t8 14.5q2 4 7 12t13 23l246 395q23 35 35 55.5t18 30.5q41 70 41 117q0 23 -7 37t-26 34h342l-42 -42t-38 -44q-23 -27 -38 -47t-32.5 -44.5t-40 -61.5t-59.5 -94 l-405 -650q-82 -131 -82 -196q0 -23 7 -37t26 -37h-381q68 43 138.5 123t137.5 197l23 38l-332 562q-27 45 -62.5 99t-66.5 95q-16 23 -30.5 40t-30 32.5t-33 31t-41.5 35.5zM322 1307q0 59 40.5 99t98.5 40q59 0 99 -40t40 -95q0 -59 -40 -101.5t-97 -42.5q-59 0 -100 41 t-41 99zM793 1307q0 57 40.5 97t100.5 40q57 0 97 -41t40 -100q0 -57 -40 -96.5t-97 -39.5q-59 0 -100 40t-41 100z" />
<glyph unicode="&#x152;" horiz-adv-x="2242" d="M109 688q0 164 43 294t124.5 221t197.5 139.5t263 48.5q51 0 103.5 -6.5t99.5 -20.5q55 -16 96 -37.5t103 -69.5v31q0 4 1 9.5t1 9.5q0 23 -5.5 35t-17.5 24h991q-18 -18 -18 -41q0 -14 4 -29.5t14 -50.5l29 -90q-51 20 -100 34.5t-108.5 23t-134.5 11.5t-175 3h-301 v-414h410h56h35.5t24.5 1t23 3q16 4 31.5 6t44.5 11l-74 -105q-16 -23 -21.5 -30t-11.5 -13q-8 -8 -20 -14q-10 -4 -23.5 -5t-64.5 -1h-410v-521h342q90 0 153.5 3.5t110.5 9.5q55 6 111 18q25 6 43 11.5t36.5 12.5t38 15t46.5 21l-43 -115q-4 -14 -8.5 -23.5t-4.5 -13.5 q-12 -31 -12 -45q0 -16 14 -39h-1036q18 18 22.5 33.5t4.5 62.5v4l-2 45q-16 -16 -28.5 -29.5t-23.5 -21.5q-66 -57 -161 -88t-203 -31q-133 0 -250 46.5t-193 128.5q-78 86 -122.5 229t-44.5 309zM309 676q0 -551 406 -551q207 0 311 137.5t104 409.5q0 569 -395 569 q-104 0 -194 -45t-144 -125q-88 -127 -88 -395z" />
<glyph unicode="&#x153;" horiz-adv-x="2279" d="M94 471q0 119 42 215t119 164t187.5 103.5t249.5 35.5q111 0 206 -26.5t167 -75.5q16 -10 28.5 -20.5t24.5 -21.5t25.5 -25.5t32.5 -35.5q20 25 35.5 42.5t30.5 30.5t32.5 24.5t40.5 25.5q68 39 156 60.5t186 21.5q252 0 405 -143q37 -37 62.5 -77t41 -90t22.5 -115.5 t7 -151.5v-31q-16 10 -25 12t-32 4l-45 2h-833q18 -152 118.5 -222.5t296.5 -70.5q43 0 81 2.5t73 8.5t71.5 15t77.5 24q29 10 49.5 17t38 15.5t35 16.5t39.5 20v-211q-14 6 -23.5 7.5t-23.5 1.5q-27 0 -90 -13q-45 -10 -70.5 -14t-36.5 -6q-53 -8 -118.5 -14.5t-112.5 -6.5 q-66 0 -134.5 10.5t-129.5 26.5q-43 12 -76 25.5t-60.5 32t-53 42t-50.5 56.5q-35 -41 -57.5 -61.5t-59.5 -43.5q-68 -41 -163 -64.5t-199 -23.5q-139 0 -247.5 35t-184.5 99.5t-116 157.5t-40 210zM276 481q0 -180 100.5 -277.5t289.5 -97.5q203 0 312 98.5t109 280.5 q0 170 -109.5 268.5t-299.5 98.5q-193 0 -297.5 -96.5t-104.5 -274.5zM1264 535h764v24q0 135 -98.5 214t-266.5 79q-180 0 -287.5 -85t-111.5 -232z" />
<glyph unicode="&#x178;" horiz-adv-x="1800" d="M-33 1366h465q-27 -18 -37 -36.5t-10 -45.5q0 -35 27.5 -84t99.5 -141l346 -447l19 -22l20 -33l18 33l19 20l360 461q37 47 61.5 81t38 58.5t19.5 44t6 37.5q0 27 -10 42.5t-39 31.5h465q-47 -29 -72.5 -46t-62.5 -50q-20 -16 -39 -36t-37 -38q-25 -29 -68 -79t-106 -132 l-457 -588v-61v-86t2 -57.5t4 -39t7 -30.5q29 -94 102 -123h-414q47 23 76 68t29 108v64v96v63l-430 557l-90 117q-31 41 -77 90t-100 103q-23 23 -39 37t-30.5 24t-29.5 19.5t-36 19.5zM526 1690q0 57 40 97t100 40q57 0 98 -39t41 -94q0 -59 -40 -101.5t-99 -42.5 t-99.5 41t-40.5 99zM997 1688q0 57 40 98t100 41q59 0 99 -41t40 -100q0 -57 -40 -97.5t-97 -40.5q-59 0 -100.5 41t-41.5 99z" />
<glyph unicode="&#x2c6;" d="M35 1262h14h21l24 12l412 205l416 -197l22 -10l17.5 -7t13.5 -3q2 0 14 4l-65 -142q-2 4 -6 9q-4 4 -5 8l-2 2q-8 8 -14 10l-31 14l-356 166l-350 -168q-10 -4 -16.5 -8t-10.5 -6q-2 -2 -6 -5t-10 -9l-13 -13z" />
<glyph unicode="&#x2dc;" d="M39 1307h2q8 0 13 4t22 20q131 125 248 125q35 0 71 -12q14 -4 27.5 -9t29 -14.5t35 -24t48.5 -36.5q43 -33 73.5 -46.5t59.5 -13.5q66 0 139 66q37 31 49 49.5t16 40.5l113 -149q-18 0 -31 -13l-39 -37q-137 -127 -251 -127q-33 0 -70 13q-29 10 -56.5 27.5t-82.5 60.5 q-47 37 -77 51t-63 14q-82 0 -143 -77q-10 -14 -14 -22.5t-4 -22.5z" />
<glyph unicode="&#x2000;" horiz-adv-x="954" />
<glyph unicode="&#x2001;" horiz-adv-x="1909" />
<glyph unicode="&#x2002;" horiz-adv-x="954" />
<glyph unicode="&#x2003;" horiz-adv-x="1909" />
<glyph unicode="&#x2004;" horiz-adv-x="636" />
<glyph unicode="&#x2005;" horiz-adv-x="477" />
<glyph unicode="&#x2006;" horiz-adv-x="318" />
<glyph unicode="&#x2007;" horiz-adv-x="318" />
<glyph unicode="&#x2008;" horiz-adv-x="238" />
<glyph unicode="&#x2009;" horiz-adv-x="381" />
<glyph unicode="&#x200a;" horiz-adv-x="106" />
<glyph unicode="&#x2010;" horiz-adv-x="628" d="M-27 391l33 74l25 53q12 29 22 38t31 13q12 4 25.5 4h64.5h232h77q23 0 45.5 2.5t38.5 4.5q23 4 41.5 9t46.5 17l-53 -119q-18 -41 -40.5 -55t-63.5 -14h-82h-174h-84q-33 0 -56.5 -1t-44 -4t-40 -8.5t-44.5 -13.5z" />
<glyph unicode="&#x2011;" horiz-adv-x="628" d="M-27 391l33 74l25 53q12 29 22 38t31 13q12 4 25.5 4h64.5h232h77q23 0 45.5 2.5t38.5 4.5q23 4 41.5 9t46.5 17l-53 -119q-18 -41 -40.5 -55t-63.5 -14h-82h-174h-84q-33 0 -56.5 -1t-44 -4t-40 -8.5t-44.5 -13.5z" />
<glyph unicode="&#x2012;" horiz-adv-x="628" d="M-27 391l33 74l25 53q12 29 22 38t31 13q12 4 25.5 4h64.5h232h77q23 0 45.5 2.5t38.5 4.5q23 4 41.5 9t46.5 17l-53 -119q-18 -41 -40.5 -55t-63.5 -14h-82h-174h-84q-33 0 -56.5 -1t-44 -4t-40 -8.5t-44.5 -13.5z" />
<glyph unicode="&#x2013;" d="M68 604v162h888v-162h-888z" />
<glyph unicode="&#x2014;" horiz-adv-x="1910" d="M-27 391l33 74l25 53q12 29 22 38t31 13q12 4 25.5 4h64.5h1516h75q23 0 46.5 2.5t39.5 4.5q23 4 41.5 9t46.5 17l-55 -119q-18 -41 -39.5 -55t-62.5 -14h-82h-1458h-84q-33 0 -56.5 -1t-44 -4t-40 -8.5t-44.5 -13.5z" />
<glyph unicode="&#x2018;" horiz-adv-x="485" d="M111 1053q0 39 14 84t38.5 90t58.5 87t73 77l108 -86q-29 -2 -57 -37q-31 -37 -31 -74q0 -16 5.5 -24.5t29.5 -34.5q39 -43 39 -95q0 -59 -39 -99t-98 -40q-61 0 -101 43t-40 109z" />
<glyph unicode="&#x2019;" horiz-adv-x="440" d="M70 991q88 29 88 103q0 16 -5.5 26t-27.5 39q-37 43 -37 92q0 59 39 99.5t98 40.5t98 -42t39 -108q0 -88 -65 -190q-12 -16 -20.5 -28.5t-18.5 -26t-25.5 -30t-42.5 -42.5l-16 -17z" />
<glyph unicode="&#x201a;" horiz-adv-x="440" d="M70 -127q88 29 88 102q0 16 -5.5 26.5t-27.5 37.5q-37 45 -37 94q0 59 39 98t98 39t98 -40.5t39 -106.5q0 -88 -65 -191q-12 -16 -20.5 -28.5t-18.5 -25.5t-25.5 -29.5t-42.5 -43.5l-16 -16z" />
<glyph unicode="&#x201c;" horiz-adv-x="860" d="M111 1055q0 43 17 91t50 99q10 16 18.5 28.5t19.5 27t26.5 31t42.5 42.5l16 17l105 -86q-43 -12 -66 -40t-23 -63q0 -16 5.5 -26.5t27.5 -36.5q37 -47 37 -95q0 -59 -40 -98t-99 -39t-98 42t-39 106zM485 1055q0 88 68 190q10 16 18.5 28.5t18.5 27t25.5 31t41.5 42.5 l17 17l104 -86q-43 -12 -65.5 -40t-22.5 -63q0 -16 5 -26.5t28 -36.5q37 -47 37 -95q0 -59 -39 -98t-98 -39t-98.5 42t-39.5 106z" />
<glyph unicode="&#x201d;" horiz-adv-x="860" d="M88 991q88 29 88 103q0 16 -6 26t-29 39q-37 43 -37 92q0 59 40 99.5t100 40.5q59 0 98 -42t39 -108q0 -90 -68 -190q-10 -16 -19 -28.5t-20.5 -25t-27 -30t-39.5 -43.5l-14 -17zM461 991q88 29 88 103q0 16 -5 26t-28 39q-37 43 -37 92q0 59 40 99.5t97 40.5 q59 0 99.5 -42t40.5 -108q0 -43 -17.5 -91t-50.5 -99q-10 -16 -18 -28.5t-19.5 -26t-27 -30t-41.5 -42.5l-17 -17z" />
<glyph unicode="&#x201e;" horiz-adv-x="860" d="M88 -127q88 29 88 102q0 16 -6 26.5t-29 37.5q-37 45 -37 94q0 59 40 98t100 39q59 0 98 -40.5t39 -106.5q0 -90 -68 -191q-10 -16 -19 -28.5t-20.5 -24.5t-27 -29.5t-39.5 -44.5l-14 -16zM461 -127q88 29 88 102q0 16 -5 26.5t-28 37.5q-37 45 -37 94q0 59 40 98t97 39 q59 0 99.5 -40.5t40.5 -106.5q0 -43 -17.5 -91t-50.5 -100q-10 -16 -18 -28.5t-19.5 -25.5t-27 -29.5t-41.5 -43.5l-17 -16z" />
<glyph unicode="&#x2022;" horiz-adv-x="1366" d="M401 696q0 59 22.5 111.5t60.5 91.5t89.5 61.5t110.5 22.5q57 0 108.5 -22.5t89.5 -61.5t60.5 -91.5t22.5 -111.5t-22.5 -111.5t-60.5 -91t-89.5 -61t-108.5 -22.5q-59 0 -110.5 22.5t-89.5 61t-60.5 91t-22.5 111.5z" />
<glyph unicode="&#x2026;" horiz-adv-x="1572" d="M131 102q0 53 39 92t92 39t91 -38t38 -91t-38 -92t-91 -39t-92 38t-39 91zM655 102q0 53 39 92t92 39t91 -38t38 -91t-37.5 -92t-91.5 -39q-53 0 -92 38t-39 91zM1180 102q0 53 38.5 92t92.5 39q53 0 91 -38t38 -91t-38 -92t-91 -39t-92 38t-39 91z" />
<glyph unicode="&#x202f;" horiz-adv-x="381" />
<glyph unicode="&#x2039;" horiz-adv-x="552" d="M113 498l172 354h125l-129 -354l127 -353h-129z" />
<glyph unicode="&#x203a;" horiz-adv-x="552" d="M143 145l131 355l-127 352h127l168 -354l-174 -353h-125z" />
<glyph unicode="&#x205f;" horiz-adv-x="477" />
<glyph unicode="&#x2122;" horiz-adv-x="2334" d="M14 1223l35 88q4 12 7 18t3 10q0 6 -9 11.5t-32 15.5h959q-35 -14 -35 -29q0 -6 8 -30l31 -82q-37 12 -57.5 17t-55.5 13q-23 4 -41 6.5t-34 6.5q-12 0 -33 1t-49 3q-29 0 -49.5 1t-30.5 1h-68v-492q0 -82 10 -116q10 -29 27 -45q6 -6 15.5 -12.5t29.5 -20.5h-301 q31 12 45 22.5t25 28.5q16 29 18 55q2 16 3 41t1 47v492h-74h-20q-35 0 -68.5 -1t-62.5 -3q-18 -4 -36.5 -5t-35.5 -5q-39 -6 -61.5 -13.5t-63.5 -23.5zM999 588q29 14 46.5 27.5t26.5 35t12 52t3 79.5v389q0 49 -3 80t-12 51.5t-26.5 35t-46.5 28.5h322q-27 -20 -27 -35 q0 -6 9 -20l18 -35l295 -543l291 543l18 37q8 14 8 20q0 10 -18 33h317q-31 -18 -42 -27.5t-21 -25.5q-16 -29 -19 -53q-2 -16 -3 -41t-1 -48v-389q0 -82 11 -116q10 -29 26 -45q8 -8 17.5 -15.5t31.5 -17.5h-301q29 14 46.5 27.5t27.5 35t13 52t3 79.5v449l-315 -582 l-8 -16q-6 -16 -6 -21q0 -18 41 -24h-234q45 4 45 22q0 10 -8 21q-2 2 -10 18l-314 584v-451q0 -49 3.5 -79.5t12.5 -51t25.5 -35t44.5 -28.5h-299z" />
<glyph unicode="&#xe000;" horiz-adv-x="952" d="M0 0v952h952v-952h-952z" />
</font>
</defs>
</svg>
