<?xml version="1.0" standalone="no"?>
<!DOCTYPE svg PUBLIC "-//W3C//DTD SVG 1.1//EN" "http://www.w3.org/Graphics/SVG/1.1/DTD/svg11.dtd" >
<svg xmlns="http://www.w3.org/2000/svg">
<metadata></metadata>
<defs>
<font id="newtext_rg_btregular_italic" horiz-adv-x="1290" >
<font-face units-per-em="2048" ascent="1638" descent="-410" />
<missing-glyph horiz-adv-x="645" />
<glyph horiz-adv-x="2048" />
<glyph horiz-adv-x="2048" />
<glyph unicode="&#xd;" horiz-adv-x="645" />
<glyph unicode=" "  horiz-adv-x="645" />
<glyph unicode="&#x09;" horiz-adv-x="645" />
<glyph unicode="&#xa0;" horiz-adv-x="645" />
<glyph unicode="!" horiz-adv-x="737" d="M92 115q0 58 43 96.5t109 38.5q79 0 124.5 -33t45.5 -90q0 -63 -43.5 -101t-114.5 -38q-77 0 -120.5 33.5t-43.5 93.5zM250 530q0 50 4 107.5t12 116.5l19 120q23 168 82 270.5t129 102.5q41 0 64.5 -45t23.5 -125q0 -43 -11.5 -113.5t-31.5 -150.5l-29 -111 q-40 -153 -89.5 -239t-96.5 -86q-40 0 -58 37t-18 116z" />
<glyph unicode="&#x22;" horiz-adv-x="643" d="M86 879v557h164v-557h-164zM395 879v557h164v-557h-164z" />
<glyph unicode="#" horiz-adv-x="1575" d="M70 428l61 172h297l90 252h-315l61 172h316l155 436h191l-154 -436h250l156 436h190l-154 -436h291l-59 -172h-293l-90 -252h309l-61 -172h-307l-156 -434h-191l156 434h-252l-158 -434h-190l156 434h-299zM618 598h256l91 254h-256z" />
<glyph unicode="$" d="M107 97l45 253q69 -60 165 -102.5t209 -63.5l66 387q-180 55 -261 130t-81 186q0 151 118 237.5t330 89.5l9 48v6q0 12 -3 25.5t-10 29.5h172q-8 -14 -13 -27.5t-7 -27.5l-10 -60q94 -13 130 -16.5t56 -3.5q24 0 43 4.5t37 13.5l-53 -221q-56 30 -115.5 46.5t-124.5 20.5 l-55 -335q170 -54 247.5 -134.5t77.5 -203.5q0 -159 -121.5 -257t-320.5 -100l-12 -71q0 -3 -1 -8t-1 -9q0 -9 3.5 -19.5t10.5 -22.5l-186 -1q16 21 26.5 40.5t12.5 32.5l12 69q-76 13 -186.5 45.5t-147.5 32.5q-11 0 -24.5 -3t-36.5 -11zM455 909q0 -55 38.5 -88.5 t129.5 -56.5l51 297q-100 0 -159.5 -41.5t-59.5 -110.5zM664 180q99 3 156 48.5t57 121.5q0 64 -37 104.5t-119 69.5z" />
<glyph unicode="%" horiz-adv-x="2007" d="M63 840q0 178 125.5 292.5t323.5 114.5q183 0 291 -91.5t108 -244.5q0 -179 -125 -292t-325 -113q-182 0 -290 90.5t-108 243.5zM240 836q0 -87 62 -145t157 -58q130 0 204 75.5t74 206.5q0 87 -62.5 145t-156.5 58q-128 0 -203 -76.5t-75 -205.5zM477 -29q24 16 45 40 t47 65l721 1085q12 18 19.5 34t7.5 26q0 5 -3 11.5t-9 14.5h223q-22 -13 -43 -36.5t-49 -67.5l-721 -1086q-12 -17 -19.5 -33.5t-7.5 -25.5q0 -5 3 -11.5t9 -15.5h-223zM1094 307q0 178 126 292t324 114q183 0 291.5 -91.5t108.5 -244.5q0 -179 -126 -292.5t-327 -113.5 q-181 0 -289 91.5t-108 244.5zM1270 301q0 -85 61.5 -143t155.5 -58q129 0 203.5 76t74.5 205q0 89 -60.5 147t-156.5 58q-129 0 -203.5 -76.5t-74.5 -208.5z" />
<glyph unicode="&#x26;" horiz-adv-x="1597" d="M63 348q0 139 77 240.5t231 165.5q-36 37 -54 80t-18 92q0 150 133 235.5t369 85.5q95 0 209.5 -20.5t136.5 -20.5q15 0 36 4t50 13l-37 -226q-110 46 -210 67t-202 21q-109 0 -177 -45t-68 -114q0 -93 256 -236q173 -97 280 -168q21 40 31 75t10 67q0 19 -4.5 33 t-13.5 26h426q-14 -28 -20.5 -47.5t-6.5 -34.5q0 -11 8 -43q3 -12 4 -18h-73q-78 0 -120.5 -30t-101.5 -128q130 -109 212.5 -261t91.5 -161h-307q10 14 15 30.5t5 39.5q0 49 -29 96t-94 102q-134 -155 -275 -226t-317 -71q-211 0 -332 101t-121 276zM297 362 q0 -100 74 -163.5t192 -63.5q119 0 229.5 62.5t190.5 175.5q-75 51 -172 106.5t-303 163.5q-102 -48 -156.5 -120.5t-54.5 -160.5z" />
<glyph unicode="'" horiz-adv-x="334" d="M86 879v557h164v-557h-164z" />
<glyph unicode="(" horiz-adv-x="915" d="M186 434q0 349 203.5 580t513.5 231q26 0 47.5 -1t42.5 -3q-18 -31 -27.5 -58.5t-9.5 -52.5q0 -10 2.5 -22t7.5 -26q-20 2 -29.5 2.5t-18.5 0.5q-196 0 -339 -187.5t-143 -455.5q0 -216 95 -339t260 -123h12q-18 -32 -27.5 -59.5t-9.5 -49.5q0 -12 3 -23t9 -24 q-12 -1 -24.5 -1.5t-24.5 -0.5q-244 0 -393.5 168.5t-149.5 443.5z" />
<glyph unicode=")" horiz-adv-x="915" d="M-92 -174q20 35 29.5 62t9.5 49q0 14 -2.5 26t-7.5 22q20 -2 30 -2.5t19 -0.5q196 0 338.5 187.5t142.5 457.5q0 216 -96 338t-265 122h-8q19 35 28 61.5t9 47.5q0 15 -2.5 26t-7.5 21q12 1 24 1.5t23 0.5q244 0 393.5 -169.5t149.5 -444.5q0 -350 -203 -579.5 t-512 -229.5q-27 0 -49 1t-43 3z" />
<glyph unicode="*" horiz-adv-x="860" d="M133 932v8q0 41 12.5 78.5t40.5 81.5q11 -16 24.5 -27.5t33.5 -19.5l114 -52l50 37l-15 128q-1 18 -8 35.5t-18 31.5q29 8 49.5 11t38.5 3q25 0 46.5 -3.5t40.5 -11.5q-13 -18 -18.5 -32.5t-7.5 -34.5l-12 -127l47 -37l115 52q17 7 31 18.5t26 28.5q28 -40 40.5 -80.5 t12.5 -87.5q-1 0 -5 1q-27 7 -40 7q-4 0 -9.5 -0.5t-19.5 -3.5l-122 -27l-23 -55l86 -94q14 -16 28.5 -25t32.5 -14q-28 -38 -62 -62.5t-79 -40.5v9q0 13 -3.5 26t-14.5 35l-58 113l-59 -2l-63 -110q-11 -22 -15 -35.5t-4 -26.5v-9q-41 13 -74 36.5t-67 66.5q19 4 34 13.5 t27 25.5l84 94l-20 57l-123 25l-18 3t-9 1q-12 0 -23 -2t-24 -6z" />
<glyph unicode="+" horiz-adv-x="1706" d="M254 528v166h514v527h170v-527h514v-166h-514v-528h-170v528h-514z" />
<glyph unicode="," horiz-adv-x="645" d="M94 -129q47 10 77 37.5t30 58.5q0 16 -42 60.5t-42 93.5q0 57 45.5 97t111.5 40q74 0 118 -43.5t44 -116.5q0 -117 -153 -261q-49 -46 -74 -73z" />
<glyph unicode="-" horiz-adv-x="713" d="M37 340l78 154q13 27 39 38t90 11h256q58 0 97.5 7.5t64.5 22.5l-78 -153q-13 -27 -37.5 -38t-91.5 -11h-258q-58 0 -97 -7.5t-63 -23.5z" />
<glyph unicode="." horiz-adv-x="645" d="M115 117q0 60 44.5 96.5t119.5 36.5q72 0 114.5 -35t42.5 -94q0 -60 -45 -96.5t-119 -36.5q-73 0 -115 34.5t-42 94.5z" />
<glyph unicode="/" horiz-adv-x="635" d="M-34 -190q15 24 27 51t25 69l398 1200q4 13 6 27.5t2 32.5q0 12 -2 26.5t-6 30.5h202q-16 -27 -28.5 -55t-24.5 -66l-395 -1200q-6 -19 -8 -32t-2 -27t6 -47q1 -6 2 -10h-202z" />
<glyph unicode="0" d="M68 487q0 341 181.5 550.5t475.5 209.5q241 0 368.5 -132t127.5 -382q0 -342 -181 -552t-475 -210q-239 0 -368 134.5t-129 381.5zM303 481q0 -162 70 -248t202 -86q179 0 290.5 162.5t111.5 423.5q0 172 -68.5 260t-203.5 88q-181 0 -291.5 -165t-110.5 -435z" />
<glyph unicode="1" d="M307 821l37 219q11 -14 27 -20t41 -6q109 0 197.5 64t88.5 134q0 9 -2.5 17t-8.5 18h257q-19 -27 -29.5 -54t-15.5 -61l-147 -841q-7 -37 -11 -72.5t-4 -62.5q0 -55 18 -92.5t56 -63.5h-442q60 41 92.5 97t54.5 182l111 624q-74 -49 -186.5 -61t-133.5 -21z" />
<glyph unicode="2" d="M17 0q21 15 28 84q5 45 10 71q23 101 82.5 182t161.5 150q87 60 249.5 137t219.5 111q73 44 108 91.5t35 103.5q0 68 -50.5 104.5t-143.5 36.5q-95 0 -225.5 -33.5t-278.5 -97.5l45 277q23 -17 42.5 -24t39.5 -7q37 0 180.5 29.5t245.5 29.5q175 0 283 -85.5t108 -219.5 q0 -139 -98 -238.5t-404 -234.5q-177 -79 -248 -144t-94 -155h406q145 0 224 19.5t134 64.5l-37 -144q-4 -16 -7 -31t-3 -24q0 -8 4 -19t17 -34h-1034z" />
<glyph unicode="3" d="M-12 12l39 234q122 -53 234.5 -80t211.5 -27q168 0 266.5 65.5t98.5 174.5q0 90 -78.5 138t-227.5 48q-75 0 -136 -7.5t-91 -18.5l37 209q25 -14 64 -20.5t102 -6.5q188 0 291.5 55t103.5 154q0 72 -57.5 112.5t-159.5 40.5q-98 0 -224 -28.5t-255 -81.5l49 262 q17 -13 32.5 -19t30.5 -6q26 0 175.5 17.5t273.5 17.5q175 0 276 -75.5t101 -204.5q0 -118 -62 -198.5t-190 -129.5q95 -25 144.5 -87.5t49.5 -158.5q0 -189 -160.5 -304.5t-432.5 -115.5q-125 0 -273 27t-172 27q-16 0 -30.5 -3t-30.5 -10z" />
<glyph unicode="4" d="M18 444l839 718q6 5 10.5 13.5t4.5 16.5q0 6 -2 12.5t-6 14.5h348q-20 -26 -31.5 -53t-17.5 -66l-114 -654h43q30 0 59.5 9.5t58.5 27.5l-43 -135q-10 -35 -31 -50t-59 -15h-59l-8 -52q-2 -12 -3 -25.5t-1 -37.5q0 -54 18.5 -95t58.5 -73h-417q50 35 84 93t45 126l10 60 h-719q5 13 7.5 25t2.5 24q0 40 -20.5 70.5t-57.5 45.5zM283 446h553l102 566z" />
<glyph unicode="5" d="M37 238q146 -49 273.5 -74t230.5 -25q173 0 273.5 73t100.5 196q0 90 -68 142t-188 52q-100 0 -209.5 -27.5t-213.5 -78.5q-8 47 -38 73.5t-77 28.5l143 520q3 13 4.5 24t1.5 23q0 15 -5.5 28t-16.5 26h938q-11 -17 -16 -29t-5 -21l1.5 -10t2.5 -20l21 -162 q-67 39 -149 56.5t-257 17.5h-315l-92 -324q87 21 163.5 31t143.5 10q230 0 348.5 -95.5t118.5 -281.5t-164.5 -303t-433.5 -117q-104 0 -230 17.5t-147 17.5q-16 0 -30.5 -7t-32.5 -24z" />
<glyph unicode="6" d="M86 479q0 355 190.5 561.5t520.5 206.5q101 0 219.5 -21.5t136.5 -21.5q11 0 26 1.5t31 4.5l-71 -217q-89 47 -169.5 68.5t-164.5 21.5q-177 0 -292.5 -91.5t-154.5 -260.5q95 41 185 60.5t180 19.5q201 0 324.5 -104.5t123.5 -272.5q0 -198 -160.5 -330.5t-406.5 -132.5 t-382 133.5t-136 374.5zM328 461q0 -156 76 -238t221 -82q139 0 227 83t88 214q0 97 -73.5 158t-190.5 61q-83 0 -171.5 -28.5t-168.5 -81.5q-4 -21 -6 -42t-2 -44z" />
<glyph unicode="7" d="M154 958l61 169q9 25 13.5 39t4.5 16q0 4 -5 12.5t-17 24.5h1089q-313 -328 -502.5 -642t-189.5 -483q0 -28 6.5 -51t20.5 -43h-352q28 16 61 141t78 221q72 156 193.5 328t291.5 361h-319q-164 0 -258.5 -21.5t-175.5 -71.5z" />
<glyph unicode="8" d="M37 334q0 133 86 226t252 140q-77 31 -116.5 86t-39.5 132q0 151 140 240t382 89q212 0 332.5 -81t120.5 -222q0 -94 -64 -165.5t-178 -102.5q109 -30 169.5 -105.5t60.5 -181.5q0 -187 -166 -302.5t-441 -115.5q-249 0 -393.5 98.5t-144.5 264.5zM266 348 q0 -100 82.5 -157.5t226.5 -57.5q173 0 276 67t103 177q0 101 -83 157t-234 56q-167 0 -269 -67t-102 -175zM440 915q0 -73 68 -119t176 -46q141 0 216 47t75 135q0 73 -66.5 112t-189.5 39q-134 0 -206.5 -43.5t-72.5 -124.5z" />
<glyph unicode="9" d="M70 8l71 217q93 -47 171.5 -67.5t160.5 -20.5q177 0 292.5 90.5t156.5 259.5q-94 -39 -184 -58t-181 -19q-201 0 -324.5 104t-123.5 272q0 198 159.5 329.5t405.5 131.5q248 0 384 -132t136 -374q0 -354 -191.5 -562t-519.5 -208q-97 0 -216 22.5t-140 22.5q-14 0 -47 -6 q-6 -1 -10 -2zM340 770q0 -86 76 -147.5t188 -61.5q82 0 170.5 29t169.5 82q4 19 6 39.5t2 44.5q0 158 -76 240.5t-223 82.5q-141 0 -227 -84.5t-86 -224.5z" />
<glyph unicode=":" horiz-adv-x="692" d="M119 117q0 57 43 95t108 38q80 0 124 -34t44 -95q0 -60 -44 -96.5t-118 -36.5q-73 0 -115 34.5t-42 94.5zM223 762q0 60 43.5 96.5t116.5 36.5q74 0 117 -34.5t43 -94.5t-44.5 -96.5t-117.5 -36.5q-74 0 -116 34.5t-42 94.5z" />
<glyph unicode=";" horiz-adv-x="692" d="M94 -129q48 10 78.5 37t30.5 57q0 17 -42 63t-42 93q0 57 46 97t111 40q73 0 117.5 -44t44.5 -116q0 -118 -155 -262q-49 -46 -74 -72zM221 760q0 57 43.5 96t108.5 39q78 0 124 -33.5t46 -89.5q0 -64 -44 -101.5t-118 -37.5t-117 34t-43 93z" />
<glyph unicode="&#x3c;" horiz-adv-x="1706" d="M264 530v160l1178 486v-185l-934 -381l934 -381v-182z" />
<glyph unicode="=" horiz-adv-x="1706" d="M254 322v165h1198v-165h-1198zM254 733v168h1198v-168h-1198z" />
<glyph unicode="&#x3e;" horiz-adv-x="1706" d="M264 47v182l934 381l-934 381v185l1178 -486v-160z" />
<glyph unicode="?" horiz-adv-x="1284" d="M133 866l56 303q12 -8 26.5 -13t26.5 -5q11 0 188.5 49t339.5 49q201 0 312.5 -87.5t111.5 -243.5q0 -150 -109 -264t-303 -167q-98 -26 -239.5 -45.5t-169.5 -44.5l45 238q13 -13 32.5 -19t49.5 -6q178 0 308 82.5t130 190.5q0 87 -59.5 133.5t-169.5 46.5 q-127 0 -284.5 -53t-291.5 -144zM268 115q0 58 43 96.5t109 38.5q79 0 123.5 -33t44.5 -90q0 -63 -42.5 -101t-113.5 -38q-77 0 -120.5 33.5t-43.5 93.5z" />
<glyph unicode="@" horiz-adv-x="2048" d="M98 522q0 165 52 313.5t153 272.5q147 179 353.5 272t459.5 93q166 0 315 -45.5t255 -127.5q132 -102 198 -235.5t66 -300.5q0 -162 -65 -302t-185 -237q-69 -55 -150 -83.5t-168 -28.5q-106 0 -157 40.5t-51 125.5v4q-55 -87 -128 -127.5t-176 -40.5q-152 0 -232.5 86.5 t-80.5 249.5q0 233 138 395t333 162q89 0 149 -34.5t99 -107.5l55 107h154l-148 -586q-1 -5 -2 -12q-6 -28 -6 -37q0 -38 26.5 -61t69.5 -23q51 0 107.5 30.5t105.5 84.5q72 76 110 177.5t38 215.5q0 253 -187 411t-489 158q-138 0 -256 -31t-215 -94q-181 -113 -279 -291 t-98 -395q0 -312 209.5 -499t558.5 -187q166 0 323.5 49t291.5 142l67 -99q-149 -113 -318.5 -170t-355.5 -57q-192 0 -351 48t-281 142q-155 118 -231.5 275.5t-76.5 357.5zM741 444q0 -98 45.5 -151t128.5 -53q90 0 163.5 66.5t99.5 172.5l55 228q-14 84 -61.5 130 t-122.5 46q-127 0 -217.5 -128.5t-90.5 -310.5z" />
<glyph unicode="A" horiz-adv-x="1548" d="M-152 0q58 37 110.5 91.5t137.5 172.5l633 883q8 13 12 23.5t4 17.5q0 5 -1.5 12.5t-3.5 18.5h345q-8 -15 -11 -23.5t-3 -15.5q0 -8 2 -19t6 -22l271 -854q40 -126 74 -188t79 -97h-430q34 26 49 52.5t15 60.5q0 20 -3 39.5t-8 32.5l-20 53h-762l-43 -68 q-12 -18 -18.5 -39t-6.5 -41q0 -27 11.5 -50.5t31.5 -39.5h-471zM469 416h590l-180 596z" />
<glyph unicode="B" horiz-adv-x="1468" d="M-45 0q57 37 88 88t47 141l131 743q5 28 7.5 52t2.5 47q0 51 -15.5 86t-49.5 62h657q276 0 401.5 -70.5t125.5 -222.5q0 -97 -62.5 -169t-175.5 -106q136 -21 207.5 -88t71.5 -174q0 -183 -160 -286t-447 -103h-829zM324 174h407q229 0 320.5 46t91.5 153q0 94 -77 134 t-288 40h-389zM418 713h299q213 0 299 42t86 140q0 82 -58 115.5t-229 33.5h-338z" />
<glyph unicode="C" horiz-adv-x="1374" d="M76 539q0 313 218 510.5t566 197.5q136 0 286.5 -27.5t170.5 -27.5q12 0 43 7q4 1 6 1l-74 -231q-80 49 -183.5 75.5t-215.5 26.5q-261 0 -411 -140.5t-150 -383.5q0 -194 112 -298t322 -104q113 0 224.5 29t223.5 88l-45 -266q-2 1 -5 3q-43 19 -62 19 q-6 0 -116.5 -23.5t-217.5 -23.5q-334 0 -513 147t-179 421z" />
<glyph unicode="D" horiz-adv-x="1544" d="M-43 0q56 36 86 86.5t47 142.5l133 744q4 22 6 46t2 52q0 52 -15 86.5t-48 61.5h577q192 0 305.5 -23.5t196.5 -77.5q106 -67 164.5 -182.5t58.5 -257.5q0 -315 -224 -496.5t-619 -181.5h-670zM322 166h249q159 0 265.5 22t177.5 68q99 65 155 177t56 245 q0 198 -119 286.5t-389 88.5h-236z" />
<glyph unicode="E" horiz-adv-x="1384" d="M-45 0q57 37 88 88t47 141l131 743q5 28 7.5 52t2.5 47q0 51 -15.5 86t-49.5 62h1171q-17 -29 -23.5 -46t-6.5 -30q0 -11 11.5 -63t18.5 -94q-74 35 -160 51t-225 16h-475l-59 -332h543q86 0 125 6.5t65 22.5l-72 -123q-24 -40 -61.5 -56t-149.5 -16h-479l-67 -389h542 q152 0 251.5 22t168.5 70q-14 -52 -37.5 -116.5t-23.5 -78.5q0 -10 3.5 -25t12.5 -38h-1284z" />
<glyph unicode="F" horiz-adv-x="1251" d="M-45 0q57 37 88 88t47 141l131 743q5 28 7.5 52t2.5 47q0 51 -15.5 86t-49.5 62h1132q-17 -29 -23.5 -46t-6.5 -30q0 -12 12 -65t18 -92q-72 35 -156.5 51t-228.5 16h-436l-65 -371h563q88 0 127.5 6.5t64.5 22.5l-73 -123q-24 -40 -62.5 -56t-148.5 -16h-500l-49 -270 q-4 -22 -6 -47t-2 -54q0 -48 15 -82t50 -63h-436z" />
<glyph unicode="G" horiz-adv-x="1520" d="M74 535q0 320 212.5 516t563.5 196q140 0 298 -29.5t177 -29.5q13 0 40 7q4 1 5 1l-67 -229q-109 52 -214.5 78t-211.5 26q-252 0 -401.5 -145.5t-149.5 -386.5q0 -182 106 -290t285 -108q184 0 300 76.5t138 214.5l19 113h-322q-66 0 -97.5 -7.5t-56.5 -25.5l39 135 q13 43 36.5 56.5t111.5 13.5h571q-40 -62 -56 -162q-1 -7 -1 -10l-86 -510q-19 13 -33 18.5t-31 5.5q-32 0 -214.5 -44t-332.5 -44q-292 0 -460 151.5t-168 412.5z" />
<glyph unicode="H" horiz-adv-x="1536" d="M-45 0q57 37 87.5 86t47.5 143l131 743q5 25 7.5 53.5t2.5 55.5q0 45 -15 76.5t-50 61.5h434q-56 -37 -86 -87t-47 -143l-43 -246h737l41 230q4 22 6 49t2 59q0 46 -15.5 78t-49.5 60h436q-57 -38 -87 -86t-48 -144l-131 -743q-5 -26 -7.5 -53.5t-2.5 -53.5 q0 -45 15 -77.5t50 -61.5h-434q56 37 85.5 85.5t47.5 143.5l59 332h-737l-57 -315q-4 -22 -6 -49t-2 -58q0 -45 15 -77.5t50 -61.5h-436z" />
<glyph unicode="I" horiz-adv-x="567" d="M-39 0q56 36 85.5 84.5t47.5 144.5l133 744q4 20 6.5 47.5t2.5 60.5q0 45 -15.5 76.5t-50.5 61.5h436q-56 -37 -85 -84.5t-48 -145.5l-133 -743q-4 -22 -6 -49t-2 -58q0 -45 15.5 -77.5t49.5 -61.5h-436z" />
<glyph unicode="J" horiz-adv-x="999" d="M-88 10l41 234q72 -45 162 -71t174 -26q127 0 191 68.5t102 284.5l86 473q2 15 3 33t1 55q0 52 -19.5 92.5t-56.5 65.5h448q-55 -36 -85 -85.5t-48 -144.5l-96 -543q-44 -245 -165.5 -359t-340.5 -114q-101 0 -215.5 22.5t-128.5 22.5q-13 0 -26 -2t-27 -6z" />
<glyph unicode="K" horiz-adv-x="1483" d="M-45 0q57 37 88 88t47 141l131 743q5 28 7.5 52t2.5 47q0 51 -15.5 86t-49.5 62h428q-56 -36 -85.5 -84.5t-47.5 -145.5l-64 -342l625 447q25 18 37 37t12 38q0 11 -5 22.5t-17 27.5h518q-76 -39 -153.5 -86t-158.5 -103l-368 -262l381 -526q74 -102 126.5 -157.5 t100.5 -84.5h-469q22 14 33.5 33.5t11.5 42.5q0 16 -7 34.5t-22 39.5l-348 477l-342 -240l-24 -141q-4 -22 -6.5 -47t-2.5 -54q0 -50 15 -83.5t49 -61.5h-428z" />
<glyph unicode="L" horiz-adv-x="1190" d="M-45 0q57 37 88 88t47 141l131 743q5 28 7.5 52t2.5 47q0 51 -15.5 86t-49.5 62h434q-56 -37 -86 -87t-47 -143l-143 -815h432q163 0 244.5 17.5t146.5 58.5q-14 -50 -38 -113t-24 -76t17 -48q4 -9 5 -13h-1152z" />
<glyph unicode="M" horiz-adv-x="1892" d="M-41 0q56 36 86 86.5t47 142.5l133 744q4 22 6 46t2 52q0 52 -15 86.5t-48 61.5h489q-12 -13 -17 -23t-5 -20q0 -7 1.5 -16t4.5 -21l248 -867l532 869q9 14 13 24t4 19q0 7 -2 16t-6 19h501q-55 -36 -85 -85.5t-48 -144.5l-133 -743q-4 -22 -6 -47t-2 -54q0 -50 15 -83.5 t48 -61.5h-407q56 37 85.5 85.5t47.5 143.5l151 834l-612 -987q-11 -18 -14.5 -27t-3.5 -16t2 -15t6 -18h-256q9 12 13.5 22t4.5 17q0 6 -2.5 19t-7.5 30l-287 987l-137 -829q-4 -24 -6 -48t-2 -51q0 -50 15.5 -85t49.5 -62h-403z" />
<glyph unicode="N" horiz-adv-x="1563" d="M-41 0q56 36 86 86.5t47 142.5l133 744q4 22 6 46t2 52q0 52 -15 86.5t-48 61.5h430l-3 -6q-9 -18 -9 -27t3.5 -19.5t10.5 -21.5l522 -860l113 688q4 26 6 50.5t2 47.5q0 49 -15.5 84t-49.5 64h422q-56 -35 -87 -88t-47 -142l-143 -839q-4 -20 -6 -38.5t-2 -37.5 q0 -23 6 -41.5t18 -32.5h-337q9 13 12.5 21t3.5 14q0 8 -3.5 19t-10.5 22l-553 915l-129 -745q-5 -22 -7 -47t-2 -54q0 -48 15.5 -82t50.5 -63h-422z" />
<glyph unicode="O" horiz-adv-x="1540" d="M78 555q0 319 201 506.5t544 187.5q303 0 474 -155t171 -428q0 -319 -202 -507t-545 -188q-301 0 -472 155.5t-171 428.5zM332 563q0 -192 107 -300.5t294 -108.5q220 0 350.5 137t130.5 366q0 192 -105.5 300t-293.5 108q-221 0 -352 -136.5t-131 -365.5z" />
<glyph unicode="P" horiz-adv-x="1395" d="M-45 0q57 37 88 88t47 141l131 743q5 28 7.5 52t2.5 47q0 51 -15.5 86t-49.5 62h647q294 0 425.5 -86t131.5 -275q0 -213 -170 -322.5t-500 -109.5h-333l-33 -180q-4 -22 -6 -47t-2 -54q0 -48 15 -82t50 -63h-436zM397 600h308q216 0 314.5 60t98.5 190q0 105 -71.5 151 t-237.5 46h-332z" />
<glyph unicode="Q" horiz-adv-x="1540" d="M78 569q0 309 203 494.5t542 185.5q300 0 472.5 -157.5t172.5 -432.5q0 -237 -126 -411.5t-332 -220.5q50 -26 93 -39t81 -13q45 0 88.5 17.5t83.5 50.5v-12q0 -47 21 -84.5t63 -65.5q-77 -46 -150.5 -70t-140.5 -24q-106 0 -275 86q-22 11 -33 17q-73 37 -126 51 t-111 14q-91 0 -190 -38.5t-221 -121.5v21q0 44 -24.5 82t-66.5 57q67 47 131.5 78t116.5 41q-134 72 -203 198t-69 297zM332 563q0 -192 106 -300.5t293 -108.5q220 0 351.5 136.5t131.5 364.5q0 194 -105 302t-294 108q-220 0 -351.5 -137t-131.5 -365z" />
<glyph unicode="R" horiz-adv-x="1468" d="M-33 0q56 39 85 88.5t44 138.5l133 748q5 30 7 53.5t2 44.5q0 50 -15 84t-49 62h651q168 0 249.5 -9.5t144.5 -31.5q94 -34 149 -111.5t55 -175.5q0 -155 -111.5 -247t-334.5 -120q82 -30 136.5 -87t111.5 -181q14 -30 36 -87q52 -131 99 -169h-360q12 17 18 34t6 38 q0 72 -32.5 153.5t-86.5 141.5q-61 68 -148 97.5t-235 29.5h-155l-43 -250q-5 -25 -8 -51t-3 -50q0 -48 15 -82t49 -61h-410zM395 653h385q207 0 310.5 58t103.5 174q0 94 -72 133t-266 39h-389z" />
<glyph unicode="S" horiz-adv-x="1319" d="M2 266q140 -59 281.5 -90t271.5 -31q165 0 265 61t100 156q0 104 -227 163q-64 17 -101 28q-246 70 -330 140t-84 181q0 180 160.5 276.5t458.5 96.5q118 0 250.5 -21.5t146.5 -21.5q13 0 31.5 4t52.5 15l-68 -234q-93 44 -193 64t-226 20q-179 0 -275 -42.5t-96 -121.5 q0 -60 63 -100t209 -72q284 -62 374.5 -138.5t90.5 -215.5q0 -194 -169 -303t-474 -109q-111 0 -228.5 19.5t-125.5 19.5q-21 0 -75 -15q-7 -2 -11 -3z" />
<glyph unicode="T" horiz-adv-x="1305" d="M51 969q20 42 57 108.5t37 87.5q0 7 -2 18.5t-8 34.5l1176 1q-10 -29 -14.5 -49t-4.5 -33q0 -18 17 -78t24 -90q-49 43 -116.5 61.5t-190.5 18.5h-188l-144 -804q-5 -27 -7.5 -51.5t-2.5 -46.5q0 -50 15.5 -85t50.5 -62h-437q56 37 86 86t47 143l148 820h-207 q-117 0 -194 -19t-142 -61z" />
<glyph unicode="U" horiz-adv-x="1495" d="M125 377q0 43 5 92t20 137l65 367q4 22 6 46t2 52q0 49 -15.5 84t-49.5 64h436q-56 -36 -86.5 -87.5t-46.5 -142.5l-78 -426q-8 -50 -12 -92.5t-4 -79.5q0 -111 80.5 -177.5t218.5 -66.5q189 0 292 105t146 352l63 369q4 22 6.5 47t2.5 53q0 51 -15.5 85t-48.5 61h428 q-56 -38 -86 -87t-47 -143l-66 -377q-1 -7 -3 -20q-41 -238 -107 -346q-85 -139 -226.5 -207t-347.5 -68q-248 0 -390 108.5t-142 297.5z" />
<glyph unicode="V" horiz-adv-x="1477" d="M31 1219h436q-35 -24 -51.5 -56.5t-16.5 -77.5q0 -27 4 -52.5t11 -49.5l207 -737l487 721q35 50 53.5 94t18.5 76q0 21 -9 39t-34 43h456q-62 -50 -120.5 -116t-116.5 -151l-600 -870q-10 -15 -15.5 -27t-5.5 -22q0 -5 2 -12t8 -21h-337q16 19 21 28t5 17q0 5 -2 16.5 t-6 26.5l-246 858q-34 120 -67 176.5t-82 96.5z" />
<glyph unicode="W" horiz-adv-x="1892" d="M31 1219h403q-39 -35 -59.5 -83.5t-20.5 -105.5q0 -7 1 -17t3 -29l117 -785l371 930q6 17 9 29.5t3 21.5q0 5 -3.5 14.5t-10.5 23.5l344 1q-12 -17 -17.5 -31t-5.5 -27q0 -9 1 -21t1 -14l119 -927l316 739q17 41 26.5 82.5t9.5 77.5q0 43 -11.5 72t-37.5 49h400 q-87 -85 -175 -284l-6 -14l-370 -849q-5 -11 -8 -21t-3 -16q0 -7 3 -15t9 -20h-366q13 19 18 30t5 21q0 11 -1 22t-3 23l-115 879l-357 -896q-1 -4 -4 -13q-8 -22 -8 -27q0 -7 3 -16t12 -23h-365q13 19 19 33t6 24q0 2 -2 17t-5 35l-129 829q-15 101 -42.5 167t-73.5 114z " />
<glyph unicode="X" horiz-adv-x="1405" d="M-139 0q152 95 308 253q17 17 24 23l374 381l-248 328q-69 92 -125 149t-104 85h465q-18 -11 -27.5 -27.5t-9.5 -38.5q0 -25 13 -53.5t51 -79.5l149 -197l223 234q28 29 43 54.5t15 43.5q0 19 -9.5 34t-29.5 30h450q-98 -64 -265 -235l-1 -1l-309 -319l311 -414l9 -12 q134 -179 225 -238h-475q25 17 38 36.5t13 43.5q0 21 -11 45.5t-34 56.5l-240 316l-270 -281q-42 -43 -64 -80.5t-22 -64.5q0 -24 14 -42t41 -30h-522z" />
<glyph unicode="Y" horiz-adv-x="1411" d="M-35 1219h479q-22 -16 -33.5 -35.5t-11.5 -44.5q0 -26 16 -66t46 -88l229 -377l346 400q39 45 58.5 80t19.5 61q0 25 -10 42t-31 28h457q-58 -43 -120.5 -105t-154.5 -170l-469 -545l-28 -153q-4 -21 -6 -46t-2 -55q0 -50 14.5 -83.5t48.5 -61.5h-434q56 37 86 87t47 142 l33 170l-342 555q-63 102 -124.5 170t-113.5 95z" />
<glyph unicode="Z" horiz-adv-x="1294" d="M-29 0l867 1044h-310q-157 0 -247.5 -16.5t-159.5 -54.5q15 48 40 109t25 75q0 11 -4.5 26.5t-13.5 34.5l1092 1l-857 -1045h353q203 0 293 22.5t163 75.5q-19 -56 -48 -124.5t-29 -81.5q0 -14 4.5 -30t13.5 -36h-1182z" />
<glyph unicode="[" horiz-adv-x="915" d="M82 -176q23 11 38 43t27 100l199 1161q2 15 3 26t1 20q0 25 -6 41t-20 32h671q-23 -24 -34 -47.5t-11 -48.5q0 -13 5 -28.5t15 -34.5l-397 -1l-188 -1103h395q-19 -24 -29 -50t-10 -53q0 -13 3 -27t10 -30h-672z" />
<glyph unicode="\" horiz-adv-x="621" d="M125 1247h196q-9 -33 -13.5 -57.5t-4.5 -42.5q0 -3 1 -8.5t1 -8.5l176 -1199q3 -24 13 -55t26 -66h-194q8 33 12 56.5t4 39.5q0 4 -1 10.5t-1 9.5l-176 1200q-3 26 -13 57t-26 64z" />
<glyph unicode="]" horiz-adv-x="915" d="M-131 -176q22 22 33.5 46.5t11.5 49.5q0 15 -4.5 30.5t-13.5 32.5l397 1l186 1103h-395q20 25 30.5 51t10.5 52q0 10 -2.5 22.5t-9.5 34.5h671q-26 -14 -41.5 -47.5t-25.5 -95.5l-199 -1162q-1 -9 -1.5 -18t-0.5 -28q0 -26 6 -42t21 -30h-674z" />
<glyph unicode="^" horiz-adv-x="2048" d="M418 899l497 561h218l495 -561h-207l-397 397l-399 -397h-207z" />
<glyph unicode="_" horiz-adv-x="1024" d="M0 -311h1024v-172h-1024v172z" />
<glyph unicode="`" horiz-adv-x="1024" d="M373 1315q0 29 21 50t50 21q24 0 47.5 -15.5t51.5 -49.5l231 -295h-90l-250 201q-37 31 -49 49.5t-12 38.5z" />
<glyph unicode="a" horiz-adv-x="1174" d="M33 238q0 160 153.5 233.5t491.5 73.5q37 0 79.5 -1.5t86.5 -4.5q1 6 2 17q6 46 6 65q0 75 -50 108t-167 33q-95 0 -215.5 -28t-267.5 -85l67 237q17 -6 33.5 -10t32.5 -4q9 0 136.5 20.5t248.5 20.5q199 0 294 -63.5t95 -198.5q0 -20 -3 -46.5t-12 -80.5l-45 -270 q-1 -6 -2 -17q-10 -60 -10 -83q0 -46 14.5 -81.5t49.5 -72.5h-184q-23 9 -37.5 34.5t-16.5 61.5q-79 -64 -176 -94.5t-227 -30.5q-181 0 -279 69.5t-98 197.5zM262 236q0 -53 51 -84t140 -31q159 0 247 60.5t115 189.5l6 28q-7 0 -44.5 2t-67.5 2q-227 0 -337 -41t-110 -126 z" />
<glyph unicode="b" horiz-adv-x="1239" d="M-35 0q56 38 85.5 88t49.5 166l127 714q3 18 4.5 39.5t1.5 45.5q0 51 -18 90t-55 69h348q-19 -24 -30 -50.5t-17 -63.5l-51 -289q60 49 143.5 75.5t177.5 26.5q205 0 320.5 -109t115.5 -302q0 -235 -152.5 -382t-398.5 -147q-119 0 -208 37.5t-140 108.5q-10 -61 -34 -89 t-66 -28h-203zM340 383q0 -124 67 -190t193 -66q152 0 247 107t95 276q0 120 -66.5 185t-189.5 65q-149 0 -247.5 -108.5t-98.5 -268.5z" />
<glyph unicode="c" horiz-adv-x="1053" d="M61 385q0 232 168.5 380t438.5 148q83 0 178.5 -19.5t109.5 -19.5q11 1 26.5 3.5t35.5 6.5l-66 -210q-71 36 -143 53.5t-143 17.5q-168 0 -270.5 -98.5t-102.5 -255.5q0 -120 74.5 -188t205.5 -68q88 0 181 26t170 72l-44 -239q-23 6 -35 8t-20 2q-11 0 -98.5 -16.5 t-163.5 -16.5q-235 0 -368.5 110t-133.5 304z" />
<glyph unicode="d" horiz-adv-x="1262" d="M66 369q0 239 152 392.5t394 153.5q113 0 201 -33.5t141 -97.5l31 182q3 20 4.5 41.5t1.5 45.5q0 51 -18 90t-55 69h348q-20 -25 -32 -52.5t-18 -62.5l-141 -811q-5 -28 -7.5 -56.5t-2.5 -59.5q0 -55 17 -91.5t63 -78.5h-189q-35 8 -54 36t-19 70q-65 -65 -163.5 -99 t-221.5 -34q-200 0 -316 107t-116 289zM291 379q0 -124 67.5 -190t194.5 -66q149 0 244.5 108t95.5 277q0 120 -66.5 185t-189.5 65q-150 0 -248 -108.5t-98 -270.5z" />
<glyph unicode="e" horiz-adv-x="1200" d="M68 395q0 229 159.5 373.5t415.5 144.5q223 0 340 -96t117 -278q0 -38 -6.5 -84.5t-20.5 -108.5q-13 11 -31 16t-53 5h-700q0 -114 86 -176t243 -62q100 0 201 24.5t193 69.5l-40 -231q-5 1 -17 4q-37 8 -52 8t-118 -16.5t-191 -16.5q-258 0 -392 108.5t-134 315.5z M311 514h583q4 21 4.5 29.5t0.5 15.5q0 99 -65 152t-187 53q-127 0 -216 -66.5t-120 -183.5z" />
<glyph unicode="f" horiz-adv-x="768" d="M0 666l76 225q16 -12 41.5 -20.5t50.5 -8.5h104q34 198 134 288.5t284 90.5q58 0 123 -13.5t72 -13.5q4 0 15 2t23 4l-55 -176q-40 22 -85.5 32.5t-92.5 10.5q-97 0 -152 -55.5t-55 -154.5v-15h203q74 0 111 6.5t59 22.5l-70 -225q-15 17 -39.5 24.5t-74.5 7.5h-217 l-80 -454q-9 -53 -13 -82.5t-4 -44.5q0 -38 17 -66.5t53 -50.5h-405q57 41 90 98.5t49 145.5l80 454h-101q-37 0 -72.5 -8t-68.5 -24z" />
<glyph unicode="g" horiz-adv-x="1249" d="M31 -260l47 229q109 -41 224.5 -62.5t225.5 -21.5q146 0 219.5 63.5t96.5 209.5q-64 -56 -149.5 -84.5t-190.5 -28.5q-202 0 -316 100.5t-114 276.5q0 214 151.5 353.5t384.5 139.5q130 0 224 -40t141 -115q15 59 36.5 80.5t63.5 21.5h162q-34 -25 -54.5 -65t-35.5 -115 l-74 -406q-28 -152 -50.5 -227.5t-49.5 -118.5q-70 -106 -178.5 -153t-286.5 -47q-101 0 -231.5 17t-161.5 17q-21 0 -42 -6t-42 -18zM295 422q0 -106 67 -165.5t187 -59.5q152 0 251 98.5t99 245.5q0 102 -67.5 161.5t-184.5 59.5q-154 0 -253 -97.5t-99 -242.5z" />
<glyph unicode="h" horiz-adv-x="1272" d="M-41 0q56 38 88.5 96t48.5 148l127 724q5 29 6.5 47.5t1.5 37.5q0 50 -18.5 89.5t-56.5 69.5h352q-17 -21 -27.5 -44.5t-19.5 -69.5l-58 -305q92 61 194 91.5t212 30.5q166 0 256 -71t90 -201q0 -28 -2.5 -57t-7.5 -61l-49 -281q-8 -43 -12.5 -78t-4.5 -49 q0 -38 17 -66.5t53 -50.5h-404q57 40 89.5 97.5t48.5 146.5l49 275q5 30 7.5 53t2.5 38q0 73 -44.5 109.5t-131.5 36.5q-167 0 -281.5 -93.5t-144.5 -256.5l-31 -162q-7 -43 -11.5 -78t-4.5 -49q0 -37 17.5 -66t54.5 -51h-406z" />
<glyph unicode="i" horiz-adv-x="498" d="M-39 0q56 39 90 98.5t49 145.5l68 397q9 57 12.5 86t3.5 45q0 35 -16.5 62t-52.5 51h338q-19 -23 -31 -57.5t-23 -92.5l-86 -491q-7 -42 -11.5 -76.5t-4.5 -50.5q0 -38 17 -66.5t53 -50.5h-406zM199 1108q0 52 30.5 82.5t83.5 30.5q65 0 104.5 -27.5t39.5 -71.5 q0 -50 -31 -80t-82 -30q-65 0 -105 26.5t-40 69.5z" />
<glyph unicode="j" horiz-adv-x="535" d="M-248 -258l33 201q43 -20 79.5 -29.5t67.5 -9.5q80 0 120 51t65 195l86 491q7 42 11.5 77.5t4.5 53.5q0 34 -17.5 61.5t-54.5 51.5h340q-17 -21 -29.5 -55.5t-23.5 -94.5l-106 -606q-39 -223 -124.5 -307t-256.5 -84q-34 0 -83 6t-65 6q-11 0 -23 -2t-24 -6zM231 1108 q0 52 31 82.5t84 30.5q65 0 105.5 -27.5t40.5 -71.5q0 -49 -31.5 -79.5t-83.5 -30.5q-66 0 -106 26.5t-40 69.5z" />
<glyph unicode="k" horiz-adv-x="1214" d="M-39 0q56 39 89 97.5t48 146.5l127 729q5 26 6.5 45.5t1.5 36.5q0 51 -17.5 89t-55.5 68h329q-17 -22 -27.5 -47.5t-19.5 -66.5l-110 -619l456 293q35 23 47.5 37.5t12.5 30.5q0 5 -3.5 12.5t-17.5 28.5h457q-59 -25 -110 -51t-87 -50l-354 -235l256 -320 q63 -79 119.5 -130.5t126.5 -94.5h-426q17 16 25 30.5t8 30.5q0 15 -7 30.5t-24 35.5l-250 305l-264 -164l-8 -46q-8 -37 -11.5 -64.5t-3.5 -51.5q0 -30 18 -57t52 -49h-383z" />
<glyph unicode="l" horiz-adv-x="494" d="M-43 0q56 38 90 97t49 147l127 724q5 29 6.5 46.5t1.5 34.5q0 51 -18 91t-57 72h350q-20 -25 -31 -51.5t-16 -62.5l-150 -854q-10 -61 -13 -86t-3 -39q0 -38 17 -67t52 -52h-405z" />
<glyph unicode="m" horiz-adv-x="1913" d="M-39 0q57 39 90.5 97t48.5 147l70 397q9 53 12.5 82.5t3.5 44.5q0 37 -16.5 65.5t-52.5 51.5h190q23 0 43.5 5t44.5 17l-24 -137q90 72 189 108.5t204 36.5q120 0 198.5 -43.5t100.5 -121.5q97 83 199.5 124t212.5 41q152 0 236.5 -70t84.5 -196q0 -39 -2.5 -69t-7.5 -55 l-49 -281q-8 -41 -12.5 -74.5t-4.5 -52.5q0 -38 17 -66.5t53 -50.5h-406q58 41 91 98.5t49 145.5l47 275q5 28 7.5 52.5t2.5 42.5q0 66 -39.5 101t-114.5 35q-138 0 -242 -94t-132 -250l-29 -162q-8 -45 -12 -79.5t-4 -47.5q0 -39 16.5 -67t52.5 -50h-403q56 41 88.5 97.5 t48.5 146.5l49 274q5 28 7.5 52.5t2.5 43.5q0 67 -39 101.5t-114 34.5q-140 0 -243 -93.5t-132 -250.5l-29 -162q-7 -43 -11.5 -78t-4.5 -49q0 -38 17 -66.5t53 -50.5h-406z" />
<glyph unicode="n" horiz-adv-x="1274" d="M-39 0q57 39 90.5 97t48.5 147l70 397q9 53 12.5 82.5t3.5 44.5q0 37 -16.5 65t-52.5 52h190q23 0 43.5 5t44.5 17l-26 -139q100 74 212 112t232 38q169 0 257.5 -73.5t88.5 -213.5q0 -22 -2.5 -47.5t-7.5 -59.5l-51 -280q-8 -43 -12.5 -78t-4.5 -49q0 -37 18 -66t54 -51 h-405q57 41 90 98.5t49 145.5l49 274q4 24 6 48t2 44q0 73 -44 109.5t-132 36.5q-167 0 -281.5 -93.5t-144.5 -256.5l-29 -162q-7 -43 -11.5 -78t-4.5 -49q0 -38 17 -66.5t53 -50.5h-406z" />
<glyph unicode="o" horiz-adv-x="1241" d="M63 401q0 232 162.5 373t433.5 141q236 0 371 -115.5t135 -316.5q0 -232 -160 -372t-432 -140q-236 0 -373 116t-137 314zM291 406q0 -126 78 -199.5t213 -73.5q160 0 259 96t99 248q0 127 -78.5 202t-214.5 75q-160 0 -258 -96.5t-98 -251.5z" />
<glyph unicode="p" horiz-adv-x="1239" d="M-88 -270q57 41 90.5 98.5t48.5 144.5l119 668q8 41 12 75t4 56q0 35 -17.5 63t-53.5 50h176q33 0 52 -22t19 -58v-4q-2 -11 -2 -21q82 69 176 101t214 32q191 0 304 -109.5t113 -295.5q0 -240 -151 -388.5t-393 -148.5q-103 0 -186.5 29t-149.5 88l-23 -115 q-8 -39 -12 -73t-4 -54q0 -39 16.5 -67t52.5 -49h-405zM338 369q0 -118 67 -180t195 -62q144 0 245 115t101 282q0 111 -66.5 173.5t-183.5 62.5q-153 0 -255.5 -112.5t-102.5 -278.5z" />
<glyph unicode="q" horiz-adv-x="1245" d="M68 383q0 230 152 381t388 151q128 0 219 -39t140 -116q18 69 43 97t71 28h187q-54 -39 -84.5 -95.5t-46.5 -148.5l-119 -668q-8 -41 -12.5 -75t-4.5 -52q0 -40 16.5 -67.5t53.5 -48.5h-403q56 39 90 100t47 143l14 86q-73 -42 -150.5 -63t-164.5 -21q-204 0 -320 108.5 t-116 299.5zM291 379q0 -124 67.5 -190t194.5 -66q149 0 244.5 108t95.5 277q0 120 -66.5 185t-189.5 65q-150 0 -248 -108.5t-98 -270.5z" />
<glyph unicode="r" horiz-adv-x="838" d="M-39 0q56 38 90 97t49 147l70 397q9 53 12.5 80.5t3.5 44.5q0 37 -16 65t-53 54h190q26 0 48 5.5t42 16.5l-30 -147q67 70 155 106.5t191 36.5q44 0 104.5 -10t77.5 -10q5 0 17 2.5t18 3.5l-86 -189q-41 23 -78.5 34t-73.5 11q-133 0 -229.5 -102t-128.5 -281l-21 -118 q-7 -42 -11.5 -75t-4.5 -50q0 -39 16 -67.5t52 -51.5h-404z" />
<glyph unicode="s" horiz-adv-x="1112" d="M45 233q115 -48 222.5 -74t195.5 -26q144 0 219.5 29.5t75.5 85.5q0 44 -61.5 75t-200.5 56q-179 30 -261.5 92.5t-82.5 165.5q0 131 126 203.5t357 72.5q143 0 308 -28q48 -8 61 -8q10 0 23 2.5t29 7.5l-63 -199q-74 33 -163 50.5t-185 17.5q-123 0 -192.5 -28.5 t-69.5 -78.5q0 -38 48 -62t173 -44q216 -36 294.5 -96t78.5 -171q0 -140 -123.5 -222.5t-339.5 -82.5q-122 0 -240 19l-118 18q-13 0 -25.5 -4t-25.5 -12z" />
<glyph unicode="t" horiz-adv-x="893" d="M-10 666l71 225q23 -18 51 -26.5t64 -8.5q73 0 106 28t50 117l18 107q2 10 3 19t1 18t-2.5 19t-11.5 32h242q-31 -36 -39 -87v-1l-45 -246h223q74 0 111 6.5t59 22.5l-70 -225q-15 17 -40.5 24.5t-73.5 7.5h-240l-53 -292q-9 -49 -12 -71t-3 -36q0 -73 43 -108t131 -35 q67 0 121.5 12.5t100.5 38.5l-56 -201q-3 1 -6 1q-21 3 -28 3q-10 0 -69.5 -9t-109.5 -9q-173 0 -259.5 63t-86.5 189q0 51 20 164l1 6l53 284h-121q-40 0 -77.5 -8.5t-65.5 -23.5z" />
<glyph unicode="u" horiz-adv-x="1272" d="M92 250q0 27 3 55t9 60l50 278q7 40 11.5 72.5t4.5 50.5q0 36 -16.5 63.5t-53.5 51.5h330q-41 -33 -61 -138q-3 -16 -5 -25l-63 -349q-4 -24 -6 -48t-2 -49q0 -75 46 -113t138 -38q175 0 291.5 93.5t146.5 258.5l31 170q8 41 12.5 74t4.5 49q0 37 -16.5 64.5t-51.5 50.5 h328q-42 -32 -64 -154l-2 -8l-82 -459q-6 -36 -9 -68.5t-3 -58.5q0 -44 16 -74t54 -59h-179q-35 6 -53.5 35t-22.5 83q-95 -73 -207 -111t-235 -38q-167 0 -255.5 72t-88.5 209z" />
<glyph unicode="v" horiz-adv-x="1108" d="M-41 885h406q-29 -32 -41.5 -58.5t-12.5 -54.5q0 -18 3.5 -37.5t11.5 -40.5l163 -508l316 490q23 35 34 64.5t11 54.5q0 23 -10 44t-33 46h403q-51 -43 -98 -96.5t-92 -120.5l-400 -589q-3 -4 -8 -11q-16 -22 -16 -33q0 -7 2 -15.5t6 -19.5h-297q9 15 14 26t5 17 q0 7 -3 18t-10 27l-198 553q-36 98 -72.5 155.5t-83.5 88.5z" />
<glyph unicode="w" horiz-adv-x="1794" d="M-6 885h381q-31 -36 -44.5 -65t-13.5 -58q0 -20 2 -37.5t7 -34.5l120 -495l359 614q7 13 10.5 23t3.5 18q0 4 -1.5 13t-4.5 21l277 1q-11 -17 -16 -28.5t-5 -18.5q0 -8 3 -23q1 -6 1 -8l135 -614l289 501q17 30 26 58.5t9 52.5q0 20 -10 39t-31 41h391 q-63 -51 -104.5 -95.5t-69.5 -91.5l-379 -624q-10 -16 -14 -25.5t-4 -17.5q0 -7 1.5 -14.5t3.5 -16.5h-298q16 20 21 30t5 17q0 10 -1.5 20.5t-4.5 21.5l-129 556l-336 -572q-8 -13 -12 -23t-4 -17q0 -5 1.5 -14t4.5 -19h-289q13 28 17 39t4 18q0 5 -3 19t-7 28l-150 533 q-22 80 -56 140t-85 108z" />
<glyph unicode="x" horiz-adv-x="1143" d="M-131 0q56 34 110 74.5t107 87.5l342 301l-207 252q-45 53 -95 95.5t-108 74.5h451q-22 -17 -32.5 -32.5t-10.5 -33.5q0 -27 33 -71q6 -8 8 -11l119 -159l176 172q30 28 39.5 43t9.5 30q0 16 -8.5 31t-28.5 31h420q-51 -37 -101 -76t-104 -86l-295 -262l217 -264 q65 -80 111.5 -125t89.5 -72h-444q29 12 42 28t13 40q0 20 -11 43t-32 49l-148 180l-194 -184q-39 -36 -53.5 -57t-14.5 -42q0 -12 8.5 -26.5t24.5 -30.5h-434z" />
<glyph unicode="y" horiz-adv-x="1110" d="M-33 885h400q-28 -24 -41 -48t-13 -51q0 -23 5.5 -50t15.5 -54l168 -453l286 430q29 44 44.5 81.5t15.5 62.5q0 21 -8 39t-29 43h385q-47 -43 -88.5 -92t-81.5 -105l-477 -688q-50 -72 -71 -117t-21 -78q0 -19 4.5 -37t13.5 -38h-418q58 42 110 95.5t103 123.5l82 110 l-223 582q-28 76 -70 139t-92 105z" />
<glyph unicode="z" horiz-adv-x="1090" d="M-43 0l690 721h-254q-97 0 -169 -16.5t-134 -51.5l64 140q7 15 11.5 29t4.5 20q0 7 -4.5 18t-13.5 25h907l-682 -719h278q138 0 217 15t134 48l-70 -137q-8 -16 -12 -28.5t-4 -20.5q0 -7 3 -16t13 -27h-979z" />
<glyph unicode="{" horiz-adv-x="1024" d="M162 442v179q7 0 21.5 -1.5t21.5 -1.5q126 0 178.5 59t52.5 202v247q0 145 23 206.5t80 94.5q44 27 109 38.5t181 11.5h45v-179q-8 0 -24 1t-23 1q-109 0 -147.5 -41.5t-38.5 -173.5v-241q0 -155 -44 -220.5t-159 -93.5q114 -27 158.5 -92.5t44.5 -220.5v-240 q0 -132 39.5 -174.5t148.5 -42.5q7 0 22 1t23 1v-176h-63q-102 0 -165.5 12t-106.5 37q-57 34 -80 96t-23 203v248q0 144 -52.5 203t-178.5 59q-7 0 -21.5 -1t-21.5 -1z" />
<glyph unicode="|" horiz-adv-x="1024" d="M424 -483v2048h178v-2048h-178z" />
<glyph unicode="}" horiz-adv-x="1024" d="M152 -238q8 0 23 -1t22 -1q109 0 147.5 42t38.5 175v240q0 153 45 219t160 94q-115 28 -160 93.5t-45 220.5v241q0 132 -38 173.5t-146 41.5q-7 0 -23 -1t-24 -1v179h45q115 0 179.5 -11.5t108.5 -38.5q57 -33 80 -95t23 -206v-247q0 -144 52 -202.5t179 -58.5 q6 0 21 1.5t22 1.5v-179q-7 0 -21.5 1t-21.5 1q-126 0 -178.5 -59t-52.5 -203v-248q0 -143 -23 -204t-80 -95q-43 -26 -108 -37.5t-180 -11.5h-45v176z" />
<glyph unicode="~" horiz-adv-x="1706" d="M178 434v187q106 72 202 107.5t185 35.5q62 0 125.5 -12t168.5 -48q13 -4 42 -15q164 -58 250 -58q85 0 177 37t202 116v-184q-103 -71 -197.5 -106t-183.5 -35q-44 0 -92.5 8.5t-98.5 26.5q-25 8 -76 26q-212 74 -319 74q-82 0 -174 -38t-211 -122z" />
<glyph unicode="&#xa0;" />
<glyph unicode="&#xa1;" horiz-adv-x="737" d="M131 147q0 50 11 120t32 153l31 112q40 155 88.5 239.5t95.5 84.5q40 0 58 -36t18 -118q0 -50 -4 -106.5t-12 -114.5l-19 -123q-23 -167 -81.5 -268.5t-129.5 -101.5q-40 0 -64 43t-24 116zM301 1108q0 62 43 99.5t115 37.5q75 0 119.5 -33.5t44.5 -89.5 q0 -64 -43.5 -101.5t-118.5 -37.5q-71 0 -115.5 35t-44.5 90z" />
<glyph unicode="&#xa2;" d="M172 551q0 217 149 364.5t384 159.5l14 92q0 2 1 7.5t1 7.5q0 14 -5.5 28t-17.5 31h193q-16 -16 -25 -35.5t-12 -44.5l-14 -90q49 -5 104 -11.5t60 -6.5t19 -1t21 -1q19 0 36 4.5t34 13.5l-67 -225q-39 33 -93.5 50.5t-138.5 22.5l-96 -609q87 1 171 28t159 78l-58 -248 q-13 8 -24 12t-21 4q-1 0 -83 -14t-169 -23l-14 -88q0 -2 -1 -7t-1 -7q0 -16 4.5 -32.5t13.5 -30.5h-190q15 17 24.5 38.5t14.5 47.5l12 81q-190 17 -287.5 119.5t-97.5 284.5zM387 551q0 -105 54 -170.5t143 -68.5l94 599q-128 -12 -209.5 -113t-81.5 -247z" />
<glyph unicode="&#xa3;" d="M10 0q132 157 197.5 299.5t68.5 278.5h-114q-34 0 -67.5 -6t-63.5 -17l71 114q20 32 45.5 45t81.5 13h63q4 251 133.5 385.5t367.5 134.5q105 0 240.5 -36.5t168.5 -36.5q6 0 16 1t31 4l-73 -221q-104 62 -196.5 92.5t-176.5 30.5q-136 0 -202 -85t-73 -269h353 q58 0 90 5t57 18l-61 -97q-27 -42 -61.5 -58.5t-100.5 -16.5h-289q-9 -146 -50.5 -246.5t-119.5 -169.5h418q117 0 161 23t44 79q0 31 -15 57.5t-39 36.5l213 106q-1 -3 -1.5 -7t-0.5 -13q0 -11 18.5 -73.5t18.5 -114.5q0 -131 -97 -193.5t-300 -62.5h-756z" />
<glyph unicode="&#xa4;" horiz-adv-x="1241" d="M76 432l203 205q-40 53 -60 115.5t-20 132.5q0 69 20 131.5t60 116.5l-203 204l92 93l203 -203q55 41 117 61.5t133 20.5t134 -20.5t117 -61.5l203 203l94 -93l-204 -204q39 -54 59 -116.5t20 -131.5q0 -70 -20 -132.5t-59 -115.5l204 -205l-94 -92l-203 205 q-57 -42 -118 -62t-131 -20q-72 0 -135 20.5t-117 61.5l-203 -205zM332 885q0 -120 84.5 -204.5t206.5 -84.5q121 0 205.5 84.5t84.5 204.5q0 119 -85.5 205t-204.5 86q-120 0 -205.5 -86t-85.5 -205z" />
<glyph unicode="&#xa5;" d="M12 487l19 97h389l-88 172h-271l17 96h205l-52 102q-48 95 -97 162.5t-95 102.5h414q-23 -16 -34 -36t-11 -46q0 -25 11 -59.5t34 -80.5l200 -409l308 420q37 50 54 84t17 57q0 24 -9.5 40.5t-31.5 29.5h418q-76 -60 -146 -131t-124 -144l-68 -92h225l-16 -96h-281 l-129 -172h379l-16 -97h-434l-68 -88l-29 -153q-4 -21 -6 -46t-2 -55q0 -48 15.5 -82t50.5 -63h-414q56 36 86.5 87t46.5 142l31 170l-43 88h-455z" />
<glyph unicode="&#xa6;" horiz-adv-x="1024" d="M424 -350v758h178v-758h-178zM424 674v758h178v-758h-178z" />
<glyph unicode="&#xa7;" horiz-adv-x="1120" d="M-37 -160l90 170q91 -74 193 -113.5t203 -39.5q85 0 134.5 37t49.5 100q0 62 -48.5 114t-178.5 121q-176 93 -224.5 154t-48.5 147q0 97 68.5 170t183.5 97q-51 33 -74.5 76t-23.5 100q0 122 107.5 198t287.5 76q86 0 199.5 -22.5t142.5 -22.5q3 0 10 1t10 1l-59 -174 q-65 44 -135.5 65t-153.5 21q-101 0 -159 -35t-58 -96q0 -50 41 -89t160 -95q185 -88 241 -152.5t56 -159.5q0 -105 -71.5 -181t-186.5 -93q53 -47 78.5 -97t25.5 -108q0 -127 -102.5 -205.5t-271.5 -78.5q-125 0 -282.5 56.5t-203.5 57.5zM307 557q0 -87 104 -155t228 -68 q74 0 120 38t46 99q0 80 -105.5 148.5t-226.5 68.5q-72 0 -119 -37.5t-47 -93.5z" />
<glyph unicode="&#xa8;" horiz-adv-x="1024" d="M342 1186q0 41 33.5 74.5t75.5 33.5q45 0 77.5 -32t32.5 -76q0 -49 -31.5 -81t-78.5 -32q-45 0 -77 33t-32 80zM698 1186q0 41 34.5 74.5t76.5 33.5q45 0 78 -32t33 -76q0 -49 -31.5 -81t-79.5 -32q-45 0 -78 33t-33 80z" />
<glyph unicode="&#xa9;" horiz-adv-x="1706" d="M113 731q0 145 57 280.5t164 243.5q105 107 235.5 161t282.5 54t286 -55t240 -162q105 -105 160 -238.5t55 -283.5q0 -153 -54.5 -286t-158.5 -234q-108 -107 -244.5 -164t-283.5 -57q-146 0 -280 56.5t-240 162.5q-107 106 -163 240.5t-56 281.5zM223 731 q0 -126 48 -240t139 -204q90 -91 204.5 -139t239.5 -48t240 48.5t209 140.5q89 88 135.5 200.5t46.5 241.5t-47 243.5t-135 203.5q-91 90 -205 137t-244 47t-243 -46.5t-201 -135.5q-90 -92 -138.5 -208t-48.5 -241zM457 725q0 208 109.5 331.5t291.5 123.5q147 0 243 -77 t105 -200h-166q-10 74 -60 114t-130 40q-99 0 -155 -86.5t-56 -239.5q0 -152 57.5 -234.5t163.5 -82.5q80 0 129 43.5t60 124.5h165q-7 -135 -106.5 -217t-253.5 -82q-183 0 -290 119t-107 323z" />
<glyph unicode="&#xaa;" horiz-adv-x="881" d="M25 764q0 112 114.5 163.5t368.5 51.5q48 0 74.5 -1t49.5 -3q4 17 5.5 31.5t1.5 25.5q0 53 -37 75.5t-125 22.5q-72 0 -162.5 -19t-199.5 -58l49 165q14 -4 27.5 -7t21.5 -3t103 14.5t186 14.5q150 0 221.5 -44.5t71.5 -137.5q0 -15 -2.5 -35.5t-8.5 -54.5l-34 -189 q-1 -3 -2 -8q-7 -45 -7 -61q0 -34 11 -59t36 -50h-139q-16 6 -26.5 24t-12.5 43q-60 -45 -132.5 -66t-170.5 -21q-135 0 -208.5 48.5t-73.5 137.5zM197 764q0 -38 38 -60t105 -22q119 0 185.5 43t86.5 133l4 21q-5 0 -33 1t-51 1q-170 0 -252.5 -29t-82.5 -88z" />
<glyph unicode="&#xab;" horiz-adv-x="942" d="M63 442l334 406h146l-281 -406l180 -405h-145zM434 442l334 406h145l-278 -406l178 -405h-145z" />
<glyph unicode="&#xac;" horiz-adv-x="1706" d="M254 696v166h1198v-502h-166v336h-1032z" />
<glyph unicode="&#xad;" horiz-adv-x="713" d="M37 340l78 154q13 27 39 38t90 11h256q58 0 97.5 7.5t64.5 22.5l-78 -153q-13 -27 -37.5 -38t-91.5 -11h-258q-58 0 -97 -7.5t-63 -23.5z" />
<glyph unicode="&#xae;" horiz-adv-x="1706" d="M113 731q0 147 57.5 284t165.5 245q104 104 234.5 157t281.5 53q153 0 288.5 -56t241.5 -165q103 -104 157 -236.5t54 -281.5q0 -153 -55.5 -287t-161.5 -237q-108 -105 -243 -161t-281 -56q-147 0 -282.5 57.5t-241.5 165.5q-105 106 -160 239t-55 279zM223 731 q0 -125 47 -238.5t136 -203.5q90 -91 204 -140t234 -49q130 0 246.5 47t209.5 138q89 86 137 198.5t48 237.5q0 133 -45.5 247.5t-134.5 205.5q-93 92 -207.5 140t-243.5 48t-240 -45.5t-200 -134.5q-92 -94 -141.5 -210t-49.5 -241zM551 330v829h319q173 0 262 -57t89 -168 q0 -91 -48 -150.5t-137 -78.5l185 -375h-199l-164 346h-129v-346h-178zM729 786h117q100 0 146 30.5t46 96.5q0 69 -48 101.5t-152 32.5h-109v-261z" />
<glyph unicode="&#xaf;" horiz-adv-x="1024" d="M346 1116l29 137h540l-28 -137h-541z" />
<glyph unicode="&#xb0;" horiz-adv-x="674" d="M43 1163q0 125 86 211t209 86q121 0 208 -87t87 -210q0 -121 -87 -208t-210 -87t-208 85.5t-85 209.5zM152 1165q0 -76 54.5 -131t131.5 -55t130.5 54.5t53.5 131.5t-53.5 131t-130.5 54t-131.5 -54t-54.5 -131z" />
<glyph unicode="&#xb1;" horiz-adv-x="1706" d="M254 14v168h1198v-168h-1198zM254 707v165h514v334h170v-334h514v-165h-514v-334h-170v334h-514z" />
<glyph unicode="&#xb2;" horiz-adv-x="852" d="M11 488q14 9 20 53q3 26 6 41q15 60 53.5 108t106.5 90q58 36 166 82t145 66q48 26 71 54.5t23 61.5q0 42 -33.5 64t-95.5 22q-61 0 -147 -20.5t-185 -58.5l29 166q15 -10 28 -14.5t27 -4.5q25 0 119 18.5t162 18.5q115 0 186.5 -51.5t71.5 -132.5q0 -83 -65.5 -143 t-266.5 -140q-118 -48 -164 -87t-61 -93h268q94 0 146.5 12t89.5 39l-25 -86l-4.5 -22.5t-1.5 -10.5q0 -8 10 -25q3 -5 4 -7h-683z" />
<glyph unicode="&#xb3;" horiz-adv-x="852" d="M-8 496l26 139q79 -31 153.5 -47.5t139.5 -16.5q111 0 176.5 39.5t65.5 104.5q0 54 -52 83t-149 29q-47 0 -87 -4.5t-64 -11.5l24 125q17 -9 43 -12.5t68 -3.5q124 0 192 32.5t68 91.5q0 44 -38 68.5t-105 24.5q-65 0 -148.5 -17.5t-167.5 -48.5l33 157q11 -7 20 -10 t21 -4q17 0 115.5 10.5t181.5 10.5q114 0 181 -45.5t67 -122.5q0 -72 -40.5 -119.5t-125.5 -77.5q62 -15 94.5 -52.5t32.5 -94.5q0 -115 -105.5 -183.5t-285.5 -68.5q-82 0 -180 15.5t-113 15.5q-10 0 -19.5 -1.5t-21.5 -4.5z" />
<glyph unicode="&#xb4;" horiz-adv-x="1024" d="M434 1026l295 303q28 28 55 42.5t50 14.5q27 0 48 -22.5t21 -52.5q0 -25 -15 -45.5t-50 -42.5l-312 -197h-92z" />
<glyph unicode="&#xb5;" horiz-adv-x="1208" d="M-92 -430l297 1511h229l-125 -635q-6 -29 -9 -55t-3 -49q0 -96 46.5 -146.5t135.5 -50.5q122 0 193.5 88.5t111.5 292.5l109 555h225l-145 -739q-10 -49 -14.5 -81.5t-4.5 -51.5q0 -36 15.5 -51t52.5 -15q13 0 20.5 0.5t13.5 1.5l-32 -159q-32 -9 -68.5 -13t-81.5 -4 q-74 0 -111.5 31.5t-37.5 93.5v15q-41 -67 -108 -104.5t-146 -37.5q-81 0 -137.5 26t-97.5 83l-99 -506h-229z" />
<glyph unicode="&#xb6;" horiz-adv-x="1024" d="M55 1130q0 158 107 253.5t284 95.5h523v-99h-117v-1380h-129v1380h-168v-1380h-131v784q-168 6 -268.5 101t-100.5 245z" />
<glyph unicode="&#xb7;" horiz-adv-x="645" d="M174 608q0 61 44.5 105.5t105.5 44.5t104 -44t43 -106q0 -60 -43 -102.5t-104 -42.5q-60 0 -105 43.5t-45 101.5z" />
<glyph unicode="&#xb8;" horiz-adv-x="1024" d="M176 -373l37 82q72 -38 128.5 -56t102.5 -18q54 0 80.5 23t26.5 70q0 40 -28 62t-79 22q-19 0 -42.5 -3t-46.5 -7l65 198h65l-34 -115q13 2 28 3t41 1q79 0 127.5 -45.5t48.5 -119.5q0 -80 -60.5 -127.5t-164.5 -47.5q-57 0 -125.5 18t-169.5 60z" />
<glyph unicode="&#xb9;" horiz-adv-x="852" d="M203 981l24 131q7 -8 17.5 -12t25.5 -4q73 0 132 38t59 80q0 7 -2 12t-6 9h170q-12 -14 -18.5 -29t-10.5 -39l-98 -505q-5 -27 -8 -47.5t-3 -32.5q0 -32 12.5 -55.5t37.5 -39.5h-291q41 26 62 60.5t34 107.5l74 375q-49 -29 -123.5 -36.5t-87.5 -12.5z" />
<glyph unicode="&#xba;" horiz-adv-x="932" d="M47 879q0 162 122.5 261t326.5 99q175 0 276.5 -81.5t101.5 -221.5q0 -162 -120.5 -260t-323.5 -98q-177 0 -280 81t-103 220zM219 883q0 -88 58 -139.5t159 -51.5q121 0 195 66.5t74 173.5q0 90 -59 142t-161 52q-119 0 -192.5 -67.5t-73.5 -175.5z" />
<glyph unicode="&#xbb;" horiz-adv-x="942" d="M-2 37l281 405l-179 406h144l233 -406l-334 -405h-145zM369 37l280 405l-178 406h143l234 -406l-334 -405h-145z" />
<glyph unicode="&#xbc;" horiz-adv-x="1968" d="M195 998l22 120q7 -7 17.5 -10.5t25.5 -3.5q69 0 124.5 36t55.5 77q0 5 -2 9.5t-6 8.5h164q-12 -17 -19 -32t-10 -32l-92 -471q-5 -21 -7.5 -39t-2.5 -36q0 -31 11 -52t36 -36h-279q39 24 59.5 56.5t33.5 98.5l69 350q-46 -27 -117 -33.5t-83 -10.5zM471 -29 q20 22 37 43.5t33 45.5l745 1114q9 13 13.5 27t5.5 30q0 1 -1 6.5t-1 9.5h192q-30 -35 -44.5 -53.5t-25.5 -34.5l-743 -1114q-9 -14 -13.5 -28t-4.5 -29q0 -3 1 -8.5t1 -8.5h-195zM1168 250l526 401q5 3 7.5 7.5t2.5 9.5t-1 7.5t-3 6.5h219q-12 -14 -19.5 -28.5t-11.5 -37.5 l-71 -366h26q20 0 38 5t36 15l-27 -75q-6 -20 -19 -28.5t-38 -8.5h-37l-4 -29q-2 -6 -3 -13.5t-1 -21.5q0 -29 12 -52t37 -42h-262q32 20 53 52t27 71l8 33h-455q1 1 2 4q6 15 7 24q0 22 -13 39t-36 27zM1333 250h348l66 317z" />
<glyph unicode="&#xbd;" horiz-adv-x="1968" d="M195 998l22 120q7 -7 17.5 -10.5t25.5 -3.5q69 0 124.5 36t55.5 77q0 5 -2 9.5t-6 8.5h164q-12 -17 -19 -32t-10 -32l-92 -471q-5 -21 -7.5 -39t-2.5 -36q0 -31 11 -52t36 -36h-279q39 24 59.5 56.5t33.5 98.5l69 350q-46 -27 -117 -33.5t-83 -10.5zM471 -29 q20 22 37 43.5t33 45.5l745 1114q9 13 13.5 27t5.5 30q0 1 -1 6.5t-1 9.5h192q-30 -35 -44.5 -53.5t-25.5 -34.5l-743 -1114q-9 -14 -13.5 -28t-4.5 -29q0 -3 1 -8.5t1 -8.5h-195zM1165 0q14 9 18 47q3 25 7 41q13 56 51 101.5t102 82.5q55 34 157.5 77.5t137.5 62.5 q46 24 68.5 50.5t22.5 57.5q0 39 -31.5 59.5t-89.5 20.5q-60 0 -141.5 -19t-176.5 -55l27 156q15 -10 27 -14t26 -4q23 0 113.5 16t154.5 16q110 0 178 -47.5t68 -122.5q0 -78 -62.5 -134t-252.5 -130q-112 -44 -157 -80.5t-60 -87.5h256q93 0 142 11t83 36l-23 -80 q-3 -12 -4.5 -20t-1.5 -10q0 -6 3 -13.5t9 -17.5h-651z" />
<glyph unicode="&#xbe;" horiz-adv-x="1968" d="M-8 543l24 131q79 -30 150.5 -45t132.5 -15q106 0 167.5 37t61.5 99q0 50 -49.5 77t-142.5 27q-49 0 -88 -4.5t-55 -11.5l22 116q18 -7 43 -10.5t61 -3.5q118 0 184 31t66 86q0 40 -36 63t-101 23q-64 0 -143 -16t-158 -46l31 148q11 -8 20.5 -11.5t18.5 -3.5 q16 0 110.5 9.5t171.5 9.5q111 0 174.5 -42t63.5 -114q0 -66 -39 -111t-119 -73q61 -14 92 -49t31 -88q0 -107 -101.5 -171.5t-273.5 -64.5q-78 0 -171.5 15.5t-108.5 15.5q-11 0 -20 -2t-19 -6zM471 -29q20 22 37 43.5t33 45.5l745 1114q9 13 13.5 27t5.5 30q0 1 -1 6.5 t-1 9.5h192q-30 -35 -44.5 -53.5t-25.5 -34.5l-743 -1114q-9 -14 -13.5 -28t-4.5 -29q0 -3 1 -8.5t1 -8.5h-195zM1168 250l526 401q5 3 7.5 7.5t2.5 9.5t-1 7.5t-3 6.5h219q-12 -14 -19.5 -28.5t-11.5 -37.5l-71 -366h26q20 0 38 5t36 15l-27 -75q-6 -20 -19 -28.5t-38 -8.5 h-37l-4 -29q-2 -6 -3 -13.5t-1 -21.5q0 -29 12 -52t37 -42h-262q32 20 53 52t27 71l8 33h-455q1 1 2 4q6 15 7 24q0 22 -13 39t-36 27zM1333 250h348l66 317z" />
<glyph unicode="&#xbf;" horiz-adv-x="1284" d="M125 303q0 150 107.5 262.5t302.5 165.5q97 26 239.5 47t171.5 45l-45 -237q-14 13 -33 18.5t-49 5.5q-181 0 -309.5 -83t-128.5 -197q0 -82 60.5 -127t168.5 -45q129 0 286.5 53t289.5 143l-56 -303q-14 10 -27 14.5t-26 4.5q-10 0 -187 -49.5t-341 -49.5 q-203 0 -313.5 87t-110.5 245zM731 1100q0 60 44.5 97.5t117.5 37.5t115.5 -34t42.5 -93q0 -61 -44.5 -99t-115.5 -38q-73 0 -116.5 35t-43.5 94z" />
<glyph unicode="&#xc0;" horiz-adv-x="1548" d="M-152 0q58 37 110.5 91.5t137.5 172.5l633 883q8 13 12 23.5t4 17.5q0 5 -1.5 12.5t-3.5 18.5h345q-8 -15 -11 -23.5t-3 -15.5q0 -8 2 -19t6 -22l271 -854q40 -126 74 -188t79 -97h-430q34 26 49 52.5t15 60.5q0 20 -3 39.5t-8 32.5l-20 53h-762l-43 -68 q-12 -18 -18.5 -39t-6.5 -41q0 -27 11.5 -50.5t31.5 -39.5h-471zM469 416h590l-180 596zM688 1647q0 29 21 50t50 21q24 0 47.5 -15.5t51.5 -49.5l231 -295h-90l-250 201q-37 31 -49 49.5t-12 38.5z" />
<glyph unicode="&#xc1;" horiz-adv-x="1548" d="M-152 0q58 37 110.5 91.5t137.5 172.5l633 883q8 13 12 23.5t4 17.5q0 5 -1.5 12.5t-3.5 18.5h345q-8 -15 -11 -23.5t-3 -15.5q0 -8 2 -19t6 -22l271 -854q40 -126 74 -188t79 -97h-430q34 26 49 52.5t15 60.5q0 20 -3 39.5t-8 32.5l-20 53h-762l-43 -68 q-12 -18 -18.5 -39t-6.5 -41q0 -27 11.5 -50.5t31.5 -39.5h-471zM469 416h590l-180 596zM749 1358l295 303q28 28 55 42.5t50 14.5q27 0 48 -22.5t21 -52.5q0 -25 -15 -45.5t-50 -42.5l-312 -197h-92z" />
<glyph unicode="&#xc2;" horiz-adv-x="1548" d="M-152 0q58 37 110.5 91.5t137.5 172.5l633 883q8 13 12 23.5t4 17.5q0 5 -1.5 12.5t-3.5 18.5h345q-8 -15 -11 -23.5t-3 -15.5q0 -8 2 -19t6 -22l271 -854q40 -126 74 -188t79 -97h-430q34 26 49 52.5t15 60.5q0 20 -3 39.5t-8 32.5l-20 53h-762l-43 -68 q-12 -18 -18.5 -39t-6.5 -41q0 -27 11.5 -50.5t31.5 -39.5h-471zM469 416h590l-180 596zM614 1358l299 348h119l162 -348h-70l-168 199l-254 -199h-88z" />
<glyph unicode="&#xc3;" horiz-adv-x="1548" d="M-152 0q58 37 110.5 91.5t137.5 172.5l633 883q8 13 12 23.5t4 17.5q0 5 -1.5 12.5t-3.5 18.5h345q-8 -15 -11 -23.5t-3 -15.5q0 -8 2 -19t6 -22l271 -854q40 -126 74 -188t79 -97h-430q34 26 49 52.5t15 60.5q0 20 -3 39.5t-8 32.5l-20 53h-762l-43 -68 q-12 -18 -18.5 -39t-6.5 -41q0 -27 11.5 -50.5t31.5 -39.5h-471zM469 416h590l-180 596zM659 1391q18 108 67 164.5t124 56.5q17 0 32.5 -2t30.5 -6l101 -27q20 -5 36 -7.5t27 -2.5q38 0 62.5 21.5t36.5 64.5h59q-20 -107 -69.5 -163t-123.5 -56q-14 0 -28 2t-28 6l-114 29 q-15 3 -31 5.5t-22 2.5q-42 0 -65.5 -20.5t-37.5 -67.5h-57z" />
<glyph unicode="&#xc4;" horiz-adv-x="1548" d="M-152 0q58 37 110.5 91.5t137.5 172.5l633 883q8 13 12 23.5t4 17.5q0 5 -1.5 12.5t-3.5 18.5h345q-8 -15 -11 -23.5t-3 -15.5q0 -8 2 -19t6 -22l271 -854q40 -126 74 -188t79 -97h-430q34 26 49 52.5t15 60.5q0 20 -3 39.5t-8 32.5l-20 53h-762l-43 -68 q-12 -18 -18.5 -39t-6.5 -41q0 -27 11.5 -50.5t31.5 -39.5h-471zM469 416h590l-180 596zM657 1518q0 41 33.5 74.5t75.5 33.5q45 0 77.5 -32t32.5 -76q0 -49 -31.5 -81t-78.5 -32q-45 0 -77 33t-32 80zM1013 1518q0 41 34.5 74.5t76.5 33.5q45 0 78 -32t33 -76 q0 -49 -31.5 -81t-79.5 -32q-45 0 -78 33t-33 80z" />
<glyph unicode="&#xc5;" horiz-adv-x="1548" d="M-152 0q58 37 110.5 91.5t137.5 172.5l633 883q8 13 12 23.5t4 17.5q0 5 -1.5 12.5t-3.5 18.5h345q-8 -15 -11 -23.5t-3 -15.5q0 -8 2 -19t6 -22l271 -854q40 -126 74 -188t79 -97h-430q34 26 49 52.5t15 60.5q0 20 -3 39.5t-8 32.5l-20 53h-762l-43 -68 q-12 -18 -18.5 -39t-6.5 -41q0 -27 11.5 -50.5t31.5 -39.5h-471zM469 416h590l-180 596zM676 1532q0 103 71.5 175.5t174.5 72.5t175 -72.5t72 -175.5t-72 -175.5t-175 -72.5t-174.5 72t-71.5 176zM776 1530q0 -62 42.5 -104t105.5 -42q61 0 103 42t42 104q0 61 -42.5 104 t-102.5 43q-62 0 -105 -43t-43 -104z" />
<glyph unicode="&#xc6;" horiz-adv-x="1806" d="M-188 0q47 36 96.5 87.5t118.5 137.5l731 920q8 9 12 19t4 20q0 11 -15 33q-1 1 -1 2h1001q-17 -29 -23.5 -46t-6.5 -30q0 -12 11.5 -64.5t18.5 -92.5q-73 35 -157 51t-228 16h-213l-59 -332h352q87 0 126.5 6.5t66.5 22.5l-74 -123q-24 -40 -61 -56t-148 -16h-291 l-67 -389h280q155 0 253.5 22t166.5 70q-14 -52 -37.5 -116.5t-23.5 -78.5q0 -10 3.5 -25t12.5 -38h-1014q44 27 75 71t44 101l18 72h-479l-65 -86q-17 -21 -25 -42t-8 -42q0 -23 10 -41.5t31 -32.5h-436zM442 418h373l119 635z" />
<glyph unicode="&#xc7;" horiz-adv-x="1374" d="M76 539q0 313 218 510.5t566 197.5q136 0 286.5 -27.5t170.5 -27.5q12 0 43 7q4 1 6 1l-74 -231q-80 49 -183.5 75.5t-215.5 26.5q-261 0 -411 -140.5t-150 -383.5q0 -194 112 -298t322 -104q113 0 224.5 29t223.5 88l-45 -266q-2 1 -5 3q-43 19 -62 19 q-6 0 -116.5 -23.5t-217.5 -23.5q-334 0 -513 147t-179 421zM452 -373l37 82q72 -38 128.5 -56t102.5 -18q54 0 80.5 23t26.5 70q0 40 -28 62t-79 22q-19 0 -42.5 -3t-46.5 -7l65 198h65l-34 -115q13 2 28 3t41 1q79 0 127.5 -45.5t48.5 -119.5q0 -80 -60.5 -127.5 t-164.5 -47.5q-57 0 -125.5 18t-169.5 60z" />
<glyph unicode="&#xc8;" horiz-adv-x="1384" d="M-45 0q57 37 88 88t47 141l131 743q5 28 7.5 52t2.5 47q0 51 -15.5 86t-49.5 62h1171q-17 -29 -23.5 -46t-6.5 -30q0 -11 11.5 -63t18.5 -94q-74 35 -160 51t-225 16h-475l-59 -332h543q86 0 125 6.5t65 22.5l-72 -123q-24 -40 -61.5 -56t-149.5 -16h-479l-67 -389h542 q152 0 251.5 22t168.5 70q-14 -52 -37.5 -116.5t-23.5 -78.5q0 -10 3.5 -25t12.5 -38h-1284zM592 1647q0 29 21 50t50 21q24 0 47.5 -15.5t51.5 -49.5l231 -295h-90l-250 201q-37 31 -49 49.5t-12 38.5z" />
<glyph unicode="&#xc9;" horiz-adv-x="1384" d="M-45 0q57 37 88 88t47 141l131 743q5 28 7.5 52t2.5 47q0 51 -15.5 86t-49.5 62h1171q-17 -29 -23.5 -46t-6.5 -30q0 -11 11.5 -63t18.5 -94q-74 35 -160 51t-225 16h-475l-59 -332h543q86 0 125 6.5t65 22.5l-72 -123q-24 -40 -61.5 -56t-149.5 -16h-479l-67 -389h542 q152 0 251.5 22t168.5 70q-14 -52 -37.5 -116.5t-23.5 -78.5q0 -10 3.5 -25t12.5 -38h-1284zM653 1358l295 303q28 28 55 42.5t50 14.5q27 0 48 -22.5t21 -52.5q0 -25 -15 -45.5t-50 -42.5l-312 -197h-92z" />
<glyph unicode="&#xca;" horiz-adv-x="1384" d="M-45 0q57 37 88 88t47 141l131 743q5 28 7.5 52t2.5 47q0 51 -15.5 86t-49.5 62h1171q-17 -29 -23.5 -46t-6.5 -30q0 -11 11.5 -63t18.5 -94q-74 35 -160 51t-225 16h-475l-59 -332h543q86 0 125 6.5t65 22.5l-72 -123q-24 -40 -61.5 -56t-149.5 -16h-479l-67 -389h542 q152 0 251.5 22t168.5 70q-14 -52 -37.5 -116.5t-23.5 -78.5q0 -10 3.5 -25t12.5 -38h-1284zM518 1358l299 348h119l162 -348h-70l-168 199l-254 -199h-88z" />
<glyph unicode="&#xcb;" horiz-adv-x="1384" d="M-45 0q57 37 88 88t47 141l131 743q5 28 7.5 52t2.5 47q0 51 -15.5 86t-49.5 62h1171q-17 -29 -23.5 -46t-6.5 -30q0 -11 11.5 -63t18.5 -94q-74 35 -160 51t-225 16h-475l-59 -332h543q86 0 125 6.5t65 22.5l-72 -123q-24 -40 -61.5 -56t-149.5 -16h-479l-67 -389h542 q152 0 251.5 22t168.5 70q-14 -52 -37.5 -116.5t-23.5 -78.5q0 -10 3.5 -25t12.5 -38h-1284zM561 1518q0 41 33.5 74.5t75.5 33.5q45 0 77.5 -32t32.5 -76q0 -49 -31.5 -81t-78.5 -32q-45 0 -77 33t-32 80zM917 1518q0 41 34.5 74.5t76.5 33.5q45 0 78 -32t33 -76 q0 -49 -31.5 -81t-79.5 -32q-45 0 -78 33t-33 80z" />
<glyph unicode="&#xcc;" horiz-adv-x="567" d="M-39 0q56 36 85.5 84.5t47.5 144.5l133 744q4 20 6.5 47.5t2.5 60.5q0 45 -15.5 76.5t-50.5 61.5h436q-56 -37 -85 -84.5t-48 -145.5l-133 -743q-4 -22 -6 -49t-2 -58q0 -45 15.5 -77.5t49.5 -61.5h-436zM180 1647q0 29 21 50t50 21q24 0 47.5 -15.5t51.5 -49.5l231 -295 h-90l-250 201q-37 31 -49 49.5t-12 38.5z" />
<glyph unicode="&#xcd;" horiz-adv-x="567" d="M-39 0q56 36 85.5 84.5t47.5 144.5l133 744q4 20 6.5 47.5t2.5 60.5q0 45 -15.5 76.5t-50.5 61.5h436q-56 -37 -85 -84.5t-48 -145.5l-133 -743q-4 -22 -6 -49t-2 -58q0 -45 15.5 -77.5t49.5 -61.5h-436zM241 1358l295 303q28 28 55 42.5t50 14.5q27 0 48 -22.5t21 -52.5 q0 -25 -15 -45.5t-50 -42.5l-312 -197h-92z" />
<glyph unicode="&#xce;" horiz-adv-x="567" d="M-39 0q56 36 85.5 84.5t47.5 144.5l133 744q4 20 6.5 47.5t2.5 60.5q0 45 -15.5 76.5t-50.5 61.5h436q-56 -37 -85 -84.5t-48 -145.5l-133 -743q-4 -22 -6 -49t-2 -58q0 -45 15.5 -77.5t49.5 -61.5h-436zM106 1358l299 348h119l162 -348h-70l-168 199l-254 -199h-88z" />
<glyph unicode="&#xcf;" horiz-adv-x="567" d="M-39 0q56 36 85.5 84.5t47.5 144.5l133 744q4 20 6.5 47.5t2.5 60.5q0 45 -15.5 76.5t-50.5 61.5h436q-56 -37 -85 -84.5t-48 -145.5l-133 -743q-4 -22 -6 -49t-2 -58q0 -45 15.5 -77.5t49.5 -61.5h-436zM149 1518q0 41 33.5 74.5t75.5 33.5q45 0 77.5 -32t32.5 -76 q0 -49 -31.5 -81t-78.5 -32q-45 0 -77 33t-32 80zM505 1518q0 41 34.5 74.5t76.5 33.5q45 0 78 -32t33 -76q0 -49 -31.5 -81t-79.5 -32q-45 0 -78 33t-33 80z" />
<glyph unicode="&#xd0;" horiz-adv-x="1554" d="M-31 0q56 37 86 85.5t47 143.5l64 346h-162l25 148h161l46 250q3 26 5.5 51.5t2.5 48.5q0 49 -15.5 83t-50.5 63h578q192 0 306 -24t198 -77q106 -68 164.5 -182.5t58.5 -257.5q0 -315 -225.5 -496.5t-620.5 -181.5h-668zM334 166h248q158 0 264.5 22t177.5 68 q99 65 155 177t56 245q0 198 -119 286.5t-389 88.5h-233l-62 -330h414l-27 -148h-411z" />
<glyph unicode="&#xd1;" horiz-adv-x="1563" d="M-41 0q56 36 86 86.5t47 142.5l133 744q4 22 6 46t2 52q0 52 -15 86.5t-48 61.5h430l-3 -6q-9 -18 -9 -27t3.5 -19.5t10.5 -21.5l522 -860l113 688q4 26 6 50.5t2 47.5q0 49 -15.5 84t-49.5 64h422q-56 -35 -87 -88t-47 -142l-143 -839q-4 -20 -6 -38.5t-2 -37.5 q0 -23 6 -41.5t18 -32.5h-337q9 13 12.5 21t3.5 14q0 8 -3.5 19t-10.5 22l-553 915l-129 -745q-5 -22 -7 -47t-2 -54q0 -48 15.5 -82t50.5 -63h-422zM649 1391q18 108 67 164.5t124 56.5q17 0 32.5 -2t30.5 -6l101 -27q20 -5 36 -7.5t27 -2.5q38 0 62.5 21.5t36.5 64.5h59 q-20 -107 -69.5 -163t-123.5 -56q-14 0 -28 2t-28 6l-114 29q-15 3 -31 5.5t-22 2.5q-42 0 -65.5 -20.5t-37.5 -67.5h-57z" />
<glyph unicode="&#xd2;" horiz-adv-x="1540" d="M78 555q0 319 201 506.5t544 187.5q303 0 474 -155t171 -428q0 -319 -202 -507t-545 -188q-301 0 -472 155.5t-171 428.5zM332 563q0 -192 107 -300.5t294 -108.5q220 0 350.5 137t130.5 366q0 192 -105.5 300t-293.5 108q-221 0 -352 -136.5t-131 -365.5zM613 1647 q0 29 21 50t50 21q24 0 47.5 -15.5t51.5 -49.5l231 -295h-90l-250 201q-37 31 -49 49.5t-12 38.5z" />
<glyph unicode="&#xd3;" horiz-adv-x="1540" d="M78 555q0 319 201 506.5t544 187.5q303 0 474 -155t171 -428q0 -319 -202 -507t-545 -188q-301 0 -472 155.5t-171 428.5zM332 563q0 -192 107 -300.5t294 -108.5q220 0 350.5 137t130.5 366q0 192 -105.5 300t-293.5 108q-221 0 -352 -136.5t-131 -365.5zM674 1358 l295 303q28 28 55 42.5t50 14.5q27 0 48 -22.5t21 -52.5q0 -25 -15 -45.5t-50 -42.5l-312 -197h-92z" />
<glyph unicode="&#xd4;" horiz-adv-x="1540" d="M78 555q0 319 201 506.5t544 187.5q303 0 474 -155t171 -428q0 -319 -202 -507t-545 -188q-301 0 -472 155.5t-171 428.5zM332 563q0 -192 107 -300.5t294 -108.5q220 0 350.5 137t130.5 366q0 192 -105.5 300t-293.5 108q-221 0 -352 -136.5t-131 -365.5zM539 1358 l299 348h119l162 -348h-70l-168 199l-254 -199h-88z" />
<glyph unicode="&#xd5;" horiz-adv-x="1540" d="M78 555q0 319 201 506.5t544 187.5q303 0 474 -155t171 -428q0 -319 -202 -507t-545 -188q-301 0 -472 155.5t-171 428.5zM332 563q0 -192 107 -300.5t294 -108.5q220 0 350.5 137t130.5 366q0 192 -105.5 300t-293.5 108q-221 0 -352 -136.5t-131 -365.5zM584 1391 q18 108 67 164.5t124 56.5q17 0 32.5 -2t30.5 -6l101 -27q20 -5 36 -7.5t27 -2.5q38 0 62.5 21.5t36.5 64.5h59q-20 -107 -69.5 -163t-123.5 -56q-14 0 -28 2t-28 6l-114 29q-15 3 -31 5.5t-22 2.5q-42 0 -65.5 -20.5t-37.5 -67.5h-57z" />
<glyph unicode="&#xd6;" horiz-adv-x="1540" d="M78 555q0 319 201 506.5t544 187.5q303 0 474 -155t171 -428q0 -319 -202 -507t-545 -188q-301 0 -472 155.5t-171 428.5zM332 563q0 -192 107 -300.5t294 -108.5q220 0 350.5 137t130.5 366q0 192 -105.5 300t-293.5 108q-221 0 -352 -136.5t-131 -365.5zM582 1518 q0 41 33.5 74.5t75.5 33.5q45 0 77.5 -32t32.5 -76q0 -49 -31.5 -81t-78.5 -32q-45 0 -77 33t-32 80zM938 1518q0 41 34.5 74.5t76.5 33.5q45 0 78 -32t33 -76q0 -49 -31.5 -81t-79.5 -32q-45 0 -78 33t-33 80z" />
<glyph unicode="&#xd7;" horiz-adv-x="1706" d="M287 152l458 458l-458 461l116 117l459 -459l461 459l117 -117l-459 -461l459 -458l-117 -119l-461 461l-459 -461z" />
<glyph unicode="&#xd8;" horiz-adv-x="1540" d="M20 -197q33 21 61.5 48t74.5 86l129 161q-106 88 -157.5 200t-51.5 255q0 321 201.5 508.5t545.5 187.5q92 0 170 -14.5t146 -44.5l43 56q3 4 9 11q30 41 30 64q0 6 -2.5 13.5t-6.5 17.5h273q-31 -20 -59 -46.5t-72 -82.5l-86 -107q103 -89 151.5 -198t48.5 -248 q0 -321 -199.5 -509t-541.5 -188q-94 0 -172 14t-141 42l-90 -119q-5 -6 -14 -18q-27 -35 -27 -58q0 -7 8 -26q1 -3 2 -5h-273zM332 569q0 -86 23.5 -159.5t70.5 -130.5l584 745q-35 21 -84.5 31t-120.5 10q-212 0 -342.5 -137t-130.5 -359zM543 193q44 -20 92 -29.5 t102 -9.5q215 0 346 134.5t131 356.5q0 94 -22 166t-68 123z" />
<glyph unicode="&#xd9;" horiz-adv-x="1495" d="M125 377q0 43 5 92t20 137l65 367q4 22 6 46t2 52q0 49 -15.5 84t-49.5 64h436q-56 -36 -86.5 -87.5t-46.5 -142.5l-78 -426q-8 -50 -12 -92.5t-4 -79.5q0 -111 80.5 -177.5t218.5 -66.5q189 0 292 105t146 352l63 369q4 22 6.5 47t2.5 53q0 51 -15.5 85t-48.5 61h428 q-56 -38 -86 -87t-47 -143l-66 -377q-1 -7 -3 -20q-41 -238 -107 -346q-85 -139 -226.5 -207t-347.5 -68q-248 0 -390 108.5t-142 297.5zM639 1647q0 29 21 50t50 21q24 0 47.5 -15.5t51.5 -49.5l231 -295h-90l-250 201q-37 31 -49 49.5t-12 38.5z" />
<glyph unicode="&#xda;" horiz-adv-x="1495" d="M125 377q0 43 5 92t20 137l65 367q4 22 6 46t2 52q0 49 -15.5 84t-49.5 64h436q-56 -36 -86.5 -87.5t-46.5 -142.5l-78 -426q-8 -50 -12 -92.5t-4 -79.5q0 -111 80.5 -177.5t218.5 -66.5q189 0 292 105t146 352l63 369q4 22 6.5 47t2.5 53q0 51 -15.5 85t-48.5 61h428 q-56 -38 -86 -87t-47 -143l-66 -377q-1 -7 -3 -20q-41 -238 -107 -346q-85 -139 -226.5 -207t-347.5 -68q-248 0 -390 108.5t-142 297.5zM700 1358l295 303q28 28 55 42.5t50 14.5q27 0 48 -22.5t21 -52.5q0 -25 -15 -45.5t-50 -42.5l-312 -197h-92z" />
<glyph unicode="&#xdb;" horiz-adv-x="1495" d="M125 377q0 43 5 92t20 137l65 367q4 22 6 46t2 52q0 49 -15.5 84t-49.5 64h436q-56 -36 -86.5 -87.5t-46.5 -142.5l-78 -426q-8 -50 -12 -92.5t-4 -79.5q0 -111 80.5 -177.5t218.5 -66.5q189 0 292 105t146 352l63 369q4 22 6.5 47t2.5 53q0 51 -15.5 85t-48.5 61h428 q-56 -38 -86 -87t-47 -143l-66 -377q-1 -7 -3 -20q-41 -238 -107 -346q-85 -139 -226.5 -207t-347.5 -68q-248 0 -390 108.5t-142 297.5zM565 1358l299 348h119l162 -348h-70l-168 199l-254 -199h-88z" />
<glyph unicode="&#xdc;" horiz-adv-x="1495" d="M125 377q0 43 5 92t20 137l65 367q4 22 6 46t2 52q0 49 -15.5 84t-49.5 64h436q-56 -36 -86.5 -87.5t-46.5 -142.5l-78 -426q-8 -50 -12 -92.5t-4 -79.5q0 -111 80.5 -177.5t218.5 -66.5q189 0 292 105t146 352l63 369q4 22 6.5 47t2.5 53q0 51 -15.5 85t-48.5 61h428 q-56 -38 -86 -87t-47 -143l-66 -377q-1 -7 -3 -20q-41 -238 -107 -346q-85 -139 -226.5 -207t-347.5 -68q-248 0 -390 108.5t-142 297.5zM608 1518q0 41 33.5 74.5t75.5 33.5q45 0 77.5 -32t32.5 -76q0 -49 -31.5 -81t-78.5 -32q-45 0 -77 33t-32 80zM964 1518 q0 41 34.5 74.5t76.5 33.5q45 0 78 -32t33 -76q0 -49 -31.5 -81t-79.5 -32q-45 0 -78 33t-33 80z" />
<glyph unicode="&#xdd;" horiz-adv-x="1411" d="M-35 1219h479q-22 -16 -33.5 -35.5t-11.5 -44.5q0 -26 16 -66t46 -88l229 -377l346 400q39 45 58.5 80t19.5 61q0 25 -10 42t-31 28h457q-58 -43 -120.5 -105t-154.5 -170l-469 -545l-28 -153q-4 -21 -6 -46t-2 -55q0 -50 14.5 -83.5t48.5 -61.5h-434q56 37 86 87t47 142 l33 170l-342 555q-63 102 -124.5 170t-113.5 95zM663 1358l295 303q28 28 55 42.5t50 14.5q27 0 48 -22.5t21 -52.5q0 -25 -15 -45.5t-50 -42.5l-312 -197h-92z" />
<glyph unicode="&#xde;" horiz-adv-x="1395" d="M-45 0q57 37 88 88t47 141l131 743q5 28 7.5 52t2.5 47q0 51 -15.5 86t-49.5 62h436q-53 -34 -85.5 -85t-49.5 -128h309q294 0 425.5 -86t131.5 -275q0 -213 -169 -322.5t-498 -109.5h-334q-3 -23 -4.5 -39.5t-1.5 -28.5q0 -49 15.5 -83.5t49.5 -61.5h-436zM360 387h310 q215 0 313 60t98 190q0 105 -71.5 151t-237.5 46h-330z" />
<glyph unicode="&#xdf;" horiz-adv-x="1147" d="M-57 -270q65 53 96 213l2 10l143 778q50 270 171.5 390t340.5 120q176 0 276.5 -82.5t100.5 -226.5q0 -105 -52.5 -179.5t-152.5 -109.5q97 -23 147 -90.5t50 -173.5q0 -185 -121 -293.5t-330 -108.5q-32 0 -91.5 3.5t-86.5 3.5q-15 0 -33.5 -4t-40.5 -13l37 209 q50 -23 95.5 -34t91.5 -11q123 0 193.5 64t70.5 176q0 86 -55.5 131t-161.5 45q-52 0 -95.5 -9t-78.5 -26l37 197q23 -10 47 -14.5t61 -4.5q123 0 191.5 63t68.5 175q0 76 -46.5 119t-129.5 43q-117 0 -188.5 -84t-102.5 -258l-153 -848q-7 -42 -9 -57.5t-2 -22.5 q0 -26 8.5 -46.5t28.5 -43.5h-327z" />
<glyph unicode="&#xe0;" horiz-adv-x="1174" d="M33 238q0 160 153.5 233.5t491.5 73.5q37 0 79.5 -1.5t86.5 -4.5q1 6 2 17q6 46 6 65q0 75 -50 108t-167 33q-95 0 -215.5 -28t-267.5 -85l67 237q17 -6 33.5 -10t32.5 -4q9 0 136.5 20.5t248.5 20.5q199 0 294 -63.5t95 -198.5q0 -20 -3 -46.5t-12 -80.5l-45 -270 q-1 -6 -2 -17q-10 -60 -10 -83q0 -46 14.5 -81.5t49.5 -72.5h-184q-23 9 -37.5 34.5t-16.5 61.5q-79 -64 -176 -94.5t-227 -30.5q-181 0 -279 69.5t-98 197.5zM262 236q0 -53 51 -84t140 -31q159 0 247 60.5t115 189.5l6 28q-7 0 -44.5 2t-67.5 2q-227 0 -337 -41t-110 -126 zM449 1315q0 29 21 50t50 21q24 0 47.5 -15.5t51.5 -49.5l231 -295h-90l-250 201q-37 31 -49 49.5t-12 38.5z" />
<glyph unicode="&#xe1;" horiz-adv-x="1174" d="M33 238q0 160 153.5 233.5t491.5 73.5q37 0 79.5 -1.5t86.5 -4.5q1 6 2 17q6 46 6 65q0 75 -50 108t-167 33q-95 0 -215.5 -28t-267.5 -85l67 237q17 -6 33.5 -10t32.5 -4q9 0 136.5 20.5t248.5 20.5q199 0 294 -63.5t95 -198.5q0 -20 -3 -46.5t-12 -80.5l-45 -270 q-1 -6 -2 -17q-10 -60 -10 -83q0 -46 14.5 -81.5t49.5 -72.5h-184q-23 9 -37.5 34.5t-16.5 61.5q-79 -64 -176 -94.5t-227 -30.5q-181 0 -279 69.5t-98 197.5zM262 236q0 -53 51 -84t140 -31q159 0 247 60.5t115 189.5l6 28q-7 0 -44.5 2t-67.5 2q-227 0 -337 -41t-110 -126 zM510 1026l295 303q28 28 55 42.5t50 14.5q27 0 48 -22.5t21 -52.5q0 -25 -15 -45.5t-50 -42.5l-312 -197h-92z" />
<glyph unicode="&#xe2;" horiz-adv-x="1174" d="M33 238q0 160 153.5 233.5t491.5 73.5q37 0 79.5 -1.5t86.5 -4.5q1 6 2 17q6 46 6 65q0 75 -50 108t-167 33q-95 0 -215.5 -28t-267.5 -85l67 237q17 -6 33.5 -10t32.5 -4q9 0 136.5 20.5t248.5 20.5q199 0 294 -63.5t95 -198.5q0 -20 -3 -46.5t-12 -80.5l-45 -270 q-1 -6 -2 -17q-10 -60 -10 -83q0 -46 14.5 -81.5t49.5 -72.5h-184q-23 9 -37.5 34.5t-16.5 61.5q-79 -64 -176 -94.5t-227 -30.5q-181 0 -279 69.5t-98 197.5zM262 236q0 -53 51 -84t140 -31q159 0 247 60.5t115 189.5l6 28q-7 0 -44.5 2t-67.5 2q-227 0 -337 -41t-110 -126 zM375 1026l299 348h119l162 -348h-70l-168 199l-254 -199h-88z" />
<glyph unicode="&#xe3;" horiz-adv-x="1174" d="M33 238q0 160 153.5 233.5t491.5 73.5q37 0 79.5 -1.5t86.5 -4.5q1 6 2 17q6 46 6 65q0 75 -50 108t-167 33q-95 0 -215.5 -28t-267.5 -85l67 237q17 -6 33.5 -10t32.5 -4q9 0 136.5 20.5t248.5 20.5q199 0 294 -63.5t95 -198.5q0 -20 -3 -46.5t-12 -80.5l-45 -270 q-1 -6 -2 -17q-10 -60 -10 -83q0 -46 14.5 -81.5t49.5 -72.5h-184q-23 9 -37.5 34.5t-16.5 61.5q-79 -64 -176 -94.5t-227 -30.5q-181 0 -279 69.5t-98 197.5zM262 236q0 -53 51 -84t140 -31q159 0 247 60.5t115 189.5l6 28q-7 0 -44.5 2t-67.5 2q-227 0 -337 -41t-110 -126 zM420 1059q18 108 67 164.5t124 56.5q17 0 32.5 -2t30.5 -6l101 -27q20 -5 36 -7.5t27 -2.5q38 0 62.5 21.5t36.5 64.5h59q-20 -107 -69.5 -163t-123.5 -56q-14 0 -28 2t-28 6l-114 29q-15 3 -31 5.5t-22 2.5q-42 0 -65.5 -20.5t-37.5 -67.5h-57z" />
<glyph unicode="&#xe4;" horiz-adv-x="1174" d="M33 238q0 160 153.5 233.5t491.5 73.5q37 0 79.5 -1.5t86.5 -4.5q1 6 2 17q6 46 6 65q0 75 -50 108t-167 33q-95 0 -215.5 -28t-267.5 -85l67 237q17 -6 33.5 -10t32.5 -4q9 0 136.5 20.5t248.5 20.5q199 0 294 -63.5t95 -198.5q0 -20 -3 -46.5t-12 -80.5l-45 -270 q-1 -6 -2 -17q-10 -60 -10 -83q0 -46 14.5 -81.5t49.5 -72.5h-184q-23 9 -37.5 34.5t-16.5 61.5q-79 -64 -176 -94.5t-227 -30.5q-181 0 -279 69.5t-98 197.5zM262 236q0 -53 51 -84t140 -31q159 0 247 60.5t115 189.5l6 28q-7 0 -44.5 2t-67.5 2q-227 0 -337 -41t-110 -126 zM418 1186q0 41 33.5 74.5t75.5 33.5q45 0 77.5 -32t32.5 -76q0 -49 -31.5 -81t-78.5 -32q-45 0 -77 33t-32 80zM774 1186q0 41 34.5 74.5t76.5 33.5q45 0 78 -32t33 -76q0 -49 -31.5 -81t-79.5 -32q-45 0 -78 33t-33 80z" />
<glyph unicode="&#xe5;" horiz-adv-x="1174" d="M33 238q0 160 153.5 233.5t491.5 73.5q37 0 79.5 -1.5t86.5 -4.5q1 6 2 17q6 46 6 65q0 75 -50 108t-167 33q-95 0 -215.5 -28t-267.5 -85l67 237q17 -6 33.5 -10t32.5 -4q9 0 136.5 20.5t248.5 20.5q199 0 294 -63.5t95 -198.5q0 -20 -3 -46.5t-12 -80.5l-45 -270 q-1 -6 -2 -17q-10 -60 -10 -83q0 -46 14.5 -81.5t49.5 -72.5h-184q-23 9 -37.5 34.5t-16.5 61.5q-79 -64 -176 -94.5t-227 -30.5q-181 0 -279 69.5t-98 197.5zM262 236q0 -53 51 -84t140 -31q159 0 247 60.5t115 189.5l6 28q-7 0 -44.5 2t-67.5 2q-227 0 -337 -41t-110 -126 zM436 1217q0 102 72 173.5t174 71.5q105 0 176.5 -73.5t71.5 -182.5q0 -97 -73 -167t-175 -70q-103 0 -174.5 71.5t-71.5 176.5zM537 1214q0 -61 42 -103t105 -42q61 0 103 42t42 103q0 62 -42.5 105t-102.5 43q-61 0 -104 -43t-43 -105z" />
<glyph unicode="&#xe6;" horiz-adv-x="1860" d="M33 238q0 160 148 233.5t472 73.5q34 0 73.5 -1.5t84.5 -4.5q4 23 6 43.5t2 38.5q0 74 -48 107.5t-157 33.5q-93 0 -208.5 -28t-253.5 -85l59 238q22 -8 36 -11.5t25 -3.5q8 0 136 20.5t249 20.5q122 0 200.5 -29t119.5 -89q82 60 172.5 89t191.5 29q205 0 313.5 -97.5 t108.5 -280.5q0 -41 -6 -88.5t-18 -100.5q-11 11 -26 16t-54 5h-662v-9q0 -106 82.5 -167.5t225.5 -61.5q95 0 192.5 24.5t183.5 69.5l-37 -231q-5 1 -17 4q-33 8 -46 8q-16 0 -113.5 -16.5t-179.5 -16.5q-166 0 -276 47.5t-168 143.5q-75 -97 -186 -144t-263 -47 q-173 0 -267.5 69.5t-94.5 197.5zM252 240q0 -56 49 -87.5t137 -31.5q150 0 240.5 66t105.5 186l2 26q-16 1 -37.5 1.5t-66.5 0.5q-213 0 -321.5 -40.5t-108.5 -120.5zM1018 514h550q3 15 4 26t1 19q0 100 -61 152.5t-177 52.5q-120 0 -206 -68t-111 -182z" />
<glyph unicode="&#xe7;" horiz-adv-x="1053" d="M61 385q0 232 168.5 380t438.5 148q83 0 178.5 -19.5t109.5 -19.5q11 1 26.5 3.5t35.5 6.5l-66 -210q-71 36 -143 53.5t-143 17.5q-168 0 -270.5 -98.5t-102.5 -255.5q0 -120 74.5 -188t205.5 -68q88 0 181 26t170 72l-44 -239q-23 6 -35 8t-20 2q-11 0 -98.5 -16.5 t-163.5 -16.5q-235 0 -368.5 110t-133.5 304zM260 -373l37 82q72 -38 128.5 -56t102.5 -18q54 0 80.5 23t26.5 70q0 40 -28 62t-79 22q-19 0 -42.5 -3t-46.5 -7l65 198h65l-34 -115q13 2 28 3t41 1q79 0 127.5 -45.5t48.5 -119.5q0 -80 -60.5 -127.5t-164.5 -47.5 q-57 0 -125.5 18t-169.5 60z" />
<glyph unicode="&#xe8;" horiz-adv-x="1200" d="M68 395q0 229 159.5 373.5t415.5 144.5q223 0 340 -96t117 -278q0 -38 -6.5 -84.5t-20.5 -108.5q-13 11 -31 16t-53 5h-700q0 -114 86 -176t243 -62q100 0 201 24.5t193 69.5l-40 -231q-5 1 -17 4q-37 8 -52 8t-118 -16.5t-191 -16.5q-258 0 -392 108.5t-134 315.5z M311 514h583q4 21 4.5 29.5t0.5 15.5q0 99 -65 152t-187 53q-127 0 -216 -66.5t-120 -183.5zM461 1315q0 29 21 50t50 21q24 0 47.5 -15.5t51.5 -49.5l231 -295h-90l-250 201q-37 31 -49 49.5t-12 38.5z" />
<glyph unicode="&#xe9;" horiz-adv-x="1200" d="M68 395q0 229 159.5 373.5t415.5 144.5q223 0 340 -96t117 -278q0 -38 -6.5 -84.5t-20.5 -108.5q-13 11 -31 16t-53 5h-700q0 -114 86 -176t243 -62q100 0 201 24.5t193 69.5l-40 -231q-5 1 -17 4q-37 8 -52 8t-118 -16.5t-191 -16.5q-258 0 -392 108.5t-134 315.5z M311 514h583q4 21 4.5 29.5t0.5 15.5q0 99 -65 152t-187 53q-127 0 -216 -66.5t-120 -183.5zM522 1026l295 303q28 28 55 42.5t50 14.5q27 0 48 -22.5t21 -52.5q0 -25 -15 -45.5t-50 -42.5l-312 -197h-92z" />
<glyph unicode="&#xea;" horiz-adv-x="1200" d="M68 395q0 229 159.5 373.5t415.5 144.5q223 0 340 -96t117 -278q0 -38 -6.5 -84.5t-20.5 -108.5q-13 11 -31 16t-53 5h-700q0 -114 86 -176t243 -62q100 0 201 24.5t193 69.5l-40 -231q-5 1 -17 4q-37 8 -52 8t-118 -16.5t-191 -16.5q-258 0 -392 108.5t-134 315.5z M311 514h583q4 21 4.5 29.5t0.5 15.5q0 99 -65 152t-187 53q-127 0 -216 -66.5t-120 -183.5zM387 1026l299 348h119l162 -348h-70l-168 199l-254 -199h-88z" />
<glyph unicode="&#xeb;" horiz-adv-x="1200" d="M68 395q0 229 159.5 373.5t415.5 144.5q223 0 340 -96t117 -278q0 -38 -6.5 -84.5t-20.5 -108.5q-13 11 -31 16t-53 5h-700q0 -114 86 -176t243 -62q100 0 201 24.5t193 69.5l-40 -231q-5 1 -17 4q-37 8 -52 8t-118 -16.5t-191 -16.5q-258 0 -392 108.5t-134 315.5z M311 514h583q4 21 4.5 29.5t0.5 15.5q0 99 -65 152t-187 53q-127 0 -216 -66.5t-120 -183.5zM430 1186q0 41 33.5 74.5t75.5 33.5q45 0 77.5 -32t32.5 -76q0 -49 -31.5 -81t-78.5 -32q-45 0 -77 33t-32 80zM786 1186q0 41 34.5 74.5t76.5 33.5q45 0 78 -32t33 -76 q0 -49 -31.5 -81t-79.5 -32q-45 0 -78 33t-33 80z" />
<glyph unicode="&#xec;" horiz-adv-x="498" d="M-39 0q56 39 90 98.5t49 145.5l68 397q9 57 12.5 86t3.5 45q0 35 -16.5 62t-52.5 51h338q-19 -23 -31 -57.5t-23 -92.5l-86 -491q-7 -42 -11.5 -76.5t-4.5 -50.5q0 -38 17 -66.5t53 -50.5h-406zM111 1315q0 29 21 50t50 21q24 0 47.5 -15.5t51.5 -49.5l231 -295h-90 l-250 201q-37 31 -49 49.5t-12 38.5z" />
<glyph unicode="&#xed;" horiz-adv-x="498" d="M-39 0q56 39 90 98.5t49 145.5l68 397q9 57 12.5 86t3.5 45q0 35 -16.5 62t-52.5 51h338q-19 -23 -31 -57.5t-23 -92.5l-86 -491q-7 -42 -11.5 -76.5t-4.5 -50.5q0 -38 17 -66.5t53 -50.5h-406zM172 1026l295 303q28 28 55 42.5t50 14.5q27 0 48 -22.5t21 -52.5 q0 -25 -15 -45.5t-50 -42.5l-312 -197h-92z" />
<glyph unicode="&#xee;" horiz-adv-x="498" d="M-39 0q56 39 90 98.5t49 145.5l68 397q9 57 12.5 86t3.5 45q0 35 -16.5 62t-52.5 51h338q-19 -23 -31 -57.5t-23 -92.5l-86 -491q-7 -42 -11.5 -76.5t-4.5 -50.5q0 -38 17 -66.5t53 -50.5h-406zM37 1026l299 348h119l162 -348h-70l-168 199l-254 -199h-88z" />
<glyph unicode="&#xef;" horiz-adv-x="498" d="M-39 0q56 39 90 98.5t49 145.5l68 397q9 57 12.5 86t3.5 45q0 35 -16.5 62t-52.5 51h338q-19 -23 -31 -57.5t-23 -92.5l-86 -491q-7 -42 -11.5 -76.5t-4.5 -50.5q0 -38 17 -66.5t53 -50.5h-406zM80 1186q0 41 33.5 74.5t75.5 33.5q45 0 77.5 -32t32.5 -76 q0 -49 -31.5 -81t-78.5 -32q-45 0 -77 33t-32 80zM436 1186q0 41 34.5 74.5t76.5 33.5q45 0 78 -32t33 -76q0 -49 -31.5 -81t-79.5 -32q-45 0 -78 33t-33 80z" />
<glyph unicode="&#xf0;" horiz-adv-x="1241" d="M63 371q0 203 153 338t384 135q77 0 180 -30q2 0 4 -1l-131 154l-340 -101l-26 99l297 84l-115 122q-17 17 -29.5 27.5t-25.5 20.5h317q-7 -6 -10.5 -13.5t-3.5 -17.5q0 -9 2.5 -17.5t5.5 -13.5l47 -51l283 78l28 -99l-231 -63l63 -70q131 -144 188.5 -263t57.5 -243 q0 -218 -157.5 -346.5t-430.5 -128.5q-237 0 -373.5 107.5t-136.5 292.5zM291 377q0 -112 77.5 -177t213.5 -65q167 0 262.5 81.5t95.5 221.5q0 115 -78.5 180.5t-216.5 65.5q-165 0 -259.5 -82.5t-94.5 -224.5z" />
<glyph unicode="&#xf1;" horiz-adv-x="1274" d="M-39 0q57 39 90.5 97t48.5 147l70 397q9 53 12.5 82.5t3.5 44.5q0 37 -16.5 65t-52.5 52h190q23 0 43.5 5t44.5 17l-26 -139q100 74 212 112t232 38q169 0 257.5 -73.5t88.5 -213.5q0 -22 -2.5 -47.5t-7.5 -59.5l-51 -280q-8 -43 -12.5 -78t-4.5 -49q0 -37 18 -66t54 -51 h-405q57 41 90 98.5t49 145.5l49 274q4 24 6 48t2 44q0 73 -44 109.5t-132 36.5q-167 0 -281.5 -93.5t-144.5 -256.5l-29 -162q-7 -43 -11.5 -78t-4.5 -49q0 -38 17 -66.5t53 -50.5h-406zM469 1059q18 108 67 164.5t124 56.5q17 0 32.5 -2t30.5 -6l101 -27q20 -5 36 -7.5 t27 -2.5q38 0 62.5 21.5t36.5 64.5h59q-20 -107 -69.5 -163t-123.5 -56q-14 0 -28 2t-28 6l-114 29q-15 3 -31 5.5t-22 2.5q-42 0 -65.5 -20.5t-37.5 -67.5h-57z" />
<glyph unicode="&#xf2;" horiz-adv-x="1241" d="M63 401q0 232 162.5 373t433.5 141q236 0 371 -115.5t135 -316.5q0 -232 -160 -372t-432 -140q-236 0 -373 116t-137 314zM291 406q0 -126 78 -199.5t213 -73.5q160 0 259 96t99 248q0 127 -78.5 202t-214.5 75q-160 0 -258 -96.5t-98 -251.5zM482 1315q0 29 21 50t50 21 q24 0 47.5 -15.5t51.5 -49.5l231 -295h-90l-250 201q-37 31 -49 49.5t-12 38.5z" />
<glyph unicode="&#xf3;" horiz-adv-x="1241" d="M63 401q0 232 162.5 373t433.5 141q236 0 371 -115.5t135 -316.5q0 -232 -160 -372t-432 -140q-236 0 -373 116t-137 314zM291 406q0 -126 78 -199.5t213 -73.5q160 0 259 96t99 248q0 127 -78.5 202t-214.5 75q-160 0 -258 -96.5t-98 -251.5zM543 1026l295 303 q28 28 55 42.5t50 14.5q27 0 48 -22.5t21 -52.5q0 -25 -15 -45.5t-50 -42.5l-312 -197h-92z" />
<glyph unicode="&#xf4;" horiz-adv-x="1241" d="M63 401q0 232 162.5 373t433.5 141q236 0 371 -115.5t135 -316.5q0 -232 -160 -372t-432 -140q-236 0 -373 116t-137 314zM291 406q0 -126 78 -199.5t213 -73.5q160 0 259 96t99 248q0 127 -78.5 202t-214.5 75q-160 0 -258 -96.5t-98 -251.5zM408 1026l299 348h119 l162 -348h-70l-168 199l-254 -199h-88z" />
<glyph unicode="&#xf5;" horiz-adv-x="1241" d="M63 401q0 232 162.5 373t433.5 141q236 0 371 -115.5t135 -316.5q0 -232 -160 -372t-432 -140q-236 0 -373 116t-137 314zM291 406q0 -126 78 -199.5t213 -73.5q160 0 259 96t99 248q0 127 -78.5 202t-214.5 75q-160 0 -258 -96.5t-98 -251.5zM453 1059q18 108 67 164.5 t124 56.5q17 0 32.5 -2t30.5 -6l101 -27q20 -5 36 -7.5t27 -2.5q38 0 62.5 21.5t36.5 64.5h59q-20 -107 -69.5 -163t-123.5 -56q-14 0 -28 2t-28 6l-114 29q-15 3 -31 5.5t-22 2.5q-42 0 -65.5 -20.5t-37.5 -67.5h-57z" />
<glyph unicode="&#xf6;" horiz-adv-x="1241" d="M63 401q0 232 162.5 373t433.5 141q236 0 371 -115.5t135 -316.5q0 -232 -160 -372t-432 -140q-236 0 -373 116t-137 314zM291 406q0 -126 78 -199.5t213 -73.5q160 0 259 96t99 248q0 127 -78.5 202t-214.5 75q-160 0 -258 -96.5t-98 -251.5zM451 1186q0 41 33.5 74.5 t75.5 33.5q45 0 77.5 -32t32.5 -76q0 -49 -31.5 -81t-78.5 -32q-45 0 -77 33t-32 80zM807 1186q0 41 34.5 74.5t76.5 33.5q45 0 78 -32t33 -76q0 -49 -31.5 -81t-79.5 -32q-45 0 -78 33t-33 80z" />
<glyph unicode="&#xf7;" horiz-adv-x="1706" d="M254 528v166h1198v-166h-1198zM717 229q0 57 40.5 97.5t96.5 40.5q57 0 97 -40.5t40 -97.5q0 -56 -39.5 -95.5t-97.5 -39.5t-97.5 39t-39.5 96zM717 989q0 57 40.5 98t96.5 41q57 0 97 -41t40 -98q0 -56 -39.5 -95.5t-97.5 -39.5t-97.5 39t-39.5 96z" />
<glyph unicode="&#xf8;" horiz-adv-x="1241" d="M12 -172q33 21 59.5 44t47.5 48l112 141q-82 58 -125 145.5t-43 196.5q0 231 163.5 370.5t437.5 139.5q72 0 125 -7.5t94 -24.5l39 47q15 18 23.5 33.5t8.5 25.5q0 6 -1.5 13t-5.5 22h233q-37 -24 -62.5 -46t-44.5 -46l-82 -105q82 -55 128 -147t46 -199 q0 -229 -161.5 -368.5t-432.5 -139.5q-64 0 -121 9.5t-110 27.5l-72 -88q-19 -23 -24.5 -35.5t-5.5 -25.5q0 -5 1.5 -13t3.5 -18h-231zM285 406q0 -57 17.5 -105t51.5 -86l418 522q-30 11 -60 16t-63 5q-164 0 -264 -97t-100 -255zM453 150q23 -10 52.5 -14.5t65.5 -4.5 q172 0 273.5 93t101.5 247q0 83 -34.5 145t-53.5 62q4 -2 10 -6z" />
<glyph unicode="&#xf9;" horiz-adv-x="1272" d="M92 250q0 27 3 55t9 60l50 278q7 40 11.5 72.5t4.5 50.5q0 36 -16.5 63.5t-53.5 51.5h330q-41 -33 -61 -138q-3 -16 -5 -25l-63 -349q-4 -24 -6 -48t-2 -49q0 -75 46 -113t138 -38q175 0 291.5 93.5t146.5 258.5l31 170q8 41 12.5 74t4.5 49q0 37 -16.5 64.5t-51.5 50.5 h328q-42 -32 -64 -154l-2 -8l-82 -459q-6 -36 -9 -68.5t-3 -58.5q0 -44 16 -74t54 -59h-179q-35 6 -53.5 35t-22.5 83q-95 -73 -207 -111t-235 -38q-167 0 -255.5 72t-88.5 209zM498 1315q0 29 21 50t50 21q24 0 47.5 -15.5t51.5 -49.5l231 -295h-90l-250 201 q-37 31 -49 49.5t-12 38.5z" />
<glyph unicode="&#xfa;" horiz-adv-x="1272" d="M92 250q0 27 3 55t9 60l50 278q7 40 11.5 72.5t4.5 50.5q0 36 -16.5 63.5t-53.5 51.5h330q-41 -33 -61 -138q-3 -16 -5 -25l-63 -349q-4 -24 -6 -48t-2 -49q0 -75 46 -113t138 -38q175 0 291.5 93.5t146.5 258.5l31 170q8 41 12.5 74t4.5 49q0 37 -16.5 64.5t-51.5 50.5 h328q-42 -32 -64 -154l-2 -8l-82 -459q-6 -36 -9 -68.5t-3 -58.5q0 -44 16 -74t54 -59h-179q-35 6 -53.5 35t-22.5 83q-95 -73 -207 -111t-235 -38q-167 0 -255.5 72t-88.5 209zM559 1026l295 303q28 28 55 42.5t50 14.5q27 0 48 -22.5t21 -52.5q0 -25 -15 -45.5t-50 -42.5 l-312 -197h-92z" />
<glyph unicode="&#xfb;" horiz-adv-x="1272" d="M92 250q0 27 3 55t9 60l50 278q7 40 11.5 72.5t4.5 50.5q0 36 -16.5 63.5t-53.5 51.5h330q-41 -33 -61 -138q-3 -16 -5 -25l-63 -349q-4 -24 -6 -48t-2 -49q0 -75 46 -113t138 -38q175 0 291.5 93.5t146.5 258.5l31 170q8 41 12.5 74t4.5 49q0 37 -16.5 64.5t-51.5 50.5 h328q-42 -32 -64 -154l-2 -8l-82 -459q-6 -36 -9 -68.5t-3 -58.5q0 -44 16 -74t54 -59h-179q-35 6 -53.5 35t-22.5 83q-95 -73 -207 -111t-235 -38q-167 0 -255.5 72t-88.5 209zM424 1026l299 348h119l162 -348h-70l-168 199l-254 -199h-88z" />
<glyph unicode="&#xfc;" horiz-adv-x="1272" d="M92 250q0 27 3 55t9 60l50 278q7 40 11.5 72.5t4.5 50.5q0 36 -16.5 63.5t-53.5 51.5h330q-41 -33 -61 -138q-3 -16 -5 -25l-63 -349q-4 -24 -6 -48t-2 -49q0 -75 46 -113t138 -38q175 0 291.5 93.5t146.5 258.5l31 170q8 41 12.5 74t4.5 49q0 37 -16.5 64.5t-51.5 50.5 h328q-42 -32 -64 -154l-2 -8l-82 -459q-6 -36 -9 -68.5t-3 -58.5q0 -44 16 -74t54 -59h-179q-35 6 -53.5 35t-22.5 83q-95 -73 -207 -111t-235 -38q-167 0 -255.5 72t-88.5 209zM467 1186q0 41 33.5 74.5t75.5 33.5q45 0 77.5 -32t32.5 -76q0 -49 -31.5 -81t-78.5 -32 q-45 0 -77 33t-32 80zM823 1186q0 41 34.5 74.5t76.5 33.5q45 0 78 -32t33 -76q0 -49 -31.5 -81t-79.5 -32q-45 0 -78 33t-33 80z" />
<glyph unicode="&#xfd;" horiz-adv-x="1110" d="M-33 885h400q-28 -24 -41 -48t-13 -51q0 -23 5.5 -50t15.5 -54l168 -453l286 430q29 44 44.5 81.5t15.5 62.5q0 21 -8 39t-29 43h385q-47 -43 -88.5 -92t-81.5 -105l-477 -688q-50 -72 -71 -117t-21 -78q0 -19 4.5 -37t13.5 -38h-418q58 42 110 95.5t103 123.5l82 110 l-223 582q-28 76 -70 139t-92 105zM477 1026l295 303q28 28 55 42.5t50 14.5q27 0 48 -22.5t21 -52.5q0 -25 -15 -45.5t-50 -42.5l-312 -197h-92z" />
<glyph unicode="&#xfe;" horiz-adv-x="1237" d="M-88 -270q57 41 90.5 100t48.5 143l172 995q5 29 6.5 46.5t1.5 34.5q0 51 -18 91t-57 72h350q-20 -26 -31 -53t-16 -61l-49 -283q74 52 154.5 75t185.5 23q191 0 304 -109.5t113 -295.5q0 -240 -151 -388.5t-393 -148.5q-103 0 -186.5 29t-149.5 88l-23 -115 q-8 -39 -12 -73t-4 -54q0 -39 16.5 -67t52.5 -49h-405zM338 369q0 -118 67 -180t195 -62q144 0 245 115t101 282q0 111 -66.5 173.5t-183.5 62.5q-153 0 -255.5 -112.5t-102.5 -278.5z" />
<glyph unicode="&#xff;" horiz-adv-x="1110" d="M-33 885h400q-28 -24 -41 -48t-13 -51q0 -23 5.5 -50t15.5 -54l168 -453l286 430q29 44 44.5 81.5t15.5 62.5q0 21 -8 39t-29 43h385q-47 -43 -88.5 -92t-81.5 -105l-477 -688q-50 -72 -71 -117t-21 -78q0 -19 4.5 -37t13.5 -38h-418q58 42 110 95.5t103 123.5l82 110 l-223 582q-28 76 -70 139t-92 105zM385 1186q0 41 33.5 74.5t75.5 33.5q45 0 77.5 -32t32.5 -76q0 -49 -31.5 -81t-78.5 -32q-45 0 -77 33t-32 80zM741 1186q0 41 34.5 74.5t76.5 33.5q45 0 78 -32t33 -76q0 -49 -31.5 -81t-79.5 -32q-45 0 -78 33t-33 80z" />
<glyph unicode="&#x152;" horiz-adv-x="1982" d="M80 500q0 315 183.5 530t457.5 215q140 0 243 -56.5t152 -160.5l10 65q1 5 1.5 13t0.5 24q0 38 -7 56t-25 33l841 -1l-2 -4q-26 -46 -26 -65q0 -12 12 -62t18 -90q-71 35 -156 50.5t-229 15.5h-219l-59 -344h348q85 0 125 6.5t67 21.5l-69 -114q-24 -39 -61 -54.5 t-142 -15.5h-297l-71 -407h274q155 0 257.5 21t174.5 67q-13 -48 -35 -109.5t-22 -75.5q0 -10 4 -24.5t12 -34.5h-936q19 20 32.5 52t20.5 72l11 60q-74 -100 -180 -153.5t-230 -53.5q-219 0 -349 142t-130 381zM303 483q0 -158 78 -247t217 -89q181 0 309.5 173t128.5 411 q0 166 -76.5 256t-216.5 90q-184 0 -312 -173.5t-128 -420.5z" />
<glyph unicode="&#x153;" horiz-adv-x="1982" d="M61 406q0 230 157 369.5t419 139.5q128 0 232 -45.5t161 -126.5q79 82 188.5 126t235.5 44q209 0 319.5 -98t110.5 -283q0 -42 -6 -88.5t-18 -97.5q-11 11 -27 16t-55 5h-674q0 -111 84 -174.5t231 -63.5q96 0 195 24.5t186 69.5l-37 -231q-3 1 -8 2q-40 10 -55 10 q-20 0 -113 -16.5t-168 -16.5q-171 0 -274.5 38.5t-171.5 125.5q-74 -80 -184.5 -122t-247.5 -42q-221 0 -350.5 117.5t-129.5 317.5zM283 406q0 -127 74 -200t202 -73q150 0 243 96t93 248q0 127 -74.5 202t-202.5 75q-149 0 -242 -97t-93 -251zM1124 514h563q2 8 2.5 17.5 t0.5 27.5q0 100 -62 152.5t-180 52.5q-121 0 -207 -66.5t-117 -183.5z" />
<glyph unicode="&#x178;" horiz-adv-x="1411" d="M-35 1219h479q-22 -16 -33.5 -35.5t-11.5 -44.5q0 -26 16 -66t46 -88l229 -377l346 400q39 45 58.5 80t19.5 61q0 25 -10 42t-31 28h457q-58 -43 -120.5 -105t-154.5 -170l-469 -545l-28 -153q-4 -21 -6 -46t-2 -55q0 -50 14.5 -83.5t48.5 -61.5h-434q56 37 86 87t47 142 l33 170l-342 555q-63 102 -124.5 170t-113.5 95zM571 1518q0 41 33.5 74.5t75.5 33.5q45 0 77.5 -32t32.5 -76q0 -49 -31.5 -81t-78.5 -32q-45 0 -77 33t-32 80zM927 1518q0 41 34.5 74.5t76.5 33.5q45 0 78 -32t33 -76q0 -49 -31.5 -81t-79.5 -32q-45 0 -78 33t-33 80z" />
<glyph unicode="&#x2c6;" horiz-adv-x="1024" d="M299 1026l299 348h119l162 -348h-70l-168 199l-254 -199h-88z" />
<glyph unicode="&#x2dc;" horiz-adv-x="1024" d="M344 1059q18 108 67 164.5t124 56.5q17 0 32.5 -2t30.5 -6l101 -27q20 -5 36 -7.5t27 -2.5q38 0 62.5 21.5t36.5 64.5h59q-20 -107 -69.5 -163t-123.5 -56q-14 0 -28 2t-28 6l-114 29q-15 3 -31 5.5t-22 2.5q-42 0 -65.5 -20.5t-37.5 -67.5h-57z" />
<glyph unicode="&#x2000;" horiz-adv-x="890" />
<glyph unicode="&#x2001;" horiz-adv-x="1780" />
<glyph unicode="&#x2002;" horiz-adv-x="890" />
<glyph unicode="&#x2003;" horiz-adv-x="1780" />
<glyph unicode="&#x2004;" horiz-adv-x="593" />
<glyph unicode="&#x2005;" horiz-adv-x="445" />
<glyph unicode="&#x2006;" horiz-adv-x="296" />
<glyph unicode="&#x2007;" horiz-adv-x="296" />
<glyph unicode="&#x2008;" horiz-adv-x="222" />
<glyph unicode="&#x2009;" horiz-adv-x="356" />
<glyph unicode="&#x200a;" horiz-adv-x="98" />
<glyph unicode="&#x2010;" horiz-adv-x="713" d="M37 340l78 154q13 27 39 38t90 11h256q58 0 97.5 7.5t64.5 22.5l-78 -153q-13 -27 -37.5 -38t-91.5 -11h-258q-58 0 -97 -7.5t-63 -23.5z" />
<glyph unicode="&#x2011;" horiz-adv-x="713" d="M37 340l78 154q13 27 39 38t90 11h256q58 0 97.5 7.5t64.5 22.5l-78 -153q-13 -27 -37.5 -38t-91.5 -11h-258q-58 0 -97 -7.5t-63 -23.5z" />
<glyph unicode="&#x2012;" horiz-adv-x="713" d="M37 340l78 154q13 27 39 38t90 11h256q58 0 97.5 7.5t64.5 22.5l-78 -153q-13 -27 -37.5 -38t-91.5 -11h-258q-58 0 -97 -7.5t-63 -23.5z" />
<glyph unicode="&#x2013;" horiz-adv-x="1024" d="M-23 397l21 119h1036l-18 -119h-1039z" />
<glyph unicode="&#x2014;" horiz-adv-x="2048" d="M-10 397l18 119h2050l-20 -119h-2048z" />
<glyph unicode="&#x2018;" horiz-adv-x="645" d="M193 924q0 117 161 261q45 40 68 62l102 -108q-44 -6 -74 -32.5t-30 -57.5q0 -16 37 -60t37 -84q0 -58 -42 -96.5t-104 -38.5q-72 0 -113.5 41.5t-41.5 112.5z" />
<glyph unicode="&#x2019;" horiz-adv-x="645" d="M211 881q44 5 75 32t31 58q0 15 -36.5 58t-36.5 89q0 55 41 92t102 37q72 0 114 -41t42 -110q0 -117 -168 -268q-41 -36 -62 -56z" />
<glyph unicode="&#x201a;" horiz-adv-x="645" d="M99 -109q45 8 75.5 34t30.5 57q0 15 -37 58.5t-37 88.5q0 54 42 91.5t103 37.5q74 0 115 -40t41 -112q0 -116 -168 -267q-40 -36 -61 -56z" />
<glyph unicode="&#x201c;" horiz-adv-x="1034" d="M193 922q0 118 163 265q43 39 66 60l102 -108q-44 -6 -74 -32.5t-30 -57.5q0 -16 37 -60t37 -84q0 -59 -41.5 -97t-104.5 -38q-72 0 -113.5 40.5t-41.5 111.5zM582 922q0 117 170 271q39 35 59 54l104 -108q-45 -7 -75.5 -33.5t-30.5 -56.5q0 -17 37 -60.5t37 -83.5 q0 -58 -42 -96.5t-106 -38.5q-71 0 -112 41t-41 111z" />
<glyph unicode="&#x201d;" horiz-adv-x="1034" d="M211 881q44 5 75 32t31 58q0 15 -36.5 58t-36.5 89q0 55 41 92t102 37q72 0 114 -41t42 -110q0 -117 -168 -268q-41 -36 -62 -56zM601 881q43 5 73.5 32t30.5 58q0 14 -36 58t-36 89q0 55 41 92t102 37q70 0 113 -39.5t43 -101.5q0 -127 -162 -272q-44 -39 -68 -62z" />
<glyph unicode="&#x201e;" horiz-adv-x="1034" d="M99 -109q45 8 75.5 34t30.5 57q0 15 -37 58.5t-37 88.5q0 54 42 91.5t103 37.5q74 0 115 -40t41 -112q0 -116 -168 -267q-40 -36 -61 -56zM488 -109q45 8 75.5 34t30.5 57q0 15 -37 59t-37 84q0 58 41 95.5t105 37.5q70 0 112.5 -40t42.5 -103q0 -125 -157 -266 q-47 -42 -72 -66z" />
<glyph unicode="&#x2022;" horiz-adv-x="1208" d="M307 762q0 123 87 209t210 86q122 0 208.5 -86.5t86.5 -208.5t-87.5 -209.5t-209.5 -87.5q-123 0 -209 87t-86 210z" />
<glyph unicode="&#x2026;" horiz-adv-x="2048" d="M133 117q0 60 44.5 96.5t119.5 36.5q72 0 114.5 -35t42.5 -94q0 -60 -45 -96.5t-119 -36.5q-73 0 -115 34.5t-42 94.5zM815 117q0 60 44.5 96.5t119.5 36.5q72 0 114.5 -35t42.5 -94q0 -60 -45 -96.5t-119 -36.5q-73 0 -115 34.5t-42 94.5zM1499 117q0 60 44.5 96.5 t119.5 36.5q72 0 114.5 -35t42.5 -94q0 -60 -45 -96.5t-119 -36.5q-73 0 -115 34.5t-42 94.5z" />
<glyph unicode="&#x202f;" horiz-adv-x="356" />
<glyph unicode="&#x2039;" horiz-adv-x="571" d="M63 442l334 406h146l-281 -406l180 -405h-145z" />
<glyph unicode="&#x203a;" horiz-adv-x="571" d="M-2 37l281 405l-179 406h144l233 -406l-334 -405h-145z" />
<glyph unicode="&#x205f;" horiz-adv-x="445" />
<glyph unicode="&#x2122;" horiz-adv-x="1706" d="M225 1366v94h467v-94h-168v-448h-129v448h-170zM809 918v542h170l141 -360l133 360h170v-542h-114v428l-160 -428h-59l-166 428v-428h-115z" />
<glyph unicode="&#xe000;" horiz-adv-x="885" d="M0 0v885h885v-885h-885z" />
</font>
</defs>
</svg>
